<svg width="120" height="96" viewBox="0 0 120 96" fill="none" xmlns="http://www.w3.org/2000/svg">
<g clip-path="url(#clip0_554_954)">
<g filter="url(#filter0_d_554_954)">
<path d="M61.8002 14.9481C61.5088 15.291 61.3888 15.5996 61.4402 15.8053C61.7659 16.8338 61.8174 16.7653 60.9088 16.6796L60.0859 16.5767L60.7717 17.1767C61.2517 17.6053 61.5431 17.7424 61.8002 17.6738C62.0917 17.5881 62.0745 17.571 61.6802 17.5196C61.0631 17.451 61.0459 17.1424 61.6459 17.1424C62.1088 17.1424 62.1259 17.0224 61.8345 15.9424C61.8002 15.8053 61.8002 15.7367 61.8345 15.8053C62.0059 16.0967 62.1945 15.9253 62.1945 15.4967C62.1945 15.2567 62.2631 14.9824 62.3659 14.8796C62.6402 14.6053 62.9831 15.411 62.9659 16.3196C62.9488 17.0053 63.0002 17.1424 63.2574 17.1424C63.4288 17.1424 63.6688 17.1767 63.8059 17.2281C63.9259 17.2624 64.2174 17.1424 64.4574 16.9538L64.8859 16.5938L64.0459 16.6967C63.1374 16.7996 63.1888 16.8853 63.5317 15.8053C63.6345 15.4453 62.8631 14.3996 62.4859 14.3996C62.3659 14.3996 62.0574 14.6396 61.8002 14.9481Z" fill="white"/>
<path d="M51.9442 16.8884C50.7613 17.197 49.1499 17.6941 48.3442 17.9684C47.5385 18.2427 46.6299 18.517 46.3385 18.5856C45.7899 18.6713 45.7727 18.6713 45.7727 18.0884C45.7727 16.8884 44.4699 16.3741 43.6299 17.2313C42.9956 17.8484 43.0642 18.5856 43.8013 19.3227C44.127 19.6484 44.3499 19.9913 44.2985 20.077C44.1442 20.3513 43.3042 20.2484 42.7042 19.8713C42.2413 19.597 42.1556 19.4598 42.2585 19.1513C42.327 18.9456 42.4127 18.5341 42.4642 18.2256C42.6699 16.957 40.767 16.2541 39.8413 17.2656C39.0699 18.0884 39.087 19.1513 39.8756 20.1798C40.527 21.037 41.5213 21.4656 42.8927 21.4998C43.527 21.4998 44.0585 21.5513 44.0585 21.6027C44.0585 21.6541 43.0985 22.6484 41.9327 23.797C40.2527 25.4427 39.567 26.0084 38.6927 26.4198C37.2356 27.0884 36.5327 27.0541 36.1899 26.2656C36.0527 25.9741 35.8299 25.717 35.7099 25.717C35.4013 25.717 34.7499 26.0598 34.5956 26.2998C34.3899 26.6084 33.6185 25.717 33.4985 25.0484C33.4299 24.7227 33.4642 24.2256 33.567 23.9341C33.687 23.6598 33.7385 23.3856 33.7042 23.3513C33.5499 23.2141 32.4013 23.7284 31.9727 24.1227C31.0127 25.0313 30.7042 26.1113 31.0813 27.2427C31.3042 27.877 31.3042 27.9456 31.0127 28.1513C30.7213 28.357 30.7727 28.4256 31.6299 29.1456C32.127 29.5741 32.5556 29.9856 32.5556 30.0713C32.5727 30.157 32.0413 30.1741 31.3899 30.1227C29.367 29.9513 27.5499 28.837 26.8299 27.3456C26.4699 26.5741 26.5727 25.1684 27.0013 24.6884C27.2585 24.397 27.2413 24.3627 26.8813 24.1056C26.4356 23.7798 25.8356 23.7456 25.3556 24.0198C24.5499 24.4484 24.2413 23.1627 24.8413 21.8598C25.5442 20.317 26.5385 19.5627 27.9442 19.4941C28.9727 19.4598 29.1442 19.597 28.6813 20.1113C28.167 20.677 28.0985 21.037 28.3556 21.6884C28.6299 22.3398 29.0756 22.6313 29.8127 22.6313C30.6699 22.6313 31.167 22.3398 31.5442 21.6198C32.247 20.2141 31.8699 18.7398 30.5327 17.6941C29.8299 17.1798 29.727 17.1456 28.3213 17.1456C27.0356 17.1456 26.6927 17.2141 25.7842 17.6427C23.3327 18.7913 22.1156 21.157 22.3385 24.3284C22.4927 26.3856 22.9899 27.5856 24.2927 28.957C25.6813 30.4484 26.8813 31.1513 28.7499 31.5798C33.2756 32.6084 39.2756 30.157 42.3442 26.0256C42.8242 25.3741 43.0299 25.3398 43.0299 25.9056C43.0299 26.4541 43.3213 26.4027 44.487 25.6313C45.1042 25.2027 45.807 24.8598 46.0299 24.8598C46.2527 24.8598 46.5099 24.7227 46.6127 24.5513C46.767 24.277 46.8013 24.277 47.007 24.5513C47.127 24.7227 47.4699 24.9113 47.7613 24.9627C48.2756 25.0656 48.327 25.0313 48.5156 24.4141C48.927 23.1113 50.2642 20.8656 51.1213 20.0598C52.8185 18.4484 55.1156 17.7456 57.3956 18.1398C59.0413 18.4141 60.207 19.0656 59.9156 19.5456C59.727 19.8541 60.0185 20.4198 60.4642 20.5913C61.0299 20.797 61.5099 20.5227 61.6813 19.837C62.2299 17.7627 59.7099 16.2884 55.6299 16.3056C54.4127 16.3056 53.6242 16.4256 51.9442 16.8884ZM57.8242 16.6998C60.0527 17.1284 61.2699 17.8827 61.4756 18.9627C61.6642 19.9398 60.7556 20.6598 60.3442 19.8713C60.1213 19.477 60.3785 19.0313 60.807 19.0313C61.3042 19.0313 60.1556 17.8656 59.2642 17.4713C58.4756 17.1284 58.0985 17.077 55.9727 17.077C53.7785 17.077 53.4527 17.1113 52.2356 17.5398C51.4985 17.8141 50.4527 18.2427 49.9213 18.517C49.3899 18.7913 48.6527 19.0656 48.3099 19.117C47.9499 19.1856 47.6585 19.3056 47.6585 19.3913C47.6585 19.6313 48.447 19.4084 50.127 18.6713C50.967 18.2941 51.687 18.037 51.7385 18.0884C51.7899 18.1398 51.7899 18.2084 51.7556 18.2427C51.5156 18.4656 48.9785 19.6313 48.2585 19.837C46.8699 20.2484 44.3499 21.7741 45.0527 21.7741C45.1385 21.7741 45.3099 21.6713 45.4127 21.5341C45.687 21.2084 47.967 20.1798 48.2242 20.2827C48.327 20.317 48.1042 20.5227 47.7099 20.7284C46.7156 21.2256 45.327 22.117 45.5327 22.117C45.6185 22.117 46.1327 21.8427 46.6985 21.517C47.247 21.1741 47.7956 20.9341 47.8985 20.9684C48.0013 21.0198 48.2242 20.9341 48.3956 20.7798C48.8927 20.3513 48.927 20.6941 48.447 21.2598C48.207 21.5513 48.0013 21.8941 48.0185 21.997C48.0185 22.117 48.1556 22.0141 48.3099 21.7741C49.167 20.5056 51.6013 18.4484 51.6013 18.997C51.6013 19.0827 51.3956 19.2541 51.1556 19.3741C50.1956 19.8884 48.5156 22.3398 48.1727 23.6941C48.0527 24.157 47.9327 24.517 47.8813 24.517C47.607 24.517 46.8013 23.9513 46.8013 23.7456C46.8013 23.3341 46.4927 23.4541 46.4242 23.8656C46.3899 24.157 46.1327 24.3284 45.3613 24.6027C44.8127 24.7913 44.2127 25.1341 44.0413 25.357C43.8527 25.5798 43.6642 25.717 43.6127 25.6656C43.407 25.4598 43.7156 24.7398 44.3156 23.9856C44.967 23.1627 45.087 22.6313 44.6242 22.6313C44.1785 22.6313 43.8185 22.9056 43.9556 23.1284C44.1442 23.4198 43.0127 24.8598 41.607 26.1627C39.567 28.0313 37.167 29.0084 35.2642 28.7341C34.3213 28.597 33.0699 27.6541 32.6585 26.8141C32.3499 26.1627 32.0413 26.0256 32.1956 26.6084C32.247 26.8313 32.7099 27.4141 33.2242 27.9284L34.167 28.837L33.4127 28.7341C32.8127 28.6484 32.727 28.6484 32.967 28.8027C33.1556 28.9227 34.0127 29.0084 35.0242 28.9913C36.8242 28.9913 38.607 28.597 39.3442 28.0484C39.7213 27.757 39.9442 27.7056 39.9442 27.8941C39.9442 28.0998 38.7956 28.8027 38.487 28.8027C38.3327 28.8027 38.1785 28.9227 38.127 29.0598C38.0585 29.197 37.8699 29.317 37.6985 29.317C37.527 29.317 37.3727 29.437 37.3727 29.5741C37.3727 29.9856 37.0299 29.8656 37.0127 29.437L36.9785 29.0598L36.9099 29.437C36.8756 29.6598 36.7727 29.8313 36.687 29.8313C36.6013 29.8313 36.4985 29.6598 36.4642 29.437C36.3956 29.1113 36.3956 29.1113 36.3613 29.5227C36.3613 29.7798 36.2585 30.037 36.1385 30.1056C36.0013 30.1913 35.9842 30.1398 36.0527 29.9341C36.1213 29.7627 36.1213 29.5398 36.0527 29.437C35.967 29.317 35.8813 29.437 35.8299 29.7456C35.7785 30.0713 35.5899 30.3284 35.2813 30.4827C33.9099 31.1341 30.9613 31.1684 29.3499 30.5341C28.8699 30.3456 28.3385 30.2256 28.2013 30.277C28.047 30.3456 27.807 30.277 27.6356 30.1398C27.4813 30.0027 27.2242 29.8141 27.087 29.7456C26.8642 29.6084 26.8642 29.6256 27.0699 29.8827C27.4642 30.3798 27.0013 30.2084 26.4699 29.6598C25.8527 29.0427 25.4927 28.9741 26.0756 29.5913C26.5042 30.0541 27.5499 30.6884 27.3613 30.3627C27.1727 30.0541 27.4985 30.157 27.7899 30.4827C27.927 30.6541 28.4927 30.8941 29.0242 31.0313C30.207 31.3056 30.327 31.5627 29.1956 31.357C27.8585 31.0998 27.2242 30.8427 26.1442 30.1056C24.9099 29.2656 23.847 28.0141 23.2127 26.6256C22.5613 25.237 22.527 22.9398 23.127 21.1741C23.7785 19.2541 25.5956 17.7113 27.5499 17.3856C28.8699 17.1798 29.7613 17.437 30.6185 18.2427C31.3556 18.9456 31.3727 18.997 31.3727 20.0427C31.3727 21.0027 31.3213 21.1741 30.8756 21.6198C30.3099 22.1856 29.607 22.2713 29.007 21.8427C28.6127 21.5684 28.5099 20.8656 28.7842 20.437C29.0242 20.0598 29.7442 20.2484 29.7442 20.6941C29.7613 21.277 30.0699 21.517 30.4127 21.1741C30.8242 20.7627 30.927 20.1113 30.7042 19.3741C30.1042 17.3341 26.487 17.4713 24.8242 19.5798C23.847 20.8313 23.487 21.6713 23.3156 23.1113C23.1099 25.0141 23.5042 26.4027 24.3785 26.677C25.0813 26.8998 24.9442 26.2998 24.1727 25.8541C23.5899 25.5113 23.367 24.8427 23.6413 24.2256L23.8299 23.797L24.447 24.2598C24.8927 24.6027 25.1156 24.6713 25.2527 24.5341C25.3556 24.4313 25.7499 24.3456 26.1099 24.3456H26.7785L26.3156 24.8941C25.9213 25.357 25.8699 25.5627 25.9385 26.1627C26.1099 27.7913 27.207 29.1627 28.9727 29.9856C29.847 30.397 30.087 30.4313 32.2299 30.4313C34.167 30.4313 34.647 30.3798 35.127 30.1056C35.6756 29.8141 35.6927 29.7627 35.4185 29.5741C35.1613 29.3856 34.9899 29.3856 34.4242 29.5913C33.3956 29.9513 33.207 29.8998 32.2985 29.0598C31.6299 28.4598 31.5099 28.2541 31.6985 28.1341C31.8356 28.0484 32.1099 28.0313 32.3327 28.117C32.5727 28.2198 32.7785 28.2027 32.8299 28.117C32.9327 27.9627 32.2642 27.6027 31.9042 27.6027C31.3213 27.6027 31.1327 25.837 31.6299 25.0998C32.007 24.517 32.5385 24.0027 32.7442 24.0027C32.8299 24.0027 32.9156 24.3284 32.9156 24.7056C32.9156 25.5113 33.3785 26.3856 34.0642 26.8827L34.527 27.2084L34.887 26.677C35.2985 26.077 35.5385 26.0084 35.6413 26.5056C35.847 27.6198 37.0299 27.7398 38.9156 26.797C39.9785 26.2656 40.5613 25.7856 42.327 24.0027C44.2813 22.0141 45.087 21.1056 45.087 20.8484C45.087 20.797 44.8813 20.8313 44.6242 20.9341C44.3499 21.037 43.647 21.1398 43.0299 21.157C40.9385 21.1913 39.4127 19.957 39.7042 18.4141C39.8585 17.6256 40.3213 17.1456 40.9556 17.1456C41.5727 17.1456 41.8642 17.4884 41.7956 18.1227C41.7613 18.4827 41.6413 18.6198 41.3327 18.6541C41.1099 18.6884 40.8527 18.637 40.7499 18.5341C40.4413 18.2256 40.287 18.3113 40.287 18.7741C40.287 19.3913 40.7842 20.0598 41.4356 20.3341C42.1727 20.6598 44.0413 20.6427 44.8127 20.317C45.567 19.9913 45.6013 19.7856 44.9156 19.6313C44.3327 19.5113 43.5442 18.6541 43.5442 18.157C43.5442 17.9856 43.6985 17.677 43.887 17.4884C44.3327 17.0427 45.0013 17.2656 45.0013 17.8484C45.0013 18.1741 44.8813 18.277 44.487 18.3456C44.007 18.4313 43.9899 18.4656 44.3156 18.637C45.3956 19.2027 46.7327 19.0313 49.767 17.8827C53.3327 16.5456 55.407 16.237 57.8242 16.6998Z" fill="white"/>
<path d="M47.2802 21.4801C46.7317 21.8059 45.0859 23.5373 45.0859 23.7773C45.0859 23.8287 45.5659 23.4516 46.1317 22.9373C46.7145 22.4401 47.3831 21.8573 47.6402 21.6516C48.2574 21.1373 48.0345 21.0173 47.2802 21.4801Z" fill="white"/>
<path d="M42.0865 24.9279C40.6636 26.4022 40.1493 26.8136 39.0522 27.345C37.9036 27.8936 37.6122 27.9793 36.8579 27.9108C36.155 27.8422 36.035 27.8593 36.1893 28.0479C36.2922 28.185 36.3265 28.2879 36.275 28.2879C35.8979 28.2879 34.475 27.8422 34.115 27.6193C33.7208 27.3622 33.7036 27.3793 33.9093 27.6365C34.0465 27.7908 34.475 28.065 34.9036 28.2193C36.875 28.9736 39.9779 27.6708 42.3093 25.1165C43.115 24.2422 43.9893 23.1279 43.8522 23.1622C43.8179 23.1622 43.0293 23.9679 42.0865 24.9279Z" fill="white"/>
<path d="M25.1143 26.6079C25.3714 27.4479 26.0914 28.4593 27.0343 29.2993C27.5657 29.7793 28.0972 30.1736 28.1829 30.1564C28.2857 30.1564 28.1829 30.0193 27.9429 29.865C27.1543 29.3507 26.0572 28.0307 25.6286 27.1222C25.2172 26.2136 24.9086 25.9222 25.1143 26.6079Z" fill="white"/>
<path d="M66.5664 16.5433C64.4064 17.0405 63.2578 18.0005 63.2578 19.3205C63.2578 20.3319 64.0807 20.9491 64.7835 20.4519C65.075 20.2462 65.1435 20.0919 65.0578 19.7148C64.955 19.2691 65.0235 19.1662 65.675 18.7548C67.2178 17.7948 70.0635 17.8119 72.0692 18.7891C73.715 19.5948 75.1378 21.2919 76.2178 23.7433C76.715 24.8576 76.7835 24.9433 77.2464 24.8919C77.5207 24.8576 77.8464 24.7033 77.9664 24.5491C78.1721 24.2748 78.2064 24.2748 78.3607 24.5491C78.4635 24.7205 78.7207 24.8576 78.9607 24.8576C79.5092 24.8576 79.9378 25.0805 80.8807 25.8348C81.2921 26.1776 81.635 26.4176 81.6692 26.3833C81.6864 26.3491 81.8407 26.1433 81.9778 25.9205L82.235 25.5433L83.075 26.5205C84.5835 28.3033 85.6121 29.0748 87.9435 30.2233C90.6178 31.5262 93.6521 32.1262 95.7435 31.7319C97.0464 31.4919 99.2921 30.3948 100.304 29.5033C101.846 28.1491 102.772 25.7148 102.652 23.3319C102.532 21.3948 102.035 20.0748 100.955 18.9262C99.7207 17.6405 98.5892 17.1433 96.8578 17.1433C95.915 17.1433 95.2635 17.2291 94.8692 17.4176C93.6007 18.0176 92.7607 19.7319 93.1035 20.9833C93.4292 22.1662 94.8864 22.9205 95.9835 22.4748C96.4292 22.2862 96.8578 21.6862 96.8578 21.2405C96.8578 20.8462 96.2921 19.9033 96.035 19.8348C95.8121 19.7833 95.8635 19.7148 96.2235 19.5776C96.9607 19.2691 98.2978 19.6291 99.1035 20.3491C99.8578 21.0348 100.509 22.5433 100.424 23.4691C100.372 24.1376 100.338 24.1376 99.155 23.8976C98.7778 23.8291 98.4692 23.8805 98.1607 24.0862L97.715 24.3776L98.0578 24.8576C98.4178 25.3719 98.5035 26.4348 98.2464 27.1205C98.1607 27.3433 97.7492 27.9091 97.3207 28.3719C96.3435 29.4691 94.7664 30.1719 93.2921 30.1719L92.315 30.1548L93.2921 29.2291C94.0807 28.4919 94.235 28.2691 94.0292 28.1662C93.8064 28.0462 93.8064 27.8748 93.9778 27.0348C94.1664 26.1776 94.1492 25.9719 93.8407 25.2691C93.4635 24.3605 92.5892 23.5719 91.7492 23.4005C91.2007 23.2805 91.1835 23.2976 91.355 23.6233C91.6464 24.1719 91.5778 25.2348 91.2007 25.8348C90.8064 26.4862 90.635 26.5205 90.1378 26.0576C89.6407 25.6119 88.9721 25.5948 88.9721 26.0405C88.9721 26.4519 88.355 26.9148 87.8064 26.9148C87.5664 26.9148 86.8807 26.6748 86.2464 26.3662C85.355 25.9376 84.6521 25.3548 83.0064 23.7091C81.8407 22.5433 80.915 21.6005 80.9492 21.6005C80.9835 21.6005 81.515 21.5662 82.1492 21.5148C84.4635 21.3776 85.8692 20.1262 85.6635 18.3605C85.5607 17.3662 84.9607 16.8005 84.0178 16.8005C83.1092 16.8005 82.4578 17.3319 82.4578 18.0862C82.4578 18.4119 82.5435 18.7205 82.6292 18.7719C83.2121 19.1319 82.2178 20.2291 81.3092 20.2291C80.435 20.2291 80.4007 20.0576 81.1035 19.3891C81.635 18.8748 81.7721 18.6176 81.7721 18.1205C81.7721 17.2976 81.0178 16.7148 80.1435 16.8691C79.475 17.0062 79.2007 17.3833 79.2007 18.1548C79.2007 18.6519 79.1664 18.6691 78.6521 18.5833C78.3435 18.5148 77.315 18.2062 76.3721 17.8633C73.3207 16.8005 71.7264 16.4405 69.6007 16.3719C68.2635 16.3205 67.2864 16.3719 66.5664 16.5433ZM72.7721 17.0405C73.6292 17.2633 74.9664 17.7433 75.755 18.0691C77.435 18.7891 79.1835 19.0976 80.1092 18.8405C80.8121 18.6519 80.9321 18.4291 80.4007 18.2919C79.955 18.1719 79.7835 17.7262 80.0578 17.4005C80.5207 16.8519 81.4292 17.3662 81.4292 18.1719C81.4292 18.7376 80.6921 19.5262 80.0235 19.6633C78.8235 19.9033 80.1778 20.5719 81.8578 20.5719C83.7264 20.5719 84.8921 19.7319 84.6178 18.6005C84.515 18.1719 84.4807 18.1548 84.275 18.4291C83.795 19.0976 82.9207 18.3605 83.2807 17.5891C83.435 17.2291 83.6064 17.1433 84.0864 17.1433C84.5835 17.1433 84.755 17.2462 85.0292 17.6919C85.7492 18.8576 85.2521 20.1605 83.8635 20.7776C82.9207 21.1891 80.7435 21.2748 80.315 20.9148C80.1607 20.7948 80.0064 20.7262 79.9721 20.7776C79.6635 21.0862 84.1207 25.7491 85.355 26.4176C85.7664 26.6405 86.2978 26.9319 86.555 27.0691C86.795 27.2062 87.395 27.3605 87.8578 27.3948C88.5607 27.4462 88.7664 27.3948 89.0235 27.1205C89.195 26.9319 89.3664 26.6233 89.4007 26.4519C89.435 26.2805 89.4692 26.1091 89.4692 26.0748C89.5035 25.9205 90.2235 26.6748 90.3264 26.9833C90.4464 27.2748 90.4978 27.2576 91.0635 26.7605C91.8178 26.1091 92.2807 25.1491 92.195 24.4976C92.1435 24.2233 92.1435 24.0005 92.1778 24.0005C92.4692 24.0005 92.9835 24.4633 93.3435 25.0976C94.0635 26.3148 93.8578 27.2576 92.8121 27.7033C92.0578 28.0291 92.0578 28.2862 92.8292 28.1662C93.155 28.1148 93.4292 28.1319 93.4292 28.2176C93.4292 28.3033 93.0692 28.7148 92.6407 29.1262C91.955 29.7776 91.8007 29.8462 91.3207 29.7433C89.915 29.4519 89.4864 29.4348 89.4864 29.7091C89.4864 30.1205 90.4635 30.3776 92.435 30.4633C94.6121 30.5662 95.5035 30.3948 96.7721 29.5891C97.835 28.8862 98.915 27.2748 99.035 26.1605C99.1035 25.5605 99.0521 25.3548 98.6578 24.8919L98.195 24.3433H98.9664C99.4121 24.3433 99.7721 24.4291 99.8064 24.5491C99.8578 24.6862 100.098 24.5833 100.492 24.2748C101.109 23.8119 101.126 23.8119 101.298 24.1548C101.641 24.7891 101.504 25.2176 100.766 25.9033C99.995 26.6062 99.9778 26.9662 100.749 26.5548C101.486 26.1605 101.898 25.0119 101.761 23.6748C101.589 22.0119 101.058 20.5376 100.286 19.6805C98.6921 17.8462 96.0178 17.3319 94.7492 18.6005C94.0807 19.2862 94.0464 20.6919 94.6978 21.1205C95.0578 21.3776 95.2978 21.2576 95.3492 20.7776C95.4178 20.1776 96.0521 20.0405 96.3435 20.5719C96.6178 21.0862 96.2578 21.9091 95.7092 22.0462C95.0921 22.2005 94.2864 21.9091 93.8921 21.3948C93.4292 20.7776 93.4635 19.3719 93.9435 18.6862C94.6464 17.6919 95.2635 17.4005 96.6864 17.4005C98.2807 17.4005 99.4635 17.9319 100.664 19.1491C102.224 20.7262 102.755 23.5033 102.001 25.9033C101.349 27.9776 100.218 29.2976 97.8864 30.7205C97.3378 31.0462 95.675 31.4405 95.2292 31.3376C95.0235 31.2862 95.2807 31.1833 95.8635 31.0462C96.4121 30.9262 96.875 30.7205 96.9264 30.5833C96.9778 30.4462 97.1835 30.3433 97.3721 30.3776C97.715 30.4291 99.0864 29.6748 99.0864 29.4348C99.0864 29.3491 98.8635 29.4519 98.5721 29.6576C98.2978 29.8633 97.9721 29.9662 97.8864 29.9148C97.7835 29.8462 97.5778 29.8976 97.4407 30.0176C97.3035 30.1205 97.1492 30.1891 97.0978 30.1376C97.0464 30.0862 97.3378 29.8119 97.715 29.5205C98.1092 29.2291 98.6235 28.7491 98.8635 28.4233C99.6007 27.4462 100.235 25.8519 99.7721 26.1433C99.6864 26.1948 99.6007 26.3833 99.6007 26.5548C99.6007 27.1033 98.2635 28.9548 97.4578 29.5205C96.9778 29.8633 96.755 30.1033 96.8921 30.1891C96.995 30.2576 96.9092 30.3091 96.6692 30.3091C96.4464 30.3091 95.9321 30.4291 95.5207 30.5833C93.2407 31.4405 89.1092 30.8919 88.6464 29.6576C88.5264 29.3662 88.475 29.3148 88.475 29.5205C88.4578 29.6919 88.3721 29.8291 88.2692 29.8291C88.1664 29.8291 88.115 29.6748 88.1664 29.4862C88.2178 29.2976 88.1835 29.1433 88.0978 29.1433C88.0121 29.1433 87.9435 29.3148 87.9435 29.5205C87.9435 29.8633 87.9264 29.8633 87.635 29.6062C87.4635 29.4348 87.2235 29.3148 87.1207 29.3148C87.0007 29.3148 86.915 29.2462 86.915 29.1776C86.915 29.0919 86.6064 28.8862 86.2292 28.7148C85.8521 28.5433 85.4235 28.2519 85.2521 28.0633C85.0807 27.8748 85.0292 27.7548 85.115 27.8062C85.2178 27.8405 85.6292 28.0462 86.0578 28.2348C86.4864 28.4405 87.0692 28.6462 87.3435 28.6976C87.8064 28.8005 87.8064 28.7833 87.2578 28.5776C85.7492 27.9776 84.4464 27.1719 83.435 26.2291C82.2521 25.1148 80.8121 23.3662 80.9664 23.2119C81.0178 23.1605 81.275 23.4176 81.5492 23.7776C81.8064 24.1376 82.6121 24.9948 83.315 25.6805C85.715 28.0291 88.5778 29.0062 90.3435 28.0805C90.755 27.8576 91.1321 27.5662 91.1664 27.4291C91.235 27.2233 91.1664 27.2405 90.8921 27.4805C90.5835 27.7548 89.1778 28.2862 88.7492 28.2862C88.6635 28.2862 88.6978 28.1662 88.8178 28.0119C89.0235 27.7548 89.0064 27.7376 88.6292 27.8748C87.1035 28.3891 84.3435 26.7948 82.0292 24.0519C80.8807 22.6805 80.5035 22.4576 80.1092 22.8348C79.8692 23.0919 79.9035 23.1776 80.555 23.8805C80.9492 24.3091 81.3092 24.8919 81.3607 25.2176L81.4807 25.8005L81.0521 25.4062C80.8121 25.2005 80.1778 24.8405 79.6121 24.6348C78.8578 24.3433 78.5835 24.1376 78.4978 23.8291C78.4121 23.4519 78.3778 23.4348 78.2578 23.7091C78.1892 23.8805 77.915 24.1205 77.6578 24.2576C77.1092 24.5491 76.8007 24.3433 76.8007 23.6919C76.8007 22.7491 74.7092 19.8176 73.6292 19.2348C73.4407 19.1319 73.3378 19.0119 73.4064 18.9433C73.6807 18.6519 75.9435 20.6233 76.835 21.9433C76.9892 22.1833 77.1264 22.2862 77.1264 22.1833C77.1435 22.0805 76.835 21.6348 76.4578 21.2062C76.0807 20.7776 75.7721 20.3833 75.7721 20.3148C75.7721 20.1262 76.4407 20.6748 78.1892 22.2862C79.115 23.1433 79.8864 23.8119 79.8864 23.7433C79.8864 23.4519 78.1892 21.7205 77.6064 21.4119C77.2292 21.2233 76.9892 21.0176 77.0407 20.9662C77.0921 20.9148 77.6407 21.1548 78.2578 21.5148C78.8921 21.8576 79.4407 22.1148 79.475 22.0633C79.5607 21.9776 78.9607 21.6005 77.4521 20.8291C76.9207 20.5548 76.5264 20.2633 76.5607 20.1948C76.6121 20.1262 76.7835 20.1433 76.9378 20.2291C77.0921 20.3148 77.7092 20.5891 78.2921 20.8462C78.8921 21.1033 79.4578 21.4119 79.5607 21.5319C79.6635 21.6691 79.835 21.7719 79.9207 21.7719C80.2292 21.7719 79.6807 21.2576 78.9435 20.8119C78.5492 20.5891 77.6921 20.2119 77.0407 19.9891C75.8235 19.5776 73.0292 18.1719 73.0292 17.9833C73.0292 17.9148 73.7835 18.1891 74.7092 18.6005C75.6178 19.0119 76.5778 19.3891 76.8521 19.4405C77.6235 19.6291 77.3664 19.2862 76.5607 19.0633C76.1321 18.9605 75.155 18.5662 74.3664 18.1891C72.2407 17.1776 71.6921 17.0748 69.0007 17.0748C66.3778 17.0748 65.4692 17.3148 64.5435 18.2405C64.0292 18.7548 64.0121 18.9776 64.475 19.1148C64.9035 19.2519 64.8521 19.8519 64.4064 20.1262C64.1492 20.2805 64.0292 20.2462 63.755 19.9033C63.2578 19.2862 63.3435 18.7719 64.0978 18.0176C64.7492 17.3662 65.555 17.0233 67.4578 16.6291C68.555 16.3891 71.0921 16.5776 72.7721 17.0405Z" fill="white"/>
<path d="M92.4165 26.708C91.7994 27.9252 90.3079 28.7995 88.8679 28.7995C88.4222 28.7995 88.0965 28.8509 88.1479 28.9023C88.3708 29.108 91.9022 29.0223 92.1079 28.8166C92.2794 28.628 92.1594 28.6109 91.5422 28.7137L90.7708 28.8166L91.3708 28.3023C91.6965 28.0109 92.0222 27.7709 92.0908 27.7709C92.2451 27.7709 92.9651 26.228 92.8622 26.1252C92.8108 26.0737 92.6051 26.3309 92.4165 26.708Z" fill="white"/>
<path d="M63.2569 17.6589C63.4798 17.796 63.4626 17.8303 63.2226 17.8303C63.0341 17.8303 62.9141 17.9674 62.9141 18.1732C62.9141 18.6189 62.9483 18.6017 63.3941 18.0017L63.7883 17.4874H63.3941C63.0683 17.4874 63.0512 17.5217 63.2569 17.6589Z" fill="white"/>
<path d="M61.7496 18.1726C61.8696 18.3612 62.0239 18.5154 62.0753 18.5154C62.1439 18.5154 62.161 18.3612 62.1096 18.1726C62.0581 17.984 61.9039 17.8297 61.7839 17.8297C61.5781 17.8297 61.5781 17.8983 61.7496 18.1726Z" fill="white"/>
<path d="M66.8407 18.9451C67.4064 19.2023 68.915 19.3051 68.675 19.0823C68.6064 19.0137 68.2978 18.9451 68.0064 18.9451C67.6978 18.928 67.1835 18.8766 66.8578 18.808L66.2578 18.6709L66.8407 18.9451Z" fill="white"/>
<path d="M56.4004 19.0294C56.4004 19.1151 56.6061 19.2008 56.8804 19.1837C57.2918 19.1837 57.309 19.1666 57.0004 19.0294C56.5375 18.8237 56.4004 18.8237 56.4004 19.0294Z" fill="white"/>
<path d="M62.2125 18.944C62.2125 18.944 62.1953 19.5954 62.1953 20.4011C62.1953 21.2068 62.1096 21.9611 62.0067 22.0811C61.921 22.2011 61.8867 22.5954 61.9553 22.9726C62.0239 23.384 61.9896 23.8126 61.8696 24.0354C61.6982 24.344 61.7325 24.4468 61.9896 24.6354C62.1782 24.7726 62.4867 24.824 62.7439 24.7726C63.3096 24.6183 63.3439 24.5668 63.0696 24.2411C62.881 24.0183 62.8467 23.3668 62.8639 21.4126C62.9153 18.9783 62.8982 18.8754 62.5725 18.9097C62.3839 18.9268 62.2296 18.9268 62.2125 18.944Z" fill="white"/>
<path d="M58.8861 19.3721C58.6975 19.4578 57.9261 19.7321 57.1718 19.9721C56.4175 20.2121 56.0746 20.3493 56.4004 20.2978C56.7261 20.2293 57.2746 20.1607 57.6004 20.1436C57.9261 20.1264 58.4404 19.9893 58.7318 19.835C59.0232 19.6807 59.3146 19.6121 59.3832 19.6636C59.4346 19.7321 59.4861 19.6464 59.4861 19.4921C59.4861 19.1664 59.3832 19.1493 58.8861 19.3721Z" fill="white"/>
<path d="M65.4863 19.4589C65.4863 19.5961 65.5892 19.7161 65.7263 19.7161C65.8635 19.7161 66.3606 19.9218 66.8406 20.1618C67.3378 20.4018 67.852 20.5561 68.0235 20.5218C68.2635 20.4532 68.2463 20.4361 67.972 20.4189C67.7835 20.4018 67.5092 20.3161 67.372 20.2132C67.1835 20.0761 67.252 20.0589 67.7149 20.1104L68.3149 20.2132L67.8006 19.9732C67.5263 19.8361 67.132 19.7332 66.9435 19.7161C66.7549 19.7161 66.412 19.5961 66.172 19.4589C65.6235 19.1504 65.4863 19.1504 65.4863 19.4589Z" fill="white"/>
<path d="M59.0569 20.0573C59.0054 20.143 59.0569 20.2287 59.1769 20.2287C59.314 20.2458 59.2626 20.3315 59.0569 20.503C58.8683 20.6401 58.6283 20.7087 58.5254 20.6744C58.234 20.5715 57.8054 20.9315 57.7369 21.343C57.6854 21.6344 57.5483 21.6858 56.8283 21.6344L55.9883 21.6001L56.3483 21.943C56.7083 22.2515 56.7597 22.2687 57.3769 22.0115C58.4397 21.5658 59.7597 20.5201 59.6911 20.1773C59.6226 19.8687 59.2283 19.783 59.0569 20.0573Z" fill="white"/>
<path d="M65.2639 20.2125C65.2124 20.4697 65.401 20.6925 66.0696 21.1383C66.5496 21.464 67.2353 21.8583 67.5953 22.0125C68.1953 22.2525 68.2639 22.2525 68.5724 21.9783C69.0181 21.6011 69.001 21.3954 68.5381 21.464C68.3153 21.4983 68.161 21.6183 68.1953 21.7383C68.2124 21.8411 68.161 21.944 68.0581 21.944C67.9724 21.944 67.8867 21.8583 67.8867 21.7725C67.8867 21.6697 67.7324 21.6011 67.5439 21.6011C67.3553 21.6011 67.201 21.5325 67.201 21.4297C67.201 21.344 66.841 21.1211 66.4124 20.9154C65.761 20.6411 65.6581 20.5211 65.8124 20.3325C65.9667 20.144 65.9496 20.0754 65.7267 19.9897C65.3667 19.8525 65.3667 19.8525 65.2639 20.2125Z" fill="white"/>
<path d="M57.1718 20.4028C56.8461 20.54 56.8461 20.5571 57.2061 20.5571C57.4118 20.5743 57.6347 20.4885 57.6861 20.4028C57.8061 20.1971 57.6518 20.1971 57.1718 20.4028Z" fill="white"/>
<path d="M61.4226 20.7787C61.2341 21.0016 61.0283 21.3616 60.9769 21.6016C60.9083 21.8416 60.4283 22.5102 59.8969 23.093C59.3826 23.693 59.0226 24.173 59.1083 24.173C59.1941 24.173 59.3655 24.053 59.4855 23.9159C59.5883 23.7787 59.7769 23.693 59.8798 23.7102C59.9998 23.7273 60.0683 23.6416 60.0512 23.5216C60.0169 23.4187 60.0683 23.3159 60.1369 23.3159C60.2226 23.3159 60.3941 23.1102 60.5141 22.8359C60.6512 22.5616 60.7541 22.4587 60.8055 22.5959C60.9426 22.9559 60.0169 24.2244 59.7083 24.1044C59.5712 24.053 59.4855 24.0873 59.5198 24.1902C59.5883 24.3959 59.6569 24.3959 60.4626 24.2416C60.8912 24.1559 61.0455 24.0187 61.1826 23.5902C61.4226 22.7844 61.9026 20.4016 61.7998 20.4016C61.7826 20.4016 61.6112 20.573 61.4226 20.7787Z" fill="white"/>
<path d="M63.2578 20.7783C63.2578 21.2412 63.6692 23.3669 63.8578 23.8469C63.9435 24.0697 65.315 24.584 65.315 24.3954C65.315 24.3612 65.0407 24.0354 64.6978 23.6926C64.2692 23.2469 64.115 22.9554 64.1664 22.664C64.2521 22.2012 63.9778 21.344 63.5664 20.744L63.2578 20.3326V20.7783Z" fill="white"/>
<path d="M66.6512 20.7772C66.9769 20.9658 67.6283 21.1715 68.1083 21.2229C69.1712 21.3258 69.1197 21.1201 68.0397 20.9829C67.6283 20.9315 67.114 20.7772 66.9083 20.6401C66.7026 20.5029 66.4283 20.4001 66.3083 20.4001C66.1883 20.4001 66.3426 20.5715 66.6512 20.7772Z" fill="white"/>
<path d="M55.7833 20.7268C55.8348 20.8126 56.0405 20.8468 56.229 20.7954C56.709 20.6754 56.6576 20.5726 56.1262 20.5726C55.8862 20.5726 55.7319 20.6411 55.7833 20.7268Z" fill="white"/>
<path d="M68.6239 20.7612C68.8639 20.8983 69.0011 20.8983 69.1382 20.7612C69.2754 20.624 69.1896 20.5726 68.8296 20.5726C68.3839 20.5897 68.3496 20.6069 68.6239 20.7612Z" fill="white"/>
<path d="M59.1595 21.5836C58.6281 22.0636 58.2853 22.5093 58.3538 22.6121C58.4567 22.7664 57.8567 23.1436 57.5138 23.1436C57.3595 23.1436 57.5653 22.5779 57.7881 22.4407C57.9595 22.3036 57.9081 22.3036 57.5995 22.3721C57.0167 22.5436 56.7595 22.8007 57.1881 22.8179C57.3767 22.8179 57.4281 22.8693 57.291 22.9207C57.1195 22.9893 57.1195 23.0579 57.2567 23.2293C57.3595 23.3664 57.5653 23.4179 57.7024 23.3664C57.8395 23.315 58.0624 23.3664 58.2167 23.4864C58.4224 23.675 58.5767 23.6236 59.0738 23.1264C59.4167 22.8007 59.9138 22.2521 60.2053 21.8921C60.6338 21.3607 60.6853 21.2064 60.5138 21.0007C60.3938 20.8636 60.2567 20.7436 60.1881 20.7436C60.1367 20.7607 59.6738 21.1379 59.1595 21.5836Z" fill="white"/>
<path d="M64.5432 20.9858C64.269 21.1743 64.2861 21.2429 64.749 21.7915C65.0061 22.1172 65.2804 22.3915 65.3661 22.4258C65.4347 22.4601 65.4861 22.5972 65.4861 22.7172C65.4861 22.8543 65.6575 23.0601 65.8804 23.1629C66.0861 23.2829 66.309 23.4543 66.3775 23.5401C66.4461 23.6601 66.5832 23.6429 66.7547 23.5058C66.8918 23.3858 67.1147 23.3172 67.2347 23.3515C67.4061 23.4201 68.0575 22.9058 68.0575 22.7001C68.0575 22.6829 67.8175 22.5801 67.5261 22.4772L66.9947 22.2886L67.2861 22.7515C67.5604 23.1629 67.5604 23.1972 67.2861 23.0943C67.1318 23.0258 66.9432 22.9743 66.8575 22.9743C66.7718 22.9743 66.669 22.7686 66.6004 22.4943C66.5318 22.2201 66.1547 21.7743 65.6575 21.3972C64.9547 20.8658 64.7832 20.7972 64.5432 20.9858Z" fill="white"/>
<path d="M56.3143 21.0869C55.9371 21.1554 55.8 21.224 56.0057 21.2412C56.2114 21.2412 56.4686 21.2926 56.6057 21.344C56.7257 21.3954 56.9829 21.3269 57.1714 21.1897C57.5486 20.8983 57.4457 20.8812 56.3143 21.0869Z" fill="white"/>
<path d="M64.2852 22.613C64.2852 22.6987 64.5766 23.0758 64.9366 23.4187C65.2794 23.7615 65.5537 24.1044 65.5366 24.173C65.5194 24.2244 65.6223 24.293 65.7594 24.293C66.1194 24.293 66.068 24.2073 65.2794 23.333C64.508 22.493 64.2852 22.3215 64.2852 22.613Z" fill="white"/>
<path d="M74.5881 41.7105C72.0167 47.762 71.1767 49.5963 70.7481 50.0077C70.5253 50.2305 70.0281 50.4705 69.5996 50.5391C69.1196 50.6248 68.8281 50.762 68.8281 50.8991C68.8281 51.0877 69.3596 51.1391 71.6053 51.1563C74.1596 51.1734 74.3996 51.1391 74.3996 50.8648C74.3996 50.642 74.2624 50.5734 73.7481 50.5734C73.3881 50.5734 72.9253 50.4534 72.7024 50.2991C72.2224 49.9563 72.291 49.3905 72.9596 47.9163L73.3881 46.9734H75.8567H78.3081L78.7538 48.0877C78.9938 48.7048 79.1996 49.3905 79.1996 49.6305C79.1996 50.1448 78.6167 50.5734 77.8796 50.5734C77.451 50.5734 77.3138 50.642 77.3138 50.8648C77.3138 51.1563 77.5881 51.1734 80.571 51.1734C83.5538 51.1734 83.8281 51.1563 83.8281 50.8648C83.8281 50.6591 83.691 50.5734 83.3996 50.5734C82.611 50.5734 82.0281 50.1105 81.4796 49.082C81.1881 48.5334 79.971 45.7905 78.771 42.9791C77.571 40.1848 76.5081 37.8877 76.3881 37.8877C76.2853 37.9048 75.4796 39.6191 74.5881 41.7105ZM76.8853 43.7163C77.331 44.7105 77.7253 45.6191 77.7767 45.722C77.8453 45.8934 77.3996 45.9448 75.8738 45.9448C74.7767 45.9448 73.8853 45.8934 73.8853 45.8248C73.8853 45.7563 74.2281 44.9163 74.6396 43.9734C75.0681 43.0305 75.4967 42.0191 75.6167 41.7448C75.7881 41.2648 75.8224 41.2648 75.9596 41.5734C76.0281 41.762 76.4567 42.722 76.8853 43.7163Z" fill="white"/>
<path d="M1.64583 38.9315C1.5944 39.2229 1.54297 40.0457 1.54297 40.7315C1.54297 41.7257 1.5944 42 1.80011 42C1.93725 42 2.12583 41.7086 2.24583 41.2629C2.62297 39.8572 3.0344 39.6515 5.70868 39.5657L7.20011 39.5143V44.28C7.20011 49.3372 7.1144 49.9886 6.37725 50.3829C6.17154 50.4857 5.74297 50.5715 5.40011 50.5715C4.92011 50.5715 4.78297 50.64 4.8344 50.8457C4.88583 51.0857 5.33154 51.12 8.28011 51.1372C11.4001 51.1715 11.6573 51.1543 11.6573 50.8629C11.6573 50.6572 11.5201 50.5715 11.143 50.5715C10.8515 50.5715 10.3887 50.4515 10.1144 50.3143C9.36011 49.92 9.22297 48.96 9.29154 43.9029L9.34297 39.5486L11.0401 39.5829C13.3544 39.6343 13.9201 39.9772 14.2973 41.52C14.3658 41.8115 14.5201 42 14.7087 42C15.0001 42 15.0001 41.9315 14.7601 38.6057C14.743 38.4515 13.3201 38.4 8.24583 38.4H1.76583L1.64583 38.9315Z" fill="white"/>
<path d="M16.457 38.642C16.457 38.7963 16.7142 38.9334 17.1427 39.002C18.6342 39.2591 18.857 39.9791 18.857 44.7448C18.857 49.5277 18.5313 50.5734 17.0399 50.5734C16.5942 50.5734 16.457 50.642 16.457 50.8648C16.457 51.1563 16.7313 51.1734 19.7999 51.1734C22.8685 51.1734 23.1427 51.1563 23.1427 50.8648C23.1427 50.642 23.0056 50.5734 22.5599 50.5734C22.1827 50.5734 21.7885 50.4191 21.497 50.1791C21.1199 49.8363 21.0342 49.5963 20.897 48.4305C20.8285 47.6763 20.7599 46.5791 20.7599 45.9791L20.7427 44.9163H24.1713H27.5999V46.7505C27.5999 49.6648 27.2913 50.3848 26.0056 50.522C25.4227 50.5905 25.1999 50.6934 25.1999 50.8991C25.1999 51.1391 25.5599 51.1734 28.577 51.1391C31.2856 51.122 31.9713 51.0705 31.9713 50.882C31.9713 50.7448 31.6799 50.6248 31.217 50.5563C30.3599 50.4363 29.897 50.0077 29.7427 49.1505C29.6742 48.842 29.657 46.6991 29.6913 44.3677C29.7427 40.3905 29.7599 40.1163 30.1027 39.6534C30.3599 39.3105 30.6856 39.122 31.2513 39.0191C31.7313 38.9163 32.057 38.762 32.057 38.6248C32.057 38.4534 31.3713 38.402 28.6113 38.402C25.5256 38.402 25.1827 38.4363 25.2342 38.6763C25.2685 38.8648 25.4913 38.9848 25.8513 39.0191C27.2056 39.1734 27.4627 39.6363 27.5656 42.0363L27.6513 43.8877H24.1713H20.6913L20.8113 42.0534C20.9656 39.8591 21.1885 39.3448 22.0799 39.1048C22.4227 39.002 22.817 38.9163 22.937 38.9163C23.0399 38.9163 23.1427 38.7963 23.1427 38.6591C23.1427 38.4363 22.6627 38.402 19.7999 38.402C17.0399 38.402 16.457 38.4363 16.457 38.642Z" fill="white"/>
<path d="M34.7488 38.522C34.5431 38.7277 34.6288 38.9163 34.9374 38.9163C35.0917 38.9163 35.5203 39.002 35.8803 39.1048C36.9603 39.3963 37.0288 39.7391 37.0288 44.8648C37.0288 48.962 36.9946 49.322 36.686 49.8363C36.3603 50.3677 36.1031 50.5048 35.1431 50.6077C34.9031 50.642 34.7146 50.762 34.7146 50.882C34.7146 51.0534 35.846 51.1048 40.2174 51.1391L45.7203 51.1734L45.8403 49.9048C45.9946 47.9848 45.9774 47.6591 45.686 47.6591C45.5488 47.6591 45.3774 47.8648 45.326 48.122C45.1031 49.0134 44.726 49.5791 44.1431 49.8191C43.5431 50.0591 40.5774 50.162 40.0288 49.9563C39.4631 49.7334 39.206 48.842 39.1203 46.8363L39.0346 44.9163H39.8746C41.726 44.9163 42.5146 45.4477 42.5146 46.682C42.5146 47.1791 42.5831 47.3334 42.7717 47.282C43.0117 47.2305 43.046 46.802 43.046 44.402C43.0631 41.9334 43.0288 41.5734 42.7888 41.522C42.566 41.4705 42.5146 41.6077 42.5146 42.1563C42.5146 42.6191 42.3946 42.9791 42.1203 43.3048C41.7603 43.7163 41.5717 43.7677 40.406 43.8534L39.086 43.9391V41.6591V39.3963L41.1431 39.4648C43.5774 39.5505 43.9717 39.7391 44.4346 41.0763C44.606 41.5905 44.8288 41.9334 45.0174 41.9848C45.2746 42.0363 45.2917 41.9163 45.206 40.8705C45.1374 40.2191 45.086 39.3963 45.086 39.0363V38.402H39.9774C37.166 38.402 34.8003 38.4534 34.7488 38.522Z" fill="white"/>
<path d="M55.6288 38.5726C55.4573 38.8469 55.6116 38.9497 56.2973 39.0183C57.2059 39.104 57.5659 39.3612 57.7716 40.0812C57.8573 40.4412 57.9431 42.5326 57.9431 44.8812C57.9431 50.0754 57.8573 50.3669 56.3145 50.5726C55.8859 50.624 55.6288 50.744 55.6288 50.8983C55.6288 51.0869 56.3145 51.1212 59.6573 51.104C63.7716 51.0697 64.6459 50.9669 65.6059 50.384C67.6631 49.1154 67.5259 45.8069 65.3659 44.5383L64.8002 44.1954L65.3145 43.6126C65.5888 43.2869 65.8631 42.8069 65.9316 42.5497C65.9831 42.2926 66.0688 41.984 66.1031 41.8469C66.2231 41.4354 65.8288 40.3212 65.3659 39.7554C64.4231 38.6412 63.7888 38.4869 59.5545 38.4354C56.8116 38.384 55.7145 38.4354 55.6288 38.5726ZM62.7431 39.6869C63.4116 40.0297 63.7716 40.7669 63.7716 41.8126C63.7716 42.5326 63.6859 42.7726 63.2745 43.2354C62.7945 43.7669 62.7088 43.8012 61.3888 43.8526L60.0002 43.9212V41.6754V39.4297H61.1145C61.7831 39.4297 62.4516 39.5326 62.7431 39.6869ZM63.6345 45.2926C65.1773 45.8926 65.2802 49.0297 63.7716 49.8012C63.2402 50.0754 60.9431 50.1612 60.5659 49.9212C60.1716 49.664 60.0002 48.8069 60.0002 46.9897C60.0002 45.9783 60.0345 45.104 60.0688 45.0697C60.2059 44.9326 63.1888 45.104 63.6345 45.2926Z" fill="white"/>
<path d="M85.1992 38.6411C85.1992 38.7954 85.4735 38.9154 85.9535 38.984C86.4164 39.0525 86.8449 39.2583 87.1021 39.5325C87.5135 39.9611 87.5135 40.0125 87.5649 44.2811C87.5992 46.664 87.5821 48.8411 87.5135 49.1497C87.3592 50.0068 86.8964 50.4354 86.0392 50.5554C85.5764 50.624 85.2849 50.744 85.2849 50.8983C85.2849 51.0697 85.8678 51.1211 88.1649 51.1554C90.7878 51.1725 91.0278 51.1554 91.0278 50.864C91.0278 50.6583 90.8906 50.5725 90.5135 50.5725C90.2392 50.5725 89.8278 50.4868 89.6049 50.384C88.8164 50.024 88.7306 49.5783 88.6792 45.2583L88.6278 41.2297L89.0735 41.7783C91.1306 44.3154 96.9592 51.2411 97.2335 51.464C97.4221 51.6354 97.6449 51.7211 97.7306 51.6697C97.8164 51.6183 97.8849 49.1154 97.8849 46.0125C97.8849 39.6354 97.9192 39.4125 99.0335 39.104C99.3935 39.0011 99.7878 38.9154 99.9078 38.9154C100.011 38.9154 100.114 38.7954 100.114 38.6583C100.114 38.4354 99.6849 38.4011 97.2849 38.4011C94.8849 38.4011 94.4564 38.4354 94.4564 38.6583C94.4564 38.7954 94.5592 38.9154 94.6792 38.9154C94.7821 38.9154 95.1764 39.0011 95.5192 39.104C96.6164 39.3954 96.7192 39.8068 96.8221 44.0411C96.8735 46.4925 96.8564 47.6754 96.7364 47.6411C96.6335 47.6068 96.0678 46.9897 95.4678 46.2525C94.8678 45.5325 93.1364 43.4754 91.6278 41.6754L88.8849 38.4011H87.0506C85.5935 38.4011 85.1992 38.4525 85.1992 38.6411Z" fill="white"/>
<path d="M102.891 38.6763C102.925 38.8648 103.165 38.9848 103.525 39.0363C104.383 39.122 104.863 39.4991 105.068 40.2363C105.325 41.1448 105.291 48.5848 105.017 49.4591C104.794 50.2305 104.297 50.5734 103.405 50.5734C102.977 50.5734 102.84 50.642 102.891 50.8477C102.943 51.0705 103.405 51.1048 106.285 51.122C109.011 51.122 109.628 51.0877 109.628 50.8991C109.628 50.7448 109.354 50.6248 108.908 50.5563C108.514 50.5048 108.085 50.3677 107.931 50.2477C107.52 49.9048 107.314 48.9277 107.314 47.2134C107.314 45.8248 107.348 45.6191 107.708 45.2934L108.103 44.9334L110.537 47.282C111.874 48.5677 112.971 49.7505 112.971 49.8877C112.971 50.2991 112.611 50.5734 112.08 50.5734C111.737 50.5734 111.6 50.6591 111.6 50.8648C111.6 51.1563 111.874 51.1734 115.028 51.1734C118.097 51.1734 118.457 51.1391 118.457 50.8991C118.457 50.7105 118.251 50.5734 117.908 50.5048C117.103 50.3334 116.125 49.6134 112.8 46.7163C111.171 45.2934 109.765 44.1105 109.697 44.0934C109.337 43.9563 109.68 43.5448 111.291 42.1734C114.205 39.7048 115.183 39.122 116.485 39.002C116.674 38.9848 116.828 38.8648 116.828 38.7277C116.828 38.5391 116.314 38.4705 114.051 38.4363C111.737 38.402 111.257 38.4363 111.257 38.642C111.257 38.7791 111.514 38.9163 111.857 38.9848C112.577 39.122 112.714 39.3105 112.423 39.7734C112.183 40.1677 107.571 44.2305 107.365 44.2305C107.28 44.2305 107.263 43.2705 107.314 42.0877C107.4 40.082 107.451 39.9105 107.845 39.5163C108.12 39.2248 108.514 39.0534 108.96 39.0191C109.405 38.9848 109.645 38.8648 109.68 38.6763C109.731 38.4363 109.371 38.402 106.285 38.402C103.183 38.402 102.84 38.4363 102.891 38.6763Z" fill="white"/>
<path d="M35.1951 54.38C34.8351 54.6885 34.5094 54.9628 34.4751 54.98C34.4408 55.0143 34.4408 55.0657 34.4922 55.1171C34.6465 55.2714 36.3436 54.3457 36.3436 54.0885C36.3436 53.6771 35.8979 53.7971 35.1951 54.38Z" fill="white"/>
<path d="M42.4281 55.7494C41.6395 56.2123 41.4681 56.8294 41.9138 57.6694C42.171 58.1494 42.171 58.2008 41.7424 58.578C40.851 59.418 40.9881 60.5666 42.051 61.098C42.771 61.4408 43.6967 61.3723 44.0567 60.9266C44.2452 60.7037 44.3138 60.7037 44.5538 60.9266C45.0681 61.3894 45.6681 61.4237 46.131 61.0294C46.5424 60.6523 46.4567 60.6523 45.6681 60.978C45.5652 61.0123 45.2567 60.858 44.9995 60.6351C44.5195 60.2408 44.5195 60.2237 44.7595 59.4866C44.931 58.9208 45.1195 58.698 45.4281 58.6123C45.7024 58.5266 45.4624 58.4923 44.7424 58.4923C43.9538 58.4751 43.731 58.5266 43.9881 58.6294C44.4681 58.818 44.5367 58.9551 44.4167 59.5551L44.3138 60.0694L43.5424 59.1437C42.8395 58.3037 42.8052 58.218 43.0967 58.0466C43.9538 57.5323 44.3995 57.0351 44.3995 56.5723C44.3995 55.7151 43.2852 55.2523 42.4281 55.7494ZM43.6795 56.0923C44.0738 56.4866 43.9024 57.0523 43.2852 57.5323C42.9424 57.7894 42.6338 57.9437 42.5824 57.8923C42.531 57.8408 42.4452 57.4808 42.3938 57.0694C42.3081 56.4866 42.3595 56.298 42.5995 56.1094C42.9938 55.8351 43.4052 55.818 43.6795 56.0923ZM43.251 59.5551C43.6967 60.0694 44.0567 60.5323 44.0567 60.5837C44.0567 60.618 43.7824 60.7551 43.4567 60.858C42.8567 61.0466 42.2567 60.8923 41.9652 60.4466C41.6738 60.018 41.931 58.6294 42.3081 58.6294C42.3767 58.6294 42.7881 59.058 43.251 59.5551Z" fill="white"/>
<path d="M16.9548 56.264C14.6405 57.6012 15.5319 61.2869 18.1719 61.2869C18.7205 61.2869 19.0976 61.184 19.3205 60.9783C19.7319 60.6183 19.8862 60.6012 19.8862 60.944C19.8862 61.0812 19.9719 61.2012 20.0576 61.2012C20.1605 61.2012 20.2291 60.7383 20.2291 60.1726C20.2291 59.0926 19.9891 58.8012 19.8005 59.6583C19.6462 60.344 18.9605 60.8583 18.1891 60.8583C17.0405 60.8412 16.3548 59.8297 16.5091 58.3554C16.6634 56.8812 17.4348 56.144 18.5834 56.3497C19.1148 56.4526 19.8862 57.3097 19.8862 57.7897C19.8862 57.9612 19.9719 58.1154 20.0576 58.1154C20.1605 58.1154 20.2291 57.6526 20.2291 57.0869C20.2291 56.5212 20.1605 56.0583 20.0576 56.0583C19.9719 56.0583 19.8862 56.1783 19.8862 56.3154C19.8862 56.6583 19.7662 56.6412 19.2519 56.2297C18.6862 55.784 17.7434 55.8012 16.9548 56.264Z" fill="white"/>
<path d="M22.8857 58.3371C22.0971 60.1885 21.7714 60.7885 21.5142 60.8228C21.3257 60.8571 21.1028 60.96 21.0171 61.0457C20.9142 61.1314 21.3428 61.2 22.0799 61.2C22.7828 61.2 23.3142 61.1314 23.3142 61.0285C23.3142 60.9257 23.1257 60.8571 22.8857 60.8571C22.4057 60.8571 22.3542 60.6 22.6628 59.9142C22.8342 59.52 22.9542 59.4857 23.8285 59.4857C24.7542 59.4857 24.8228 59.52 25.0285 59.9828C25.2685 60.5657 25.1485 60.8571 24.6685 60.8571C24.4971 60.8571 24.3428 60.9257 24.3428 61.0285C24.3428 61.1314 24.9085 61.2 25.7142 61.2C26.5199 61.2 27.0857 61.1314 27.0857 61.0285C27.0857 60.9257 26.9485 60.8571 26.7599 60.8571C26.2971 60.8571 26.1257 60.5828 25.1142 58.1657C24.5999 56.9657 24.1371 55.9542 24.0514 55.9371C23.9828 55.92 23.4514 57 22.8857 58.3371ZM24.2228 58.0628C24.3771 58.5257 24.5142 58.9371 24.5142 59.0057C24.5142 59.0914 24.2057 59.1428 23.8285 59.1428C23.4514 59.1428 23.1428 59.0914 23.1428 59.0057C23.1428 58.7657 23.7257 57.2571 23.8285 57.2571C23.8799 57.2571 24.0685 57.6171 24.2228 58.0628Z" fill="white"/>
<path d="M61.8008 56.3146C61.0465 57.0518 61.3551 58.0975 62.4693 58.6632C63.6522 59.2632 64.1151 59.6575 64.1151 60.0689C64.1151 60.6175 63.7893 60.8575 63.0865 60.8575C62.4179 60.8575 61.7151 60.3089 61.7151 59.7775C61.7151 59.6232 61.6465 59.4518 61.5436 59.4003C61.4408 59.3318 61.3722 59.6918 61.3893 60.3775C61.3893 61.2175 61.4408 61.3889 61.5779 61.1832C61.7493 60.9432 61.8179 60.9432 62.2636 61.166C62.8636 61.4575 63.8408 61.3546 64.3036 60.926C64.7493 60.5318 64.9036 59.5718 64.5951 59.1089C64.4579 58.9032 63.8579 58.4575 63.2408 58.1146C62.3665 57.6346 62.1265 57.4118 62.0922 57.0346C62.0408 56.6746 62.1265 56.5375 62.4522 56.4175C62.6922 56.3318 63.0522 56.2975 63.2408 56.3489C63.6351 56.4518 64.1151 57.206 64.1151 57.7032C64.1151 57.8746 64.1665 57.9432 64.2522 57.8746C64.4065 57.7203 64.4236 55.886 64.2522 55.886C64.2008 55.886 64.1151 55.9718 64.0808 56.0746C64.0293 56.2289 63.9265 56.2289 63.6522 56.0746C63.0351 55.7489 62.2465 55.8518 61.8008 56.3146Z" fill="white"/>
<path d="M73.3711 56.0571C73.3711 56.2457 71.9826 59.5371 71.5711 60.36C71.4168 60.6514 71.1597 60.8571 70.9711 60.8571C70.7997 60.8571 70.594 60.9257 70.5426 61.0285C70.474 61.1314 70.8854 61.2 71.6397 61.2C72.3426 61.2 72.8568 61.1314 72.8568 61.0285C72.8568 60.9257 72.6683 60.8571 72.4283 60.8571C71.9483 60.8571 71.8968 60.6 72.2054 59.9142C72.3768 59.5371 72.4968 59.4857 73.3711 59.4857C74.2454 59.4857 74.3654 59.5371 74.5368 59.9142C74.8454 60.6 74.794 60.8571 74.314 60.8571C74.074 60.8571 73.8854 60.9257 73.8854 61.0285C73.8854 61.1314 74.4511 61.2 75.2568 61.2C76.0626 61.2 76.6283 61.1314 76.6283 61.0285C76.6283 60.9257 76.474 60.8571 76.2854 60.8571C75.8397 60.8571 75.6168 60.4971 74.554 57.9771C73.7826 56.1428 73.3711 55.4914 73.3711 56.0571ZM73.7654 58.0628C73.9197 58.5257 74.0568 58.9371 74.0568 59.0057C74.0568 59.0914 73.7483 59.1428 73.3711 59.1428C72.994 59.1428 72.6854 59.0914 72.6854 59.0057C72.6854 58.7657 73.2683 57.2571 73.3711 57.2571C73.4226 57.2571 73.6111 57.6171 73.7654 58.0628Z" fill="white"/>
<path d="M90.8582 58.0285C89.6925 60.7371 89.6239 60.8571 88.8696 60.8571C88.3725 60.8571 88.1153 60.7028 87.4296 60C86.5039 59.0914 86.3839 58.8 86.8982 58.8C87.2925 58.8 87.9439 58.0285 87.9439 57.5657C87.9439 57.0514 87.6353 56.6057 87.0868 56.3142C86.5382 56.0228 83.6582 55.9371 83.6582 56.2114C83.6582 56.2971 83.8296 56.4 84.0525 56.4342C84.4125 56.4857 84.4296 56.5371 84.4296 58.6285C84.4296 60.72 84.4125 60.7714 84.0525 60.8228C83.8296 60.8571 83.6582 60.96 83.6582 61.0457C83.6582 61.1314 84.2753 61.2 85.0468 61.2C85.9211 61.2 86.3839 61.1314 86.3153 61.0285C86.2639 60.9257 86.0753 60.8571 85.8868 60.8571C85.5096 60.8571 85.3725 60.5314 85.3725 59.64C85.3725 58.68 85.6811 58.8 86.5553 60.0857L87.3096 61.2H89.1782C90.2925 61.2 91.0296 61.1314 91.0296 61.0285C91.0296 60.9257 90.8753 60.8571 90.7039 60.8571C90.2068 60.8571 90.1211 60.5828 90.4296 60C90.6868 59.52 90.7553 59.4857 91.6811 59.4857C92.6239 59.4857 92.6753 59.5028 92.8639 60.0171C93.1039 60.6514 93.0353 60.8571 92.5553 60.8571C92.3839 60.8571 92.2296 60.9257 92.2296 61.0285C92.2296 61.1314 92.7782 61.2 93.5153 61.2C94.2182 61.2 94.8011 61.1314 94.8011 61.0457C94.8011 60.96 94.6296 60.8571 94.4239 60.8228C94.0982 60.7885 93.8582 60.36 93.0011 58.3371C92.4353 57 91.9382 55.8857 91.8868 55.8857C91.8353 55.8857 91.3725 56.8457 90.8582 58.0285ZM86.8639 56.8628C87.4125 57.6 86.8296 58.6285 85.8868 58.6285H85.3725V57.4971V56.3485L86.0068 56.4514C86.3668 56.52 86.7611 56.6914 86.8639 56.8628ZM92.0582 58.0457C92.2468 58.4914 92.4011 58.9028 92.4011 58.9885C92.4011 59.0742 92.0582 59.1428 91.6296 59.1428C91.2011 59.1428 90.8582 59.1085 90.8582 59.0742C90.8582 59.04 90.9611 58.7485 91.0982 58.44C91.2182 58.1142 91.3725 57.72 91.4239 57.5485C91.5782 57.12 91.6639 57.1714 92.0582 58.0457Z" fill="white"/>
<path d="M27.5996 56.2114C27.5996 56.2971 27.771 56.4 27.9939 56.4342C28.3368 56.4857 28.3882 56.6228 28.5253 57.8228C28.731 59.5885 28.5253 60.7542 27.9939 60.8228C27.771 60.8571 27.5996 60.96 27.5996 61.0457C27.5996 61.1314 28.2168 61.2 28.971 61.2C29.7768 61.2 30.3425 61.1314 30.3425 61.0285C30.3425 60.9257 30.2053 60.8571 30.0339 60.8571C29.5196 60.8571 29.3139 60.48 29.3139 59.5371C29.3139 58.6628 29.331 58.6285 29.7939 58.6285C30.3425 58.6285 30.6853 58.9028 30.6853 59.3485C30.6853 59.52 30.7539 59.6571 30.8225 59.6571C30.891 59.6571 30.9596 59.1085 30.9596 58.4571C30.9596 57.7885 30.891 57.2571 30.8225 57.2571C30.7539 57.2571 30.6853 57.3942 30.6853 57.5657C30.6853 58.0114 30.3425 58.2857 29.7939 58.2857C29.331 58.2857 29.3139 58.2685 29.3139 57.3428C29.3139 56.2971 29.331 56.28 30.7368 56.52C31.2168 56.5885 31.4396 56.7257 31.5596 57.0171C31.7825 57.6514 31.9882 57.4971 31.9196 56.7428L31.851 56.0571H29.7253C28.5253 56.0571 27.5996 56.1257 27.5996 56.2114Z" fill="white"/>
<path d="M32.7422 56.2114C32.7422 56.2971 32.9136 56.4 33.1365 56.4342C33.4965 56.4857 33.5136 56.5371 33.5136 58.6285C33.5136 60.72 33.4965 60.7714 33.1365 60.8228C32.9136 60.8571 32.7422 60.96 32.7422 61.0457C32.7422 61.1314 33.7022 61.2 34.9708 61.2H37.1993V60.4114C37.1993 59.9485 37.1308 59.6742 37.0279 59.7428C36.9422 59.7942 36.8565 59.9828 36.8565 60.1714C36.8565 60.5485 36.5308 60.6857 35.5879 60.6857C34.6622 60.6857 34.4565 60.4628 34.4565 59.4514C34.4565 58.7314 34.5079 58.6285 34.8165 58.6285C35.365 58.6285 35.8279 58.9542 35.8279 59.3142C35.8279 59.5028 35.8965 59.6571 35.9822 59.6571C36.1365 59.6571 36.1022 57.48 35.9308 57.3085C35.8793 57.2571 35.8279 57.36 35.8279 57.5314C35.8279 58.0114 35.5022 58.2857 34.9365 58.2857C34.4736 58.2857 34.4565 58.2685 34.4565 57.3257V56.3657L35.365 56.4685C36.1879 56.5714 36.5479 56.7942 36.7365 57.3257C36.8736 57.7028 36.9765 57.3257 36.8908 56.6914L36.8222 56.0571H34.7822C33.6336 56.0571 32.7422 56.1257 32.7422 56.2114Z" fill="white"/>
<path d="M49.8867 56.2114C49.8867 56.2971 50.0581 56.4 50.281 56.4342C50.641 56.4857 50.6581 56.5371 50.6581 58.6285C50.6581 60.72 50.641 60.7714 50.281 60.8228C50.0581 60.8571 49.8867 60.96 49.8867 61.0457C49.8867 61.1314 50.521 61.2 51.2924 61.2C52.1324 61.2 52.6296 61.1314 52.5267 61.0457C52.441 60.96 52.2181 60.8571 52.0296 60.8228C51.7381 60.7714 51.6696 60.6171 51.6353 59.8628C51.5667 58.6457 51.841 58.6971 52.7839 60.0857C53.521 61.1657 53.5553 61.2 54.2924 61.2C55.0981 61.2 55.2867 60.96 54.6181 60.7885C54.2239 60.6857 52.801 59.2457 52.801 58.9542C52.801 58.8685 52.9553 58.8 53.1267 58.8C53.521 58.8 54.1724 58.0285 54.1724 57.5657C54.1724 57.0514 53.8639 56.6057 53.3153 56.3142C52.7667 56.0228 49.8867 55.9371 49.8867 56.2114ZM52.9896 56.6914C53.0753 56.7771 53.1781 57.0857 53.2467 57.3771C53.3839 58.0457 52.8696 58.6285 52.1153 58.6285H51.601V57.4971V56.3485L52.2353 56.4514C52.5781 56.52 52.921 56.6228 52.9896 56.6914Z" fill="white"/>
<path d="M55.543 56.2285C55.543 56.3142 55.6973 56.4 55.8858 56.4C56.4001 56.4 56.5715 56.9314 56.5715 58.6285C56.5715 60.3257 56.4001 60.8571 55.8858 60.8571C55.6973 60.8571 55.543 60.9257 55.543 61.0285C55.543 61.1314 56.4001 61.2 57.7544 61.2H59.9658L60.0344 60.4971C60.1201 59.6571 59.9315 59.4685 59.6744 60.1714C59.5201 60.6514 59.4515 60.6857 58.5601 60.6857C57.463 60.6857 57.2573 60.4628 57.2573 59.3314C57.2573 58.68 57.2915 58.6285 57.7373 58.6285C58.2858 58.6285 58.6287 58.9028 58.6287 59.3485C58.6287 59.52 58.7144 59.6571 58.8001 59.6571C58.903 59.6571 58.9715 59.1428 58.9715 58.4571C58.9715 57.7714 58.903 57.2571 58.8001 57.2571C58.7144 57.2571 58.6287 57.3942 58.6287 57.5657C58.6287 58.0114 58.2858 58.2857 57.7201 58.2857C57.2401 58.2857 57.2401 58.2685 57.2915 57.3771L57.343 56.4857L57.943 56.4685C58.7658 56.4514 59.3315 56.6742 59.4344 57.0857C59.4858 57.2742 59.6058 57.4285 59.6915 57.4285C59.7944 57.4285 59.8287 57.2571 59.7601 57.0342C59.7087 56.8285 59.6573 56.52 59.6573 56.3485C59.6573 56.0914 59.4515 56.0571 57.6001 56.0571C56.3487 56.0571 55.543 56.1257 55.543 56.2285Z" fill="white"/>
<path d="M65.417 56.76C65.2799 57.6342 65.3827 57.7885 65.6913 57.1371C65.897 56.7085 66.017 56.6571 66.8227 56.6057L67.7142 56.5542V58.4914C67.7142 60.5142 67.6113 60.8571 66.9942 60.8571C66.8227 60.8571 66.6856 60.9257 66.6856 61.0285C66.6856 61.1314 67.2513 61.2 68.057 61.2C68.8627 61.2 69.4285 61.1314 69.4285 61.0285C69.4285 60.9257 69.2742 60.8571 69.0856 60.8571C68.5542 60.8571 68.3827 60.1542 68.4342 58.2171L68.4856 56.4857L69.257 56.5542C70.1313 56.6057 70.457 56.8114 70.457 57.2742C70.457 57.4628 70.5427 57.6 70.6285 57.6C70.817 57.6 70.8513 57.0342 70.697 56.4342C70.5942 56.0571 70.5427 56.0571 68.057 56.0571H65.537L65.417 56.76Z" fill="white"/>
<path d="M76.6289 56.2297C76.6289 56.3154 76.7832 56.4011 76.9718 56.4011C77.486 56.4011 77.6575 56.9325 77.6575 58.5783C77.6575 60.2583 77.8289 60.6697 78.686 61.1154C79.3032 61.4411 79.9032 61.4411 80.6575 61.1325C81.4975 60.7725 81.7718 60.1211 81.7718 58.3897C81.7718 56.7268 81.8575 56.4011 82.286 56.4011C82.4746 56.4011 82.6632 56.3154 82.7146 56.2297C82.7832 56.1268 82.3375 56.0583 81.5146 56.0583C80.6918 56.0583 80.246 56.1268 80.3146 56.2297C80.366 56.3154 80.5546 56.4011 80.7432 56.4011C81.1718 56.4011 81.2575 56.7268 81.2575 58.4754C81.2575 59.8811 81.2232 60.0525 80.8289 60.4297C80.3146 60.9611 79.406 60.9954 78.8403 60.5325C78.4803 60.2411 78.4289 60.0354 78.3775 58.664C78.3089 57.0011 78.4803 56.4011 79.0289 56.4011C79.2175 56.4011 79.3718 56.3154 79.3718 56.2297C79.3718 56.1268 78.806 56.0583 78.0003 56.0583C77.1946 56.0583 76.6289 56.1268 76.6289 56.2297Z" fill="white"/>
<path d="M95.3996 56.2312C95.4511 56.3169 95.6396 56.4026 95.8282 56.4026C96.2739 56.4026 96.3425 56.7284 96.3425 58.6312C96.3425 60.5341 96.2739 60.8598 95.8282 60.8598C95.6396 60.8598 95.4511 60.9284 95.3996 61.0312C95.3311 61.1341 95.7425 61.2026 96.4968 61.2026C97.1996 61.2026 97.7139 61.1341 97.7139 61.0312C97.7139 60.9284 97.5596 60.8598 97.3711 60.8598C96.8739 60.8598 96.6853 60.2255 96.6853 58.6141C96.6853 57.2426 96.7882 57.0026 97.1311 57.5512C97.4568 58.0655 100.148 61.2884 100.302 61.3398C100.388 61.3741 100.474 60.2941 100.491 58.9398C100.542 56.5398 100.56 56.4884 100.937 56.4369C101.76 56.3169 101.262 56.0598 100.2 56.0598C99.5653 56.0598 99.0853 56.1284 99.0853 56.2312C99.0853 56.3169 99.2396 56.4026 99.4282 56.4026C99.6168 56.4026 99.8053 56.5055 99.8568 56.6084C99.9596 56.9512 100.045 59.6598 99.9425 59.6598C99.8911 59.6598 99.1711 58.8541 98.3482 57.8598C96.8396 56.0598 96.8225 56.0598 96.0682 56.0598C95.5882 56.0598 95.3311 56.1284 95.3996 56.2312Z" fill="white"/>
<path d="M102.017 56.8628L102.034 57.6857L102.257 57.1714C102.446 56.7257 102.583 56.64 103.354 56.5714C103.851 56.52 104.263 56.4857 104.28 56.5028C104.297 56.52 104.28 57.4971 104.229 58.6628C104.143 60.6 104.109 60.7714 103.8 60.8228C103.611 60.8571 103.389 60.96 103.303 61.0457C103.2 61.1314 103.749 61.2 104.657 61.2C105.566 61.2 106.114 61.1314 106.029 61.0457C105.926 60.96 105.703 60.8571 105.514 60.8228C105.189 60.7714 105.171 60.6171 105.12 58.6285L105.069 56.4685L105.977 56.5714C106.714 56.64 106.886 56.7257 106.937 57C107.074 57.7371 107.314 57.6514 107.314 56.8628V56.0571H104.657H102L102.017 56.8628Z" fill="white"/>
<path d="M28.732 66.79C27.3434 67.1329 25.4406 68.1614 24.4977 69.0872C23.6577 69.9272 22.7663 71.59 22.4749 72.8586C21.9091 75.31 22.612 78.07 24.2063 79.5957C25.5606 80.8814 26.452 81.2586 28.2006 81.2586C29.7949 81.2586 30.3091 81.0872 31.0634 80.2814C31.5777 79.7329 32.0577 78.7214 32.0577 78.1386C32.0577 77.5214 31.4063 76.39 30.8749 76.0643C29.8291 75.4472 28.4406 75.8929 28.2349 76.9214C28.132 77.4529 28.4749 78.2414 28.9206 78.4986C29.1949 78.6529 29.1949 78.6872 28.8177 78.8243C27.8063 79.2014 26.3834 78.7043 25.5606 77.6757C24.2577 76.0814 24.2063 73.8014 25.4749 74.3843C26.0577 74.6414 26.4177 74.6243 26.8806 74.2986L27.2749 74.0243L26.9149 73.4757C25.972 71.9329 27.1549 69.8072 29.572 68.6757C30.292 68.35 32.572 68.0757 32.5549 68.3329C32.5549 68.4186 32.1263 68.83 31.6291 69.2586C30.772 69.9786 30.7206 70.0472 31.012 70.2529C31.3034 70.4586 31.3034 70.5272 31.0806 71.1957C30.5149 72.8072 31.5606 74.6414 33.2234 75.0014C33.772 75.1214 33.8063 75.1043 33.652 74.7272C33.4291 74.0586 33.532 72.9272 33.8749 72.4472C34.2691 71.9157 34.372 71.8986 34.9206 72.3443C35.4349 72.7386 36.0006 72.79 36.0006 72.43C36.0006 72.0529 36.7034 71.4872 37.1663 71.4872C38.3149 71.4872 41.092 73.4243 42.4634 75.1729C42.772 75.55 43.252 76.0472 43.5434 76.2529C43.8177 76.4757 44.0577 76.6986 44.0577 76.7672C44.0577 76.8357 43.5263 76.9043 42.8749 76.9043C40.252 76.9557 38.5549 78.8929 39.5149 80.7614C40.0291 81.7214 41.3834 81.8929 42.1891 81.1043C42.7377 80.5557 42.8234 80.0414 42.4291 79.7157C41.6063 79.03 43.1491 77.83 44.2977 78.2757C44.5034 78.3443 44.4006 78.5157 43.8691 79.0129C43.372 79.51 43.2006 79.8014 43.2006 80.1957C43.2006 81.19 44.2806 81.8414 45.2063 81.3957C45.6006 81.2072 45.7034 81.0529 45.7377 80.4529C45.7891 79.7329 45.8063 79.7329 46.3377 79.8186C46.6463 79.8872 47.5377 80.1614 48.3434 80.4357C51.1377 81.4129 51.8406 81.6186 53.2806 81.8586C56.7606 82.4757 60.0177 81.8757 61.252 80.4014C61.8349 79.7157 61.9549 79.3043 61.7149 78.6186C61.492 77.9157 60.9091 77.6072 60.3263 77.8986C60.0177 78.0529 59.932 78.2243 59.9663 78.5843C60.0349 79.1843 59.7949 79.4757 58.8691 79.9043C57.3091 80.6072 54.652 80.4872 52.9377 79.6129C51.2234 78.7386 49.5091 76.6643 48.6863 74.4357C48.412 73.6643 48.2234 73.3729 48.052 73.4414C47.9149 73.51 47.692 73.5443 47.572 73.5443C47.4349 73.5443 47.212 73.6643 47.0577 73.8186C46.8177 74.0757 46.7663 74.0757 46.5777 73.8357C46.4577 73.6986 46.1149 73.5443 45.7891 73.4757C45.4634 73.4243 44.7777 73.0472 44.2634 72.67C43.5263 72.1043 43.3034 72.0186 43.1834 72.19C43.0977 72.3272 43.0291 72.5329 43.0291 72.6357C43.0291 73.0472 42.7549 72.8586 42.0177 71.9672C39.9434 69.4129 36.8406 67.6129 33.2749 66.8757C31.3206 66.4643 30.172 66.4472 28.732 66.79ZM29.7434 67.2014C29.5549 67.2872 29.2463 67.3557 29.0406 67.3557C28.8349 67.3729 28.5091 67.5272 28.2863 67.7157C28.0634 67.9214 27.772 68.0243 27.652 67.9729C27.412 67.8872 26.1777 68.5729 25.972 68.9157C25.8006 69.19 26.1606 69.1214 26.4006 68.8129C26.5377 68.6757 26.7949 68.47 26.9834 68.3672C27.3091 68.1957 27.3263 68.1957 27.1034 68.4529C26.9149 68.6929 26.9149 68.7443 27.1034 68.7443C27.2749 68.7614 27.2406 68.8472 27.0006 69.0529C26.3663 69.6014 25.5434 70.7672 25.2863 71.5043C24.892 72.6186 25.0806 72.4814 25.7149 71.2129C26.6234 69.3614 28.1149 68.1443 30.172 67.6129C32.6234 66.9786 36.3091 67.7329 36.3606 68.8986C36.3949 69.2929 36.3949 69.31 36.4634 68.95C36.5663 68.4357 36.8577 68.47 36.8577 69.0014V69.4129L35.092 69.3957C33.9949 69.3786 33.1891 69.4472 32.9834 69.5843C32.7263 69.7386 32.812 69.7557 33.5149 69.67L34.372 69.55L33.6006 70.15C32.6749 70.8529 31.732 72.3443 32.212 72.3443C32.2977 72.3443 32.4863 72.0357 32.6406 71.6757C33.0691 70.5614 34.2691 69.8072 35.8806 69.6357C36.8749 69.5157 36.9434 69.4814 37.0291 69.0186L37.1149 68.5386L37.4406 68.8986C37.612 69.0872 37.8349 69.2072 37.9034 69.1557C37.9891 69.1043 38.0577 69.1214 38.0577 69.2072C38.0577 69.2757 38.4863 69.5672 39.0006 69.8414C40.3034 70.51 40.2006 70.7329 38.8806 70.1157C38.2806 69.8243 37.6463 69.6014 37.4577 69.6014C37.2691 69.6186 37.4406 69.7557 37.8863 69.9272C40.1491 70.8357 41.7949 72.0529 43.2177 73.8872C43.612 74.4014 44.0063 74.9329 44.1091 75.0357C44.212 75.19 44.212 75.2586 44.1091 75.2586C44.0063 75.2586 43.5606 74.7786 43.0977 74.1957C42.1206 72.9443 41.9834 72.8072 40.972 71.9672C39.4463 70.7329 37.5777 69.9443 36.172 69.9443C35.332 69.9443 33.9263 70.5443 33.8063 70.9557C33.7549 71.1272 33.8749 71.0929 34.1834 70.8529C34.4406 70.6472 34.8863 70.4243 35.1949 70.3729C35.5034 70.3043 35.8977 70.2186 36.0863 70.1672C36.3949 70.0814 36.412 70.0986 36.172 70.3729C35.932 70.6643 35.9491 70.6643 36.3434 70.5272C37.0806 70.2872 37.852 70.4414 39.1377 71.0757C40.1491 71.5729 40.732 72.0529 42.3606 73.75C43.7149 75.1386 44.4691 75.79 44.6749 75.7386C45.1891 75.6529 45.1377 75.31 44.5034 74.6072C43.5091 73.5272 43.2177 72.1386 44.1777 73.0986C44.4006 73.3386 44.9834 73.6472 45.4634 73.8186C46.012 73.99 46.3549 74.2129 46.4063 74.4186C46.492 74.7614 46.8006 74.8814 46.8006 74.5729C46.8006 74.35 47.7949 73.8529 48.0006 73.9729C48.1034 74.0243 48.172 74.2643 48.172 74.4872C48.172 75.5329 50.092 78.4129 51.2577 79.0814C51.5491 79.27 51.7549 79.4414 51.7034 79.4929C51.3777 79.8186 48.772 77.5557 48.3091 76.5443C48.2063 76.3043 48.052 76.1157 47.9663 76.1157C47.7434 76.1157 48.2577 77.0072 48.7549 77.47C48.9949 77.71 49.2006 77.9672 49.2006 78.0529C49.2006 78.2586 48.2234 77.4529 46.5606 75.8757C45.8063 75.1557 45.1549 74.6072 45.1206 74.6586C44.9663 74.7957 46.732 76.63 47.3663 76.99C47.7263 77.1786 47.9834 77.3843 47.932 77.4357C47.8806 77.4872 47.3663 77.2472 46.7834 76.9043C46.2006 76.5614 45.6349 76.3043 45.532 76.3386C45.3434 76.4072 45.6177 76.5614 47.452 77.47C48.0349 77.7614 48.5149 78.07 48.5149 78.1557C48.5149 78.4472 45.5834 77.1957 45.3434 76.8014C45.292 76.7157 45.1549 76.63 45.052 76.63C44.7263 76.63 45.2577 77.11 46.1663 77.6243C46.6634 77.8986 47.6063 78.2929 48.2577 78.5157C48.9263 78.7386 49.6463 79.0472 49.8863 79.2014C50.1263 79.3729 50.6749 79.6472 51.1034 79.8529C51.5491 80.0414 51.9606 80.2814 52.012 80.3843C52.1834 80.6586 52.1491 80.6414 50.3834 79.8186C48.9434 79.15 48.2749 78.9443 47.7434 79.0129C47.6577 79.03 48.1549 79.2357 48.8577 79.4757C49.5606 79.7157 50.3834 80.0586 50.6577 80.23C50.9491 80.3843 51.7206 80.71 52.372 80.9329C53.4006 81.2757 53.8977 81.3443 55.972 81.3272C58.0806 81.3272 58.4749 81.2757 59.2291 80.95C60.1034 80.5557 60.8577 79.9557 60.8577 79.6643C60.8577 79.5786 60.6863 79.3729 60.4806 79.2014C60.1549 78.9443 60.1206 78.8243 60.2749 78.5672C60.7034 77.8814 61.5434 78.2929 61.5434 79.2014C61.5434 80.7786 58.4234 82.0986 55.2006 81.8757C53.5891 81.7557 51.9606 81.3614 50.1434 80.6757C49.492 80.4186 48.532 80.0586 48.052 79.87C46.7149 79.39 44.2291 79.39 44.2291 79.9043C44.2291 79.99 44.3834 80.0586 44.5549 80.0586C44.7434 80.0586 44.9491 80.2129 45.0006 80.4014C45.1206 80.7957 44.8291 81.2586 44.4691 81.2586C44.1091 81.2586 43.5434 80.6243 43.5434 80.2129C43.5434 79.75 44.6063 78.6872 45.0691 78.6872C45.6177 78.6872 45.4977 78.3614 44.8291 78.07C43.9549 77.71 42.1377 77.7614 41.332 78.1557C40.6463 78.5157 40.1663 79.3214 40.3549 79.8014C40.4577 80.0929 40.8006 80.1614 40.8006 79.8872C40.8006 79.7843 40.9891 79.7157 41.2291 79.7157C41.5377 79.7157 41.6749 79.8357 41.7606 80.1786C41.932 80.8129 41.6406 81.1557 40.9377 81.2243C40.252 81.2757 39.8749 80.8814 39.6863 79.87C39.6006 79.4072 39.6863 79.1329 40.0463 78.5672C40.8863 77.2986 43.2006 76.8357 45.0006 77.59C45.4291 77.7614 44.332 76.4072 42.3777 74.3672C40.132 72.0357 38.1606 70.87 36.6863 71.0072C36.1891 71.0414 36.0349 71.1614 35.7777 71.71C35.4349 72.4129 35.2806 72.3957 34.8006 71.6243L34.492 71.1272L33.8063 71.7786C33.1034 72.4472 32.6406 73.5786 32.8463 74.1272C33.0177 74.5729 32.6577 74.4529 32.1091 73.8872C30.9263 72.67 30.9949 71.2472 32.2463 70.6814C33.1034 70.3043 33.1034 70.0814 32.2291 70.2186C31.852 70.2872 31.5434 70.27 31.5434 70.1843C31.5434 70.0986 31.9034 69.6872 32.332 69.2757C33.0006 68.6243 33.172 68.5557 33.652 68.6414C35.4006 68.9672 35.4863 68.9672 35.4863 68.6757C35.4863 68.1786 34.6291 68.0072 32.2291 67.99C29.9149 67.9729 29.8977 67.9729 28.7491 68.5557C27.532 69.1729 27.0691 69.67 26.332 71.0929C25.7663 72.2243 25.7663 72.8586 26.332 73.5272L26.7777 74.0586H26.1091C25.7491 74.0586 25.3549 73.9729 25.252 73.87C25.1149 73.7329 24.9091 73.7843 24.4806 74.11C23.9149 74.5386 23.8977 74.5557 23.692 74.23C23.2806 73.5786 23.6063 72.8072 24.4806 72.3614C24.892 72.1386 24.9949 71.6586 24.6349 71.6586C24.3091 71.6586 23.6749 72.2929 23.452 72.8243C23.0577 73.8186 23.332 76.3214 23.9491 77.5729C24.3091 78.2929 25.6806 79.6814 26.4006 80.0586C28.0291 80.8986 30.1034 80.5214 30.6006 79.3043C30.9263 78.5329 30.9263 78.0014 30.5834 77.5214C30.2234 76.99 29.8806 77.0414 29.7434 77.6586C29.5549 78.5157 28.6291 78.2414 28.6291 77.3329C28.6291 76.2529 29.9834 75.91 30.8577 76.7843C31.8349 77.7614 31.7491 79.0472 30.6177 80.1614C30.0177 80.7786 29.7777 80.8986 28.972 81.0014C27.9949 81.1214 26.692 80.9157 25.9034 80.5043C25.6634 80.3672 25.0634 79.8872 24.5663 79.4414C22.852 77.8472 22.2177 75.1557 22.9549 72.67C23.3491 71.3843 23.5377 71.0243 24.4634 69.79C25.1149 68.9157 26.9834 67.6472 28.0977 67.2872C28.9891 67.03 30.3434 66.9443 29.7434 67.2014ZM27.9434 68.4014C27.532 68.7272 27.2577 68.83 27.2577 68.6586C27.2577 68.5729 28.132 68.0757 28.2863 68.0757C28.3377 68.0757 28.1834 68.2129 27.9434 68.4014Z" fill="white"/>
<path d="M91.8509 66.7897C88.6452 67.3554 85.5595 69.1211 83.2795 71.6583L82.2166 72.8583L81.9938 72.4297C81.8566 72.1897 81.7366 72.0011 81.7024 72.0011C81.6681 72.0011 81.1195 72.344 80.5024 72.7725C79.8681 73.2011 79.1652 73.544 78.9424 73.544C78.7195 73.544 78.4624 73.6811 78.3595 73.8354C78.2052 74.1268 78.1709 74.1268 77.9652 73.8525C77.8452 73.6811 77.5195 73.5097 77.2281 73.4411C76.7309 73.3554 76.6966 73.3897 76.3881 74.264C75.5824 76.5783 73.9709 78.6354 72.2224 79.5954C70.5252 80.5211 67.5081 80.6068 65.8795 79.8011C65.1938 79.4583 65.0566 79.2525 65.0566 78.6011C65.0566 78.2068 64.9366 78.0354 64.5595 77.8468C64.0795 77.624 64.0281 77.6411 63.6509 78.0697C62.8624 78.9954 63.3081 80.3668 64.6624 81.1383C66.1538 81.9954 69.3938 82.3725 71.5195 81.9268C72.6338 81.6868 74.6909 81.0868 76.6281 80.4183C77.4338 80.144 78.3766 79.8697 78.7195 79.8183L79.3538 79.6983L79.2509 80.2983C79.0795 81.4297 80.3481 82.0125 81.3252 81.2411C82.0109 80.7097 81.9424 79.8525 81.1538 79.064C80.7081 78.6183 80.6052 78.4297 80.7766 78.3268C81.0852 78.1211 81.3938 78.1383 82.0624 78.3783C82.6795 78.6011 82.9881 79.2525 82.6452 79.5954C82.3538 79.8868 82.4224 80.6583 82.7652 81.0868C82.9709 81.344 83.3309 81.4983 83.8795 81.5497C84.6166 81.6354 84.7195 81.6011 85.1995 81.0868C85.5938 80.6754 85.7138 80.384 85.7138 79.8525C85.7138 78.1897 84.2909 77.0068 82.1481 76.8868C81.5138 76.8525 80.9652 76.8183 80.9138 76.8183C80.8624 76.8011 81.8224 75.824 83.0224 74.6411C84.8052 72.8925 85.4395 72.3783 86.3481 71.9668C87.7881 71.3154 88.4395 71.3668 88.7995 72.1383C89.0224 72.6354 89.1252 72.6868 89.5538 72.6011C89.8281 72.5497 90.1881 72.3954 90.3424 72.2583C90.7366 71.8983 90.7881 71.9154 91.1824 72.584C91.5766 73.2011 91.6452 74.2125 91.3538 74.7783C91.1824 75.104 91.1995 75.1211 91.6452 75.0183C92.5538 74.7954 93.4795 74.0068 93.8395 73.1497C94.1481 72.4297 94.1652 72.224 93.9766 71.3668C93.8052 70.5611 93.8224 70.3725 94.0281 70.2183C94.2338 70.064 94.0966 69.8925 93.3424 69.2583C92.8281 68.8297 92.4166 68.4183 92.4166 68.3325C92.3995 68.1097 94.7138 68.3668 95.4509 68.6754C97.2338 69.4125 98.3995 70.8011 98.3995 72.224C98.3995 72.704 98.2795 73.2697 98.1081 73.5611C97.8338 74.0411 97.8338 74.0583 98.1424 74.3154C98.5538 74.6068 99.0852 74.6411 99.6681 74.384C100.645 73.9383 100.851 75.1211 100.08 76.7154C99.3595 78.1554 98.3652 78.8583 97.0109 78.8925C96.0338 78.9268 95.8452 78.8068 96.2395 78.4297C96.9938 77.6754 96.9938 76.7154 96.2224 76.1154C95.3481 75.4297 94.0452 75.7554 93.4452 76.8011C92.7252 78.0697 93.1366 79.6983 94.4052 80.6754C95.0224 81.1554 95.1424 81.1725 96.7709 81.1725C98.7938 81.1725 99.6338 80.8468 100.954 79.5611C102.034 78.5154 102.531 77.2125 102.651 75.2583C102.788 72.584 102.137 70.7325 100.508 69.1725C99.1709 67.8868 97.9538 67.2183 96.2738 66.8411C94.6452 66.464 93.6509 66.464 91.8509 66.7897ZM96.9424 67.3211C99.0681 67.9897 100.885 69.7383 101.88 72.0697C102.342 73.1668 102.377 73.3897 102.308 74.8125C102.205 76.8525 101.708 78.1211 100.594 79.304C99.5995 80.3668 98.3995 80.9325 96.9424 81.0354C95.6909 81.1211 94.5938 80.6411 93.9766 79.7154C93.6338 79.2183 93.5824 78.9611 93.6338 78.104C93.7024 77.264 93.7881 77.024 94.1824 76.6811C95.1766 75.824 96.7709 76.5954 96.3595 77.7097C96.2224 78.0354 96.0509 78.1725 95.7424 78.1725C95.3824 78.1725 95.3138 78.0868 95.3138 77.6754C95.3138 77.024 94.8852 76.8697 94.5252 77.384C94.3538 77.6583 94.2852 78.0868 94.3195 78.6183C94.3709 79.3211 94.4566 79.4925 95.0224 79.9383C95.5709 80.4011 95.7938 80.4697 96.7366 80.4697C99.3252 80.4868 101.348 78.2925 101.708 75.0697C101.862 73.7325 101.845 73.4754 101.571 72.8583C101.16 71.9668 100.285 71.2811 100.285 71.864C100.285 71.984 100.56 72.3097 100.885 72.5668C101.348 72.944 101.485 73.1668 101.485 73.5954C101.485 74.4697 101.177 74.6411 100.525 74.144C100.2 73.8868 99.9252 73.784 99.8566 73.8868C99.7538 74.0754 98.3995 74.1268 98.3995 73.9554C98.3995 73.904 98.5538 73.664 98.7424 73.424C99.2052 72.8411 99.1709 71.9497 98.6738 70.8868C98.1252 69.7383 97.5595 69.1897 96.2909 68.5383C95.3309 68.0411 95.0566 67.9897 93.3252 67.9211C91.2681 67.8525 89.4852 68.1783 89.4852 68.6411C89.4852 69.0183 89.9481 69.0868 90.5824 68.8297C90.9252 68.6925 91.3538 68.5725 91.5424 68.5725C91.8852 68.5725 93.4281 69.8411 93.4281 70.1325C93.4281 70.2183 93.1538 70.2868 92.8281 70.2868C92.0909 70.2868 92.0395 70.5611 92.7252 70.7154C93.3595 70.8525 93.5995 71.1268 93.7024 71.864C93.8224 72.584 93.4109 73.5611 92.8109 74.0411C92.1938 74.5211 92.0395 74.4868 92.1595 73.904C92.2795 73.2868 91.7481 72.2068 91.0109 71.5725C90.4966 71.144 90.4452 71.1268 90.3252 71.4354C90.2566 71.6068 90.0509 71.8983 89.8452 72.0697C89.5538 72.344 89.4852 72.344 89.4852 72.1383C89.4852 72.0011 89.3138 71.6583 89.1081 71.4011C88.5424 70.6811 87.4109 70.8354 85.5766 71.8983C84.3938 72.584 83.8109 73.1154 82.0281 75.0354C79.9538 77.2811 79.5424 77.8297 80.1938 77.5725C80.8795 77.2811 82.1995 77.1611 82.9366 77.3325C84.6166 77.7097 85.4909 78.6868 85.3024 79.9383C85.1481 80.864 84.7709 81.2583 84.0681 81.2583C83.4681 81.2583 83.1424 80.8983 83.1424 80.2468C83.1424 79.8011 83.8795 79.5783 84.2738 79.904C84.6852 80.2468 84.8909 79.784 84.6166 79.1325C84.2566 78.224 83.4509 77.8297 82.0281 77.8297C81.3081 77.8297 80.5195 77.9325 80.1595 78.0868C79.4909 78.3783 79.3366 78.6868 79.8852 78.6868C80.0566 78.6868 80.4852 78.9268 80.8281 79.2183C81.3252 79.664 81.4281 79.8697 81.3938 80.2811C81.3595 80.5725 81.1881 80.8983 80.9824 81.0354C80.6566 81.2411 80.5709 81.224 80.2109 80.9325C79.8166 80.6068 79.8166 80.5897 80.1252 80.264C80.2966 80.0583 80.5366 79.9554 80.7081 80.0068C80.8795 80.0754 80.9309 80.0411 80.8452 79.9211C80.7766 79.8183 80.4166 79.6468 80.0395 79.544C79.1481 79.304 77.6566 79.5611 75.7709 80.3154C72.9252 81.464 71.3995 81.8068 69.3424 81.8411C66.3081 81.8583 64.2166 81.0868 63.6338 79.7154C63.4281 79.2011 63.4281 79.064 63.6338 78.6868C63.9081 78.1897 64.4224 78.1211 64.6966 78.5668C64.8509 78.824 64.8166 78.944 64.4909 79.2011C64.1481 79.4925 64.1309 79.5783 64.3195 79.8868C64.4395 80.0925 65.0052 80.504 65.5709 80.7954C66.5824 81.3097 66.6509 81.3268 68.9995 81.3268C71.6052 81.3268 72.4624 81.1211 75.0852 79.9211C75.7024 79.6468 76.4566 79.3554 76.7652 79.2868C77.0566 79.2354 77.3138 79.0983 77.3138 79.0125C77.3138 78.7725 76.5252 78.9954 74.8624 79.7325C74.0395 80.1097 73.3195 80.4011 73.2681 80.4011C72.7024 80.4011 75.5995 78.8925 77.0566 78.4468C78.1366 78.104 79.9195 77.1097 80.0224 76.8011C80.0909 76.6125 80.0224 76.6125 79.6966 76.8354C78.7881 77.4868 76.6281 78.3783 76.6281 78.1211C76.6281 78.0697 77.2281 77.7097 77.9652 77.3154C79.3195 76.5954 79.7481 76.2868 79.4395 76.2868C79.3538 76.2868 78.8566 76.5611 78.3424 76.8868C77.3309 77.5383 76.7481 77.6925 77.5709 77.0925C78.2224 76.6125 79.8681 74.8811 79.8852 74.6754C79.8852 74.5383 78.8052 75.4983 76.9709 77.2468C76.1481 78.0354 76.0109 77.984 76.6281 77.1097C76.9195 76.7325 77.1081 76.3554 77.0395 76.304C76.9881 76.2525 76.8681 76.3554 76.7481 76.544C76.3709 77.2297 74.6395 78.9097 73.9709 79.2354L73.2852 79.5611L74.0738 78.824C75.3595 77.624 76.7995 75.5668 76.7995 74.9325C76.7995 74.8468 76.8681 74.5725 76.9709 74.3154C77.1252 73.8868 77.1595 73.8868 77.6395 74.144C77.9309 74.2811 78.2224 74.5211 78.3081 74.6754C78.4452 74.9154 78.4795 74.8983 78.5652 74.5211C78.6509 74.1954 78.8738 74.0411 79.5766 73.8011C80.0738 73.6468 80.6909 73.3211 80.9652 73.064L81.4281 72.6183V73.064C81.4281 73.3211 81.1366 73.8697 80.7424 74.3668C79.9538 75.3611 79.8681 75.7725 80.4681 75.7725C80.7595 75.7725 81.1538 75.4297 81.9081 74.504C84.2738 71.624 87.0681 70.0125 88.7995 70.544C89.2109 70.664 89.2109 70.664 88.8852 70.3897C88.6966 70.2525 88.6109 70.1154 88.6795 70.1154C89.0395 70.1154 90.4795 70.544 90.8566 70.784C91.2852 71.0411 91.2852 71.0411 90.9766 70.6811C90.5481 70.184 89.3309 69.8754 88.2681 70.0125C86.1595 70.304 84.1366 71.5897 82.1824 73.8868C80.8624 75.464 80.5024 75.6011 81.6509 74.0925C82.8166 72.584 84.6509 71.0583 86.0909 70.3725C86.7766 70.0468 87.2224 69.7897 87.0681 69.7725C86.9309 69.7725 86.4166 69.9611 85.9538 70.2011C85.4909 70.4411 85.0795 70.6297 85.0452 70.6297C84.8052 70.6297 85.6624 69.944 86.1081 69.7554C86.4166 69.6354 86.9481 69.3097 87.3081 69.0354L87.9424 68.5383L87.9595 68.9497V69.344L88.1481 68.9154L88.3366 68.4868L88.4566 68.9154L88.5938 69.344L88.6109 68.8811C88.6624 67.5783 93.2566 66.944 95.6738 67.8868C96.1366 68.0754 96.6166 68.1783 96.7538 68.1268C96.9081 68.0754 97.2681 68.1954 97.5766 68.4011C98.0909 68.7611 98.0909 68.744 97.4738 68.1783C97.0109 67.7497 96.5309 67.4925 95.8966 67.3554C95.3995 67.2354 95.0224 67.0983 95.0566 67.0297C95.1595 66.8754 95.8281 66.9783 96.9424 67.3211Z" fill="white"/>
<path d="M98.4858 68.6412C98.863 68.9669 99.1887 69.2069 99.2401 69.1726C99.3258 69.0869 98.6058 68.4526 98.143 68.2126C97.9544 68.1269 98.1087 68.3154 98.4858 68.6412Z" fill="white"/>
<path d="M97.028 68.5383C98.0394 69.2411 98.7766 70.064 99.2737 71.0754C99.8566 72.2411 100.148 72.464 99.7023 71.4011C99.2909 70.424 98.3137 69.1897 97.5423 68.6754C97.1652 68.4354 96.8052 68.2297 96.7366 68.2468C96.6509 68.2468 96.788 68.384 97.028 68.5383Z" fill="white"/>
<path d="M89.0576 68.8633C89.1261 69.3947 89.109 69.429 88.5776 69.4461C88.2861 69.4461 87.8747 69.5147 87.6861 69.6004C87.4633 69.7033 87.7204 69.7204 88.3718 69.6519C88.9376 69.6004 89.709 69.6519 90.0861 69.7547C90.9776 69.9947 91.9718 70.8176 92.4176 71.6919C92.6061 72.069 92.8118 72.3261 92.8633 72.2747C93.0861 72.0519 92.469 71.0919 91.6461 70.3376L90.7718 69.549L91.5433 69.669C92.1604 69.7547 92.2461 69.7376 92.0061 69.6004C91.8347 69.4804 91.149 69.3947 90.4976 69.4119H89.3147L89.1433 68.8633L88.9718 68.3147L89.0576 68.8633Z" fill="white"/>
<path d="M61.9876 73.7319C61.7305 73.8862 61.7133 73.9547 61.9019 74.0747C62.0733 74.1776 62.1419 74.8462 62.1762 76.8176C62.2105 79.3547 62.2276 79.4405 62.5876 79.4919C62.9476 79.5433 62.9648 79.509 62.8791 78.0005C62.8276 77.0576 62.8448 76.4062 62.9476 76.3547C63.0505 76.2862 63.0848 75.9433 63.0333 75.5662C62.9819 75.189 63.0162 74.6576 63.1019 74.3662C63.1876 74.0576 63.2391 73.8005 63.2048 73.7833C63.0333 73.6119 62.2448 73.5776 61.9876 73.7319Z" fill="white"/>
<path d="M59.5537 74.0743C59.5023 74.16 59.588 74.2286 59.7251 74.2286C59.8623 74.2286 60.1708 74.4857 60.3937 74.7771C60.9766 75.5657 61.0794 75.7714 60.8737 75.7714C60.788 75.7714 60.548 75.4971 60.3423 75.1543C60.1366 74.8286 59.9137 74.5886 59.8623 74.6571C59.8108 74.7086 59.588 74.5714 59.3651 74.3657C58.5423 73.5943 59.0223 74.3486 59.9137 75.24C60.5308 75.8571 60.8908 76.3543 60.9594 76.7314C61.0108 77.04 61.2337 77.4514 61.4394 77.64L61.8337 78L61.6966 77.0229C61.6108 76.4743 61.4566 75.6514 61.3366 75.1886C61.1308 74.4171 61.0623 74.3314 60.3766 74.1429C59.9651 74.0057 59.6223 73.9886 59.5537 74.0743Z" fill="white"/>
<path d="M64.5936 74.1269C64.0108 74.2811 63.9594 74.3326 63.7194 75.3269C63.5651 75.9097 63.3936 76.7497 63.3251 77.2297L63.2051 78.0869L63.5479 77.6583C64.0279 77.024 64.2679 76.3726 64.1651 75.9611C64.0451 75.4983 64.7651 74.4183 65.1765 74.4526C65.5022 74.4697 65.6222 74.744 65.2965 74.744C65.0736 74.744 64.7479 75.0697 64.4736 75.584C64.0965 76.2697 64.3536 76.1154 65.2279 75.1211C65.6908 74.5897 65.9479 74.2126 65.7936 74.2811C65.6222 74.3326 65.4336 74.2983 65.3651 74.1783C65.2622 74.024 65.0565 74.0069 64.5936 74.1269Z" fill="white"/>
<path d="M58.2859 74.9166C58.1487 75.0023 57.8916 75.0366 57.7373 74.9851C57.1887 74.8137 57.4116 75.1737 57.9773 75.3966C58.2687 75.4994 58.4744 75.6537 58.4059 75.7051C58.2344 75.8937 58.6116 76.4594 58.9202 76.4594C59.0744 76.4594 59.1602 76.5109 59.0916 76.5623C59.0402 76.6137 59.263 76.9051 59.5887 77.1794C60.1373 77.6594 60.223 77.6937 60.463 77.4537C60.703 77.2137 60.6516 77.0937 60.0002 76.2709C59.0916 75.088 58.6116 74.7109 58.2859 74.9166Z" fill="white"/>
<path d="M65.5896 75.6363C64.3725 76.8877 64.1839 77.2477 64.5953 77.4706C64.8525 77.6077 65.0753 77.5049 65.761 76.8877C66.2239 76.4592 66.6525 76.1163 66.721 76.1163C66.7896 76.1163 66.8068 76.0135 66.7553 75.8763C66.7039 75.7392 66.8068 75.5506 67.0125 75.4477C67.441 75.2077 67.5953 75.2077 67.4582 75.4306C67.4068 75.5335 67.4753 75.5506 67.6296 75.4992C67.8353 75.4135 67.8525 75.3277 67.7153 75.1563C67.5953 75.0363 67.4068 74.9849 67.2696 75.0363C67.1325 75.0877 66.9096 75.0363 66.7553 74.9163C66.5496 74.7277 66.361 74.8306 65.5896 75.6363Z" fill="white"/>
<path d="M61.8509 75.5159C61.8852 75.7559 61.9538 75.9445 61.9881 75.9445C62.0224 75.9445 62.0566 75.7559 62.0566 75.5159C62.0566 75.2759 61.9881 75.0874 61.9024 75.0874C61.8338 75.0874 61.7995 75.2759 61.8509 75.5159Z" fill="white"/>
<path d="M57.0346 75.4979C56.9661 75.6694 57.1032 75.8065 57.4632 75.9265C57.9775 76.1151 57.9775 76.0979 57.7375 75.7379C57.4118 75.2579 57.1546 75.1722 57.0346 75.4979Z" fill="white"/>
<path d="M67.3719 75.8749L66.9434 76.132L67.3719 76.012C67.6119 75.9606 67.8691 75.8406 67.9719 75.7549C68.2291 75.5149 67.8519 75.5834 67.3719 75.8749Z" fill="white"/>
<path d="M56.4514 76.4052C55.9371 76.7481 55.9543 76.9709 56.4857 76.9709C56.7428 76.9709 56.9143 76.8681 56.9143 76.7309C56.9143 76.5081 56.9828 76.5081 57.3771 76.7138C57.6171 76.8338 57.8743 77.0052 57.9257 77.0909C57.9771 77.1595 58.32 77.3652 58.68 77.5367C59.1086 77.7252 59.3143 77.9309 59.2628 78.0681C59.2114 78.1881 59.2628 78.3938 59.3657 78.4967C59.7257 78.8567 59.04 78.7024 58.2686 78.2567C57.8571 78.0167 57.36 77.8281 57.1714 77.8452C56.8971 77.8452 56.9486 77.8967 57.3428 78.0852L57.8571 78.3424L57.2571 78.2567L56.6571 78.1709L57.1714 78.4281C57.4628 78.5652 57.8228 78.6681 57.9943 78.6852C58.1657 78.6852 58.5428 78.8052 58.8171 78.9595C59.1086 79.0967 59.3657 79.1995 59.4 79.1652C59.4343 79.1309 59.52 78.8395 59.6057 78.5138C59.76 77.9481 59.7257 77.8795 59.16 77.4167C58.6971 77.0567 56.9143 76.0624 56.8457 76.1309C56.8286 76.1309 56.6571 76.2509 56.4514 76.4052Z" fill="white"/>
<path d="M67.5259 76.423C66.4973 76.903 65.3145 77.863 65.3145 78.2059C65.3145 78.4288 65.4173 78.5145 65.623 78.4802C65.7945 78.4459 65.8973 78.2916 65.863 78.1202C65.8287 77.9659 65.9145 77.8116 66.0345 77.7945C66.1545 77.7945 66.343 77.7602 66.4287 77.743C66.5316 77.7088 66.7373 77.6916 66.9087 77.6745C67.0973 77.6573 67.2002 77.5202 67.2002 77.2288C67.2002 76.6802 67.5773 76.5259 68.3316 76.7659C68.6573 76.8516 68.9145 76.8859 68.9145 76.8173C68.9145 76.7145 68.263 76.0973 68.1773 76.1316C68.1602 76.1316 67.8687 76.2688 67.5259 76.423Z" fill="white"/>
<path d="M56.4853 77.1611C55.971 77.2811 56.0224 77.2983 57.051 77.4183C57.3596 77.4526 57.8396 77.6069 58.1139 77.744C58.7653 78.0697 58.9882 78.0697 58.491 77.744C57.8053 77.264 57.0167 77.024 56.4853 77.1611Z" fill="white"/>
<path d="M67.886 77.1446C67.4918 77.3846 67.7318 77.4532 68.5718 77.316C69.0003 77.2475 69.1718 77.1789 68.966 77.1617C68.7603 77.1617 68.5032 77.1103 68.366 77.0589C68.246 77.0075 68.0232 77.0417 67.886 77.1446Z" fill="white"/>
<path d="M55.8867 77.6598C55.8867 77.7455 56.0581 77.8312 56.281 77.8312C56.5896 77.8312 56.6067 77.797 56.401 77.6598C56.0753 77.437 55.8867 77.437 55.8867 77.6598Z" fill="white"/>
<path d="M66.7035 78.3449C66.1892 78.6192 65.7092 78.8078 65.6235 78.7563C65.5549 78.7049 65.4863 78.7906 65.4863 78.9278C65.4863 79.2535 65.5035 79.2535 66.292 78.962C66.652 78.8249 67.2863 78.6192 67.6978 78.5163C68.092 78.4135 68.4006 78.2763 68.3492 78.2249C68.2806 78.1735 68.0063 78.2078 67.732 78.3106C67.4406 78.4135 67.2006 78.4306 67.2006 78.3449C67.2006 78.2763 67.4063 78.122 67.6806 78.0363C67.9378 77.9335 68.0235 77.8478 67.8863 77.8478C67.7492 77.8478 67.2178 78.0706 66.7035 78.3449Z" fill="white"/>
<path d="M56.4004 79.3383C56.4004 79.424 56.6575 79.4754 56.9661 79.4754C57.2575 79.4583 57.7547 79.5268 58.029 79.5954L58.5432 79.7154L58.1147 79.4583C57.6518 79.2011 56.4004 79.0983 56.4004 79.3383Z" fill="white"/>
<path d="M67.2523 79.3378C67.1323 79.4063 67.3894 79.4578 67.8008 79.4578C68.2294 79.4406 68.6237 79.3892 68.6751 79.3206C68.8465 79.1492 67.5094 79.1663 67.2523 79.3378Z" fill="white"/>
<path d="M61.6458 80.317C61.3029 80.8484 61.3029 80.8656 61.7315 80.9684C62.0058 81.037 62.04 81.0199 61.8686 80.8142C61.7486 80.677 61.7486 80.5742 61.8515 80.5742C61.9372 80.5742 62.0572 80.4199 62.1086 80.2313C62.2286 79.7513 61.9886 79.8027 61.6458 80.317Z" fill="white"/>
<path d="M62.8631 80.2297C62.9145 80.4183 63.0859 80.5726 63.2402 80.5897C63.4459 80.5897 63.4288 80.624 63.1717 80.744C62.8631 80.8811 62.8802 80.8983 63.2917 80.8983C63.9602 80.9154 64.0802 81.2583 63.4117 81.2583C62.9488 81.2583 62.8802 81.3097 62.9659 81.6354C63.0174 81.8583 63.1031 82.2183 63.1545 82.4583C63.2231 82.6983 63.2231 82.784 63.1545 82.664C63.0174 82.3726 62.7259 82.4069 62.8459 82.6983C62.8974 82.8354 62.8459 83.1097 62.7431 83.3154C62.4859 83.7783 62.1945 83.5383 62.1945 82.904C62.1945 82.4754 62.0059 82.304 61.8345 82.5783C61.8002 82.664 61.8002 82.5954 61.8517 82.4583C61.9031 82.3211 61.9717 81.9954 62.0231 81.7211C62.0745 81.344 62.0402 81.2583 61.7488 81.2583C61.5602 81.2583 61.3031 81.224 61.1659 81.1726C61.0459 81.1383 60.7545 81.2583 60.5145 81.4469L60.0859 81.8069L60.9088 81.704C61.7659 81.6011 61.8345 81.6697 61.5259 82.3554C61.3545 82.7326 61.3888 82.8697 61.7831 83.4011C62.3488 84.1383 62.5888 84.1554 63.1717 83.4526C63.6002 82.9383 63.6345 82.6811 63.3259 81.8926C63.2574 81.6869 63.3774 81.6526 64.0117 81.7211C64.8174 81.824 65.1259 81.5497 64.4745 81.344C64.2859 81.2926 63.8574 80.9326 63.5317 80.5726C62.8288 79.8011 62.7431 79.7497 62.8631 80.2297Z" fill="white"/>
</g>
</g>
<defs>
<filter id="filter0_d_554_954" x="-2.45703" y="14.3995" width="124.914" height="77.5676" filterUnits="userSpaceOnUse" color-interpolation-filters="sRGB">
<feFlood flood-opacity="0" result="BackgroundImageFix"/>
<feColorMatrix in="SourceAlpha" type="matrix" values="0 0 0 0 0 0 0 0 0 0 0 0 0 0 0 0 0 0 127 0" result="hardAlpha"/>
<feOffset dy="4"/>
<feGaussianBlur stdDeviation="2"/>
<feComposite in2="hardAlpha" operator="out"/>
<feColorMatrix type="matrix" values="0 0 0 0 0 0 0 0 0 0 0 0 0 0 0 0 0 0 0.25 0"/>
<feBlend mode="normal" in2="BackgroundImageFix" result="effect1_dropShadow_554_954"/>
<feBlend mode="normal" in="SourceGraphic" in2="effect1_dropShadow_554_954" result="shape"/>
</filter>
<clipPath id="clip0_554_954">
<rect width="120" height="96" fill="white"/>
</clipPath>
</defs>
</svg>
