<svg width="63" height="43" viewBox="0 0 63 43" fill="none" xmlns="http://www.w3.org/2000/svg">
<g filter="url(#filter0_d_251_442)">
<path d="M32.1878 1.28452C32.036 1.46309 31.9735 1.6238 32.0003 1.73094C32.1699 2.26666 32.1967 2.23094 31.7235 2.1863L31.2949 2.13273L31.6521 2.44523C31.9021 2.66844 32.0539 2.73987 32.1878 2.70416C32.3396 2.65952 32.3306 2.65059 32.1253 2.6238C31.8039 2.58809 31.7949 2.42737 32.1074 2.42737C32.3485 2.42737 32.3574 2.36487 32.2056 1.80237C32.1878 1.73094 32.1878 1.69523 32.2056 1.73094C32.2949 1.88273 32.3931 1.79344 32.3931 1.57023C32.3931 1.44523 32.4289 1.30237 32.4824 1.2488C32.6253 1.10594 32.8039 1.52559 32.7949 1.9988C32.786 2.35594 32.8128 2.42737 32.9467 2.42737C33.036 2.42737 33.161 2.44523 33.2324 2.47202C33.2949 2.48987 33.4467 2.42737 33.5717 2.32916L33.7949 2.14166L33.3574 2.19523C32.8842 2.2488 32.911 2.29344 33.0896 1.73094C33.1431 1.54344 32.7414 0.998802 32.5449 0.998802C32.4824 0.998802 32.3217 1.1238 32.1878 1.28452Z" fill="white"/>
<path d="M27.0543 2.29656C26.4382 2.45727 25.5989 2.7162 25.1793 2.85906C24.7596 3.00192 24.2864 3.14477 24.1346 3.18049C23.8489 3.22513 23.84 3.22513 23.84 2.92156C23.84 2.29656 23.1614 2.0287 22.7239 2.47513C22.3935 2.79656 22.4293 3.18049 22.8132 3.56442C22.9828 3.73406 23.0989 3.91263 23.0721 3.95727C22.9918 4.10013 22.5543 4.04656 22.2418 3.85013C22.0007 3.70727 21.956 3.63584 22.0096 3.47513C22.0453 3.36799 22.09 3.1537 22.1168 2.99299C22.2239 2.33227 21.2328 1.9662 20.7507 2.49299C20.3489 2.92156 20.3578 3.47513 20.7685 4.01084C21.1078 4.45727 21.6257 4.68049 22.34 4.69834C22.6703 4.69834 22.9471 4.72513 22.9471 4.75192C22.9471 4.7787 22.4471 5.29656 21.84 5.89477C20.965 6.75192 20.6078 7.04656 20.1525 7.26084C19.3935 7.60906 19.0275 7.5912 18.8489 7.18049C18.7775 7.0287 18.6614 6.89477 18.5989 6.89477C18.4382 6.89477 18.0989 7.07334 18.0185 7.19834C17.9114 7.35906 17.5096 6.89477 17.4471 6.54656C17.4114 6.37692 17.4293 6.11799 17.4828 5.9662C17.5453 5.82334 17.5721 5.68049 17.5543 5.66263C17.4739 5.5912 16.8757 5.85906 16.6525 6.06442C16.1525 6.53763 15.9918 7.10013 16.1882 7.68942C16.3043 8.01977 16.3043 8.05549 16.1525 8.16263C16.0007 8.26977 16.0275 8.30549 16.4739 8.68049C16.7328 8.9037 16.956 9.11799 16.956 9.16263C16.965 9.20727 16.6882 9.2162 16.3489 9.18942C15.2953 9.10013 14.3489 8.51977 13.9739 7.74299C13.7864 7.3412 13.84 6.60906 14.0632 6.35906C14.1971 6.20727 14.1882 6.18942 14.0007 6.05549C13.7685 5.88584 13.456 5.86799 13.206 6.01084C12.7864 6.23406 12.6257 5.56442 12.9382 4.88584C13.3043 4.08227 13.8221 3.68942 14.5543 3.6537C15.09 3.63584 15.1793 3.70727 14.9382 3.97513C14.6703 4.26977 14.6346 4.45727 14.7685 4.79656C14.9114 5.13584 15.1435 5.28763 15.5275 5.28763C15.9739 5.28763 16.2328 5.13584 16.4293 4.76084C16.7953 4.0287 16.5989 3.26084 15.9025 2.7162C15.5364 2.44834 15.4828 2.43049 14.7507 2.43049C14.081 2.43049 13.9025 2.4662 13.4293 2.68942C12.1525 3.28763 11.5185 4.51977 11.6346 6.17156C11.715 7.24299 11.9739 7.86799 12.6525 8.58227C13.3757 9.35906 14.0007 9.72513 14.9739 9.94834C17.331 10.4841 20.456 9.20727 22.0543 7.05549C22.3043 6.7162 22.4114 6.69834 22.4114 6.99299C22.4114 7.2787 22.5632 7.25192 23.1703 6.85013C23.4918 6.62692 23.8578 6.44834 23.9739 6.44834C24.09 6.44834 24.2239 6.37692 24.2775 6.28763C24.3578 6.14477 24.3757 6.14477 24.4828 6.28763C24.5453 6.37692 24.7239 6.47513 24.8757 6.50192C25.1435 6.55549 25.1703 6.53763 25.2685 6.2162C25.4828 5.53763 26.1793 4.36799 26.6257 3.94834C27.5096 3.10906 28.706 2.74299 29.8935 2.94834C30.7507 3.0912 31.3578 3.43049 31.206 3.68049C31.1078 3.8412 31.2596 4.13584 31.4918 4.22513C31.7864 4.33227 32.0364 4.18942 32.1257 3.83227C32.4114 2.75192 31.0989 1.98406 28.9739 1.99299C28.34 1.99299 27.9293 2.05549 27.0543 2.29656ZM30.1168 2.19834C31.2775 2.42156 31.9114 2.81442 32.0185 3.37692C32.1168 3.88584 31.6435 4.26084 31.4293 3.85013C31.3132 3.64477 31.4471 3.41263 31.6703 3.41263C31.9293 3.41263 31.331 2.80549 30.8668 2.60013C30.456 2.42156 30.2596 2.39477 29.1525 2.39477C28.0096 2.39477 27.84 2.41263 27.206 2.63584C26.8221 2.7787 26.2775 3.00192 26.0007 3.14477C25.7239 3.28763 25.34 3.43049 25.1614 3.45727C24.9739 3.49299 24.8221 3.55549 24.8221 3.60013C24.8221 3.72513 25.2328 3.60906 26.1078 3.22513C26.5453 3.0287 26.9203 2.89477 26.9471 2.92156C26.9739 2.94834 26.9739 2.98406 26.956 3.00192C26.831 3.11799 25.5096 3.72513 25.1346 3.83227C24.4114 4.04656 23.0989 4.8412 23.465 4.8412C23.5096 4.8412 23.5989 4.78763 23.6525 4.7162C23.7953 4.54656 24.9828 4.01084 25.1168 4.06442C25.1703 4.08227 25.0543 4.18942 24.8489 4.29656C24.331 4.55549 23.6078 5.01977 23.715 5.01977C23.7596 5.01977 24.0275 4.87692 24.3221 4.70727C24.6078 4.5287 24.8935 4.4037 24.9471 4.42156C25.0007 4.44834 25.1168 4.4037 25.206 4.32334C25.465 4.10013 25.4828 4.2787 25.2328 4.57334C25.1078 4.72513 25.0007 4.9037 25.0096 4.95727C25.0096 5.01977 25.081 4.9662 25.1614 4.8412C25.6078 4.18049 26.8757 3.10906 26.8757 3.39477C26.8757 3.43942 26.7685 3.5287 26.6435 3.5912C26.1435 3.85906 25.2685 5.13584 25.09 5.8412C25.0275 6.08227 24.965 6.26977 24.9382 6.26977C24.7953 6.26977 24.3757 5.97513 24.3757 5.86799C24.3757 5.6537 24.215 5.7162 24.1793 5.93049C24.1614 6.08227 24.0275 6.17156 23.6257 6.31442C23.34 6.41263 23.0275 6.5912 22.9382 6.70727C22.84 6.82334 22.7418 6.89477 22.715 6.86799C22.6078 6.76084 22.7685 6.38584 23.081 5.99299C23.4203 5.56442 23.4828 5.28763 23.2418 5.28763C23.0096 5.28763 22.8221 5.43049 22.8935 5.54656C22.9918 5.69834 22.4025 6.44834 21.6703 7.12692C20.6078 8.10013 19.3578 8.60906 18.3668 8.4662C17.8757 8.39477 17.2239 7.9037 17.0096 7.4662C16.8489 7.12692 16.6882 7.05549 16.7685 7.35906C16.7953 7.47513 17.0364 7.7787 17.3043 8.04656L17.7953 8.51977L17.4025 8.4662C17.09 8.42156 17.0453 8.42156 17.1703 8.50192C17.2685 8.56442 17.715 8.60906 18.2418 8.60013C19.1793 8.60013 20.1078 8.39477 20.4918 8.10906C20.6882 7.95727 20.8043 7.93049 20.8043 8.0287C20.8043 8.13584 20.206 8.50192 20.0453 8.50192C19.965 8.50192 19.8846 8.56442 19.8578 8.63584C19.8221 8.70727 19.7239 8.76977 19.6346 8.76977C19.5453 8.76977 19.465 8.83227 19.465 8.9037C19.465 9.11799 19.2864 9.05549 19.2775 8.83227L19.2596 8.63584L19.2239 8.83227C19.206 8.94834 19.1525 9.03763 19.1078 9.03763C19.0632 9.03763 19.0096 8.94834 18.9918 8.83227C18.956 8.66263 18.956 8.66263 18.9382 8.87692C18.9382 9.01084 18.8846 9.14477 18.8221 9.18049C18.7507 9.22513 18.7418 9.19834 18.7775 9.0912C18.8132 9.00192 18.8132 8.88584 18.7775 8.83227C18.7328 8.76977 18.6882 8.83227 18.6614 8.99299C18.6346 9.16263 18.5364 9.29656 18.3757 9.37692C17.6614 9.7162 16.1257 9.73406 15.2864 9.4037C15.0364 9.30549 14.7596 9.24299 14.6882 9.26977C14.6078 9.30549 14.4828 9.26977 14.3935 9.19834C14.3132 9.12692 14.1793 9.0287 14.1078 8.99299C13.9918 8.92156 13.9918 8.93049 14.0989 9.06442C14.3043 9.32334 14.0632 9.23406 13.7864 8.94834C13.465 8.62692 13.2775 8.5912 13.581 8.91263C13.8043 9.1537 14.3489 9.48406 14.2507 9.31442C14.1525 9.1537 14.3221 9.20727 14.4739 9.37692C14.5453 9.4662 14.84 9.5912 15.1168 9.66263C15.7328 9.80549 15.7953 9.93942 15.206 9.83227C14.5096 9.69834 14.1793 9.56442 13.6168 9.18049C12.9739 8.74299 12.4203 8.0912 12.09 7.36799C11.7507 6.64477 11.7328 5.44834 12.0453 4.5287C12.3846 3.5287 13.331 2.72513 14.3489 2.55549C15.0364 2.44834 15.5007 2.58227 15.9471 3.00192C16.331 3.36799 16.34 3.39477 16.34 3.93942C16.34 4.43942 16.3132 4.5287 16.081 4.76084C15.7864 5.05549 15.4203 5.10013 15.1078 4.87692C14.9025 4.73406 14.8489 4.36799 14.9918 4.14477C15.1168 3.94834 15.4918 4.04656 15.4918 4.2787C15.5007 4.58227 15.6614 4.70727 15.84 4.5287C16.0543 4.31442 16.1078 3.97513 15.9918 3.5912C15.6793 2.5287 13.7953 2.60013 12.9293 3.69834C12.4203 4.35013 12.2328 4.78763 12.1435 5.53763C12.0364 6.5287 12.2418 7.25192 12.6971 7.39477C13.0632 7.51084 12.9918 7.19834 12.59 6.9662C12.2864 6.78763 12.1703 6.43942 12.3132 6.11799L12.4114 5.89477L12.7328 6.13584C12.965 6.31442 13.081 6.35013 13.1525 6.2787C13.206 6.22513 13.4114 6.18049 13.5989 6.18049H13.9471L13.706 6.4662C13.5007 6.70727 13.4739 6.81442 13.5096 7.12692C13.5989 7.97513 14.1703 8.68942 15.09 9.11799C15.5453 9.33227 15.6703 9.35013 16.7864 9.35013C17.7953 9.35013 18.0453 9.32334 18.2953 9.18049C18.581 9.0287 18.59 9.00192 18.4471 8.9037C18.3132 8.80549 18.2239 8.80549 17.9293 8.91263C17.3935 9.10013 17.2953 9.07334 16.8221 8.63584C16.4739 8.32334 16.4114 8.2162 16.5096 8.1537C16.581 8.10906 16.7239 8.10013 16.84 8.14477C16.965 8.19834 17.0721 8.18942 17.0989 8.14477C17.1525 8.06442 16.8043 7.87692 16.6168 7.87692C16.3132 7.87692 16.215 6.95727 16.4739 6.57334C16.6703 6.26977 16.9471 6.00192 17.0543 6.00192C17.0989 6.00192 17.1435 6.17156 17.1435 6.36799C17.1435 6.78763 17.3846 7.24299 17.7418 7.50192L17.9828 7.67156L18.1703 7.39477C18.3846 7.08227 18.5096 7.04656 18.5632 7.30549C18.6703 7.88584 19.2864 7.94834 20.2685 7.45727C20.8221 7.18049 21.1257 6.93049 22.0453 6.00192C23.0632 4.9662 23.4828 4.49299 23.4828 4.35906C23.4828 4.33227 23.3757 4.35013 23.2418 4.4037C23.0989 4.45727 22.7328 4.51084 22.4114 4.51977C21.3221 4.53763 20.5275 3.89477 20.6793 3.0912C20.7596 2.68049 21.0007 2.43049 21.331 2.43049C21.6525 2.43049 21.8043 2.60906 21.7685 2.93942C21.7507 3.12692 21.6882 3.19834 21.5275 3.2162C21.4114 3.23406 21.2775 3.20727 21.2239 3.1537C21.0632 2.99299 20.9828 3.03763 20.9828 3.2787C20.9828 3.60013 21.2418 3.94834 21.581 4.0912C21.965 4.26084 22.9382 4.25192 23.34 4.08227C23.7328 3.91263 23.7507 3.80549 23.3935 3.72513C23.09 3.66263 22.6793 3.2162 22.6793 2.95727C22.6793 2.86799 22.7596 2.70727 22.8578 2.60906C23.09 2.37692 23.4382 2.49299 23.4382 2.79656C23.4382 2.9662 23.3757 3.01977 23.1703 3.05549C22.9203 3.10013 22.9114 3.11799 23.081 3.20727C23.6435 3.50192 24.34 3.41263 25.9203 2.81442C27.7775 2.11799 28.8578 1.95727 30.1168 2.19834Z" fill="white"/>
<path d="M24.6253 4.68785C24.3396 4.85749 23.4824 5.75927 23.4824 5.88427C23.4824 5.91106 23.7324 5.71463 24.0271 5.44677C24.3306 5.18785 24.6789 4.88427 24.8128 4.77713C25.1342 4.50927 25.0181 4.44677 24.6253 4.68785Z" fill="white"/>
<path d="M21.9204 6.48354C21.1793 7.25139 20.9115 7.46568 20.34 7.74246C19.7418 8.02818 19.59 8.07282 19.1972 8.03711C18.8311 8.00139 18.7686 8.01032 18.849 8.10854C18.9025 8.17996 18.9204 8.23354 18.8936 8.23354C18.6972 8.23354 17.9561 8.00139 17.7686 7.88532C17.5633 7.75139 17.5543 7.76032 17.6615 7.89425C17.7329 7.97461 17.9561 8.11746 18.1793 8.19782C19.2061 8.59068 20.8222 7.91211 22.0365 6.58175C22.4561 6.12639 22.9115 5.54604 22.84 5.56389C22.8222 5.56389 22.4115 5.98354 21.9204 6.48354Z" fill="white"/>
<path d="M13.081 7.35854C13.2149 7.79604 13.5899 8.32282 14.081 8.76032C14.3578 9.01032 14.6346 9.21568 14.6792 9.20675C14.7328 9.20675 14.6792 9.13532 14.5542 9.05496C14.1435 8.78711 13.5721 8.09961 13.3488 7.62639C13.1345 7.15318 12.9738 7.00139 13.081 7.35854Z" fill="white"/>
<path d="M34.6705 2.11682C33.5455 2.37574 32.9473 2.87574 32.9473 3.56324C32.9473 4.09003 33.3758 4.41146 33.7419 4.15253C33.8937 4.04539 33.9294 3.96503 33.8848 3.7686C33.8312 3.53646 33.8669 3.48289 34.2062 3.2686C35.0098 2.7686 36.4919 2.77753 37.5366 3.28646C38.3937 3.7061 39.1348 4.59003 39.6973 5.86682C39.9562 6.44717 39.9919 6.49182 40.233 6.46503C40.3758 6.44717 40.5455 6.36682 40.608 6.28646C40.7151 6.1436 40.733 6.1436 40.8133 6.28646C40.8669 6.37574 41.0008 6.44717 41.1258 6.44717C41.4116 6.44717 41.6348 6.56324 42.1258 6.9561C42.3401 7.13467 42.5187 7.25967 42.5366 7.24182C42.5455 7.22396 42.6258 7.11682 42.6973 7.00074L42.8312 6.80432L43.2687 7.31324C44.0544 8.24182 44.5901 8.6436 45.8044 9.24182C47.1973 9.92039 48.7776 10.2329 49.8669 10.0275C50.5455 9.90253 51.7151 9.3311 52.2419 8.86682C53.0455 8.16146 53.5276 6.8936 53.4651 5.65253C53.4026 4.6436 53.1437 3.9561 52.5812 3.35789C51.9383 2.68824 51.3491 2.42932 50.4473 2.42932C49.9562 2.42932 49.6169 2.47396 49.4116 2.57217C48.7508 2.88467 48.3133 3.77753 48.4919 4.42932C48.6616 5.04539 49.4205 5.43824 49.9919 5.2061C50.2241 5.10789 50.4473 4.79539 50.4473 4.56324C50.4473 4.35789 50.1526 3.86682 50.0187 3.8311C49.9026 3.80432 49.9294 3.7686 50.1169 3.69717C50.5008 3.53646 51.1973 3.72396 51.6169 4.09896C52.0098 4.4561 52.3491 5.24182 52.3044 5.72396C52.2776 6.07217 52.2598 6.07217 51.6437 5.94717C51.4473 5.91146 51.2866 5.93824 51.1258 6.04539L50.8937 6.19717L51.0723 6.44717C51.2598 6.71503 51.3044 7.2686 51.1705 7.62574C51.1258 7.74182 50.9116 8.03646 50.6883 8.27753C50.1794 8.84896 49.358 9.21503 48.5901 9.21503L48.0812 9.2061L48.5901 8.72396C49.0008 8.34003 49.0812 8.22396 48.9741 8.17039C48.858 8.10789 48.858 8.0186 48.9473 7.5811C49.0455 7.13467 49.0366 7.02753 48.8758 6.66146C48.6794 6.18824 48.2241 5.77753 47.7866 5.68824C47.5008 5.62574 47.4919 5.63467 47.5812 5.80432C47.733 6.09003 47.6973 6.6436 47.5008 6.9561C47.2955 7.29539 47.2062 7.31324 46.9473 7.07217C46.6883 6.84003 46.3401 6.8311 46.3401 7.06324C46.3401 7.27753 46.0187 7.5186 45.733 7.5186C45.608 7.5186 45.2508 7.3936 44.9205 7.23289C44.4562 7.00967 44.0901 6.7061 43.233 5.84896C42.6258 5.24182 42.1437 4.75074 42.1616 4.75074C42.1794 4.75074 42.4562 4.73289 42.7866 4.7061C43.9919 4.63467 44.7241 3.98289 44.6169 3.06324C44.5633 2.54539 44.2508 2.25074 43.7598 2.25074C43.2866 2.25074 42.9473 2.52753 42.9473 2.92039C42.9473 3.09003 42.9919 3.25074 43.0366 3.27753C43.3401 3.46503 42.8223 4.03646 42.3491 4.03646C41.8937 4.03646 41.8758 3.94717 42.2419 3.59896C42.5187 3.3311 42.5901 3.19717 42.5901 2.93824C42.5901 2.50967 42.1973 2.2061 41.7419 2.28646C41.3937 2.35789 41.2508 2.55432 41.2508 2.9561C41.2508 3.21503 41.233 3.22396 40.9651 3.17932C40.8044 3.1436 40.2687 2.98289 39.7776 2.80432C38.1883 2.25074 37.358 2.06324 36.2508 2.02753C35.5544 2.00074 35.0455 2.02753 34.6705 2.11682ZM37.9026 2.37574C38.3491 2.49182 39.0455 2.74182 39.4562 2.91146C40.3312 3.28646 41.2419 3.44717 41.7241 3.31324C42.0901 3.21503 42.1526 3.09896 41.8758 3.02753C41.6437 2.96503 41.5544 2.73289 41.6973 2.56324C41.9383 2.27753 42.4116 2.54539 42.4116 2.96503C42.4116 3.25967 42.0276 3.67039 41.6794 3.74182C41.0544 3.86682 41.7598 4.21503 42.6348 4.21503C43.608 4.21503 44.2151 3.77753 44.0723 3.18824C44.0187 2.96503 44.0008 2.9561 43.8937 3.09896C43.6437 3.44717 43.1883 3.06324 43.3758 2.66146C43.4562 2.47396 43.5455 2.42932 43.7955 2.42932C44.0544 2.42932 44.1437 2.48289 44.2866 2.71503C44.6616 3.32217 44.4026 4.00074 43.6794 4.32217C43.1883 4.53646 42.0544 4.5811 41.8312 4.3936C41.7508 4.3311 41.6705 4.29539 41.6526 4.32217C41.4919 4.48289 43.8133 6.91146 44.4562 7.25967C44.6705 7.37574 44.9473 7.52753 45.0812 7.59896C45.2062 7.67039 45.5187 7.75074 45.7598 7.7686C46.1258 7.79539 46.233 7.7686 46.3669 7.62574C46.4562 7.52753 46.5455 7.36682 46.5633 7.27753C46.5812 7.18824 46.5991 7.09896 46.5991 7.0811C46.6169 7.00074 46.9919 7.3936 47.0455 7.55432C47.108 7.7061 47.1348 7.69717 47.4294 7.43824C47.8223 7.09896 48.0633 6.59896 48.0187 6.25967C47.9919 6.11682 47.9919 6.00074 48.0098 6.00074C48.1616 6.00074 48.4294 6.24182 48.6169 6.57217C48.9919 7.2061 48.8848 7.69717 48.3401 7.92932C47.9473 8.09896 47.9473 8.23289 48.3491 8.17039C48.5187 8.1436 48.6616 8.15253 48.6616 8.19717C48.6616 8.24182 48.4741 8.4561 48.2508 8.67039C47.8937 9.00967 47.8133 9.04539 47.5633 8.99182C46.8312 8.84003 46.608 8.8311 46.608 8.97396C46.608 9.18824 47.1169 9.32217 48.1437 9.36682C49.2776 9.42039 49.7419 9.3311 50.4026 8.91146C50.9562 8.54539 51.5187 7.7061 51.5812 7.12574C51.6169 6.81324 51.5901 6.7061 51.3848 6.46503L51.1437 6.17932H51.5455C51.7776 6.17932 51.9651 6.22396 51.983 6.28646C52.0098 6.35789 52.1348 6.30432 52.3401 6.1436C52.6616 5.90253 52.6705 5.90253 52.7598 6.0811C52.9383 6.41146 52.8669 6.63467 52.483 6.99182C52.0812 7.35789 52.0723 7.54539 52.4741 7.3311C52.858 7.12574 53.0723 6.52753 53.0008 5.8311C52.9116 4.96503 52.6348 4.19717 52.233 3.75074C51.4026 2.79539 50.0098 2.52753 49.3491 3.18824C49.0008 3.54539 48.983 4.27753 49.3223 4.50074C49.5098 4.63467 49.6348 4.57217 49.6616 4.32217C49.6973 4.00967 50.0276 3.93824 50.1794 4.21503C50.3223 4.48289 50.1348 4.91146 49.8491 4.98289C49.5276 5.06324 49.108 4.91146 48.9026 4.6436C48.6616 4.32217 48.6794 3.59003 48.9294 3.23289C49.2955 2.71503 49.6169 2.56324 50.358 2.56324C51.1883 2.56324 51.8044 2.84003 52.4294 3.47396C53.2419 4.29539 53.5187 5.74182 53.1258 6.99182C52.7866 8.07217 52.1973 8.75967 50.983 9.50074C50.6973 9.67039 49.8312 9.87574 49.5991 9.82217C49.4919 9.79539 49.6258 9.74182 49.9294 9.67039C50.2151 9.60789 50.4562 9.50074 50.483 9.42932C50.5098 9.35789 50.6169 9.30432 50.7151 9.32217C50.8937 9.34896 51.608 8.9561 51.608 8.8311C51.608 8.78646 51.4919 8.84003 51.3401 8.94717C51.1973 9.05432 51.0276 9.10789 50.983 9.0811C50.9294 9.04539 50.8223 9.07217 50.7508 9.13467C50.6794 9.18824 50.5991 9.22396 50.5723 9.19717C50.5455 9.17039 50.6973 9.02753 50.8937 8.87574C51.0991 8.72396 51.3669 8.47396 51.4919 8.30432C51.8758 7.79539 52.2062 6.96503 51.9651 7.11682C51.9205 7.1436 51.8758 7.24182 51.8758 7.3311C51.8758 7.61682 51.1794 8.5811 50.7598 8.87574C50.5098 9.05432 50.3937 9.17932 50.4651 9.22396C50.5187 9.25967 50.4741 9.28646 50.3491 9.28646C50.233 9.28646 49.9651 9.34896 49.7508 9.42932C48.5633 9.87574 46.4116 9.59003 46.1705 8.94717C46.108 8.79539 46.0812 8.7686 46.0812 8.87574C46.0723 8.96503 46.0276 9.03646 45.9741 9.03646C45.9205 9.03646 45.8937 8.9561 45.9205 8.85789C45.9473 8.75967 45.9294 8.67932 45.8848 8.67932C45.8401 8.67932 45.8044 8.7686 45.8044 8.87574C45.8044 9.05432 45.7955 9.05432 45.6437 8.92039C45.5544 8.8311 45.4294 8.7686 45.3758 8.7686C45.3133 8.7686 45.2687 8.73289 45.2687 8.69717C45.2687 8.65253 45.108 8.54539 44.9116 8.4561C44.7151 8.36682 44.4919 8.21503 44.4026 8.11682C44.3133 8.0186 44.2866 7.9561 44.3312 7.98289C44.3848 8.00074 44.5991 8.10789 44.8223 8.2061C45.0455 8.31324 45.3491 8.42039 45.4919 8.44717C45.733 8.50074 45.733 8.49182 45.4473 8.38467C44.6616 8.07217 43.983 7.65253 43.4562 7.16146C42.8401 6.5811 42.0901 5.67039 42.1705 5.59003C42.1973 5.56324 42.3312 5.69717 42.4741 5.88467C42.608 6.07217 43.0276 6.5186 43.3937 6.87574C44.6437 8.09896 46.1348 8.60789 47.0544 8.12574C47.2687 8.00967 47.4651 7.85789 47.483 7.78646C47.5187 7.67932 47.483 7.68824 47.3401 7.81324C47.1794 7.9561 46.4473 8.23289 46.2241 8.23289C46.1794 8.23289 46.1973 8.17039 46.2598 8.09003C46.3669 7.9561 46.358 7.94717 46.1616 8.0186C45.3669 8.28646 43.9294 7.4561 42.7241 6.02753C42.1258 5.31324 41.9294 5.19717 41.7241 5.3936C41.5991 5.52753 41.6169 5.57217 41.9562 5.93824C42.1616 6.16146 42.3491 6.46503 42.3758 6.63467L42.4383 6.93824L42.2151 6.73289C42.0901 6.62574 41.7598 6.43824 41.4651 6.3311C41.0723 6.17932 40.9294 6.07217 40.8848 5.91146C40.8401 5.71503 40.8223 5.7061 40.7598 5.84896C40.7241 5.93824 40.5812 6.06324 40.4473 6.13467C40.1616 6.28646 40.0008 6.17932 40.0008 5.84003C40.0008 5.34896 38.9116 3.82217 38.3491 3.5186C38.2508 3.46503 38.1973 3.40253 38.233 3.36682C38.3758 3.21503 39.5544 4.24182 40.0187 4.92932C40.0991 5.05432 40.1705 5.10789 40.1705 5.05432C40.1794 5.00074 40.0187 4.7686 39.8223 4.54539C39.6258 4.32217 39.4651 4.11682 39.4651 4.0811C39.4651 3.98289 39.8133 4.2686 40.7241 5.10789C41.2062 5.55432 41.608 5.90253 41.608 5.86682C41.608 5.71503 40.7241 4.81324 40.4205 4.65253C40.2241 4.55432 40.0991 4.44717 40.1258 4.42039C40.1526 4.3936 40.4383 4.5186 40.7598 4.7061C41.0901 4.88467 41.3758 5.0186 41.3937 4.99182C41.4383 4.94717 41.1258 4.75074 40.3401 4.34896C40.0633 4.2061 39.858 4.05432 39.8758 4.0186C39.9026 3.98289 39.9919 3.99182 40.0723 4.03646C40.1526 4.0811 40.4741 4.22396 40.7776 4.35789C41.0901 4.49182 41.3848 4.65253 41.4383 4.71503C41.4919 4.78646 41.5812 4.84003 41.6258 4.84003C41.7866 4.84003 41.5008 4.57217 41.1169 4.34003C40.9116 4.22396 40.4651 4.02753 40.1258 3.91146C39.4919 3.69717 38.0366 2.96503 38.0366 2.86682C38.0366 2.8311 38.4294 2.97396 38.9116 3.18824C39.3848 3.40253 39.8848 3.59896 40.0276 3.62574C40.4294 3.72396 40.2955 3.54539 39.8758 3.42932C39.6526 3.37574 39.1437 3.17039 38.733 2.97396C37.6258 2.44717 37.3401 2.3936 35.9383 2.3936C34.5723 2.3936 34.0991 2.5186 33.6169 3.00074C33.3491 3.2686 33.3401 3.38467 33.5812 3.4561C33.8044 3.52753 33.7776 3.84003 33.5455 3.98289C33.4116 4.06324 33.3491 4.04539 33.2062 3.86682C32.9473 3.54539 32.9919 3.27753 33.3848 2.88467C33.7241 2.54539 34.1437 2.36682 35.1348 2.16146C35.7062 2.03646 37.0276 2.13467 37.9026 2.37574Z" fill="white"/>
<path d="M48.1342 7.409C47.8128 8.04292 47.036 8.49828 46.286 8.49828C46.0538 8.49828 45.8842 8.52507 45.911 8.55185C46.0271 8.659 47.8663 8.61435 47.9735 8.50721C48.0628 8.409 48.0003 8.40007 47.6788 8.45364L47.2771 8.50721L47.5896 8.23935C47.7592 8.08757 47.9288 7.96257 47.9646 7.96257C48.0449 7.96257 48.4199 7.159 48.3663 7.10542C48.3396 7.07864 48.2324 7.21257 48.1342 7.409Z" fill="white"/>
<path d="M32.9461 2.69588C33.0622 2.76731 33.0533 2.78516 32.9283 2.78516C32.8301 2.78516 32.7676 2.85659 32.7676 2.96374C32.7676 3.19588 32.7854 3.18695 33.0176 2.87445L33.2229 2.60659H33.0176C32.8479 2.60659 32.839 2.62445 32.9461 2.69588Z" fill="white"/>
<path d="M32.1606 2.96401C32.2231 3.06222 32.3034 3.14258 32.3302 3.14258C32.3659 3.14258 32.3749 3.06222 32.3481 2.96401C32.3213 2.86579 32.2409 2.78544 32.1784 2.78544C32.0713 2.78544 32.0713 2.82115 32.1606 2.96401Z" fill="white"/>
<path d="M34.8124 3.36679C35.107 3.50072 35.8927 3.55429 35.7677 3.43822C35.732 3.40251 35.5713 3.36679 35.4195 3.36679C35.2588 3.35786 34.9909 3.33108 34.8213 3.29536L34.5088 3.22394L34.8124 3.36679Z" fill="white"/>
<path d="M29.375 3.41068C29.375 3.45532 29.4821 3.49997 29.625 3.49104C29.8393 3.49104 29.8482 3.48211 29.6875 3.41068C29.4464 3.30354 29.375 3.30354 29.375 3.41068Z" fill="white"/>
<path d="M32.4017 3.36621C32.4017 3.36621 32.3928 3.70549 32.3928 4.12513C32.3928 4.54478 32.3481 4.93763 32.2946 5.00013C32.2499 5.06263 32.2321 5.26799 32.2678 5.46442C32.3035 5.67871 32.2856 5.90192 32.2231 6.01799C32.1339 6.17871 32.1517 6.23228 32.2856 6.33049C32.3839 6.40192 32.5446 6.42871 32.6785 6.40192C32.9731 6.32156 32.991 6.29478 32.8481 6.12513C32.7499 6.00906 32.7321 5.66978 32.741 4.65192C32.7678 3.38406 32.7589 3.33049 32.5892 3.34835C32.491 3.35728 32.4106 3.35728 32.4017 3.36621Z" fill="white"/>
<path d="M30.6693 3.58843C30.571 3.63307 30.1693 3.77593 29.7764 3.90093C29.3835 4.02593 29.205 4.09736 29.3746 4.07057C29.5443 4.03486 29.83 3.99915 29.9996 3.99022C30.1693 3.98129 30.4371 3.90986 30.5889 3.8295C30.7407 3.74915 30.8925 3.71343 30.9282 3.74022C30.955 3.77593 30.9818 3.73129 30.9818 3.65093C30.9818 3.48129 30.9282 3.47236 30.6693 3.58843Z" fill="white"/>
<path d="M34.1074 3.63536C34.1074 3.70679 34.161 3.76929 34.2324 3.76929C34.3039 3.76929 34.5628 3.87643 34.8128 4.00143C35.0717 4.12643 35.3396 4.20679 35.4289 4.18893C35.5539 4.15322 35.5449 4.14429 35.4021 4.13536C35.3039 4.12643 35.161 4.08179 35.0896 4.02822C34.9914 3.95679 35.0271 3.94786 35.2681 3.97464L35.5806 4.02822L35.3128 3.90322C35.1699 3.83179 34.9646 3.77822 34.8664 3.76929C34.7681 3.76929 34.5896 3.70679 34.4646 3.63536C34.1789 3.47464 34.1074 3.47464 34.1074 3.63536Z" fill="white"/>
<path d="M30.7593 3.94552C30.7326 3.99016 30.7593 4.0348 30.8218 4.0348C30.8933 4.04373 30.8665 4.08837 30.7593 4.17766C30.6611 4.24909 30.5361 4.2848 30.4826 4.26694C30.3308 4.21337 30.1076 4.40087 30.0718 4.61516C30.0451 4.76694 29.9736 4.79373 29.5986 4.76694L29.1611 4.74909L29.3486 4.92766C29.5361 5.08837 29.5629 5.0973 29.8843 4.96337C30.4379 4.73123 31.1254 4.18659 31.0897 4.00802C31.054 3.8473 30.8486 3.80266 30.7593 3.94552Z" fill="white"/>
<path d="M33.9905 4.02751C33.9637 4.16144 34.0619 4.27751 34.4101 4.50965C34.6601 4.6793 35.0173 4.88465 35.2048 4.96501C35.5173 5.09001 35.553 5.09001 35.7137 4.94715C35.9458 4.75073 35.9369 4.64358 35.6958 4.6793C35.5798 4.69715 35.4994 4.75965 35.5173 4.82215C35.5262 4.87573 35.4994 4.9293 35.4458 4.9293C35.4012 4.9293 35.3566 4.88465 35.3566 4.84001C35.3566 4.78644 35.2762 4.75073 35.178 4.75073C35.0798 4.75073 34.9994 4.71501 34.9994 4.66144C34.9994 4.6168 34.8119 4.50073 34.5887 4.39358C34.2494 4.25073 34.1958 4.18823 34.2762 4.09001C34.3566 3.9918 34.3476 3.95608 34.2316 3.91144C34.0441 3.84001 34.0441 3.84001 33.9905 4.02751Z" fill="white"/>
<path d="M29.7774 4.12552C29.6078 4.19695 29.6078 4.20588 29.7953 4.20588C29.9024 4.21481 30.0185 4.17017 30.0453 4.12552C30.1078 4.01838 30.0274 4.01838 29.7774 4.12552Z" fill="white"/>
<path d="M31.9912 4.32274C31.893 4.43881 31.7859 4.62631 31.7591 4.75131C31.7234 4.87631 31.4734 5.22453 31.1966 5.5281C30.9287 5.8406 30.7412 6.0906 30.7859 6.0906C30.8305 6.0906 30.9198 6.0281 30.9823 5.95667C31.0359 5.88524 31.1341 5.8406 31.1877 5.84953C31.2502 5.85846 31.2859 5.81381 31.2769 5.75131C31.2591 5.69774 31.2859 5.64417 31.3216 5.64417C31.3662 5.64417 31.4555 5.53703 31.518 5.39417C31.5894 5.25131 31.643 5.19774 31.6698 5.26917C31.7412 5.45667 31.2591 6.11739 31.0984 6.05489C31.0269 6.0281 30.9823 6.04596 31.0002 6.09953C31.0359 6.20667 31.0716 6.20667 31.4912 6.12631C31.7144 6.08167 31.7948 6.01024 31.8662 5.78703C31.9912 5.36739 32.2412 4.12631 32.1877 4.12631C32.1787 4.12631 32.0894 4.2156 31.9912 4.32274Z" fill="white"/>
<path d="M32.9463 4.32152C32.9463 4.56259 33.1606 5.66974 33.2588 5.91974C33.3034 6.03581 34.0177 6.30366 34.0177 6.20545C34.0177 6.18759 33.8749 6.01795 33.6963 5.83938C33.4731 5.60724 33.3927 5.45545 33.4195 5.30366C33.4641 5.06259 33.3213 4.61616 33.107 4.30366L32.9463 4.08938V4.32152Z" fill="white"/>
<path d="M34.7144 4.32174C34.8841 4.41995 35.2234 4.52709 35.4734 4.55388C36.0269 4.60745 36.0001 4.50031 35.4376 4.42888C35.2234 4.40209 34.9555 4.32174 34.8484 4.25031C34.7412 4.17888 34.5984 4.12531 34.5359 4.12531C34.4734 4.12531 34.5537 4.21459 34.7144 4.32174Z" fill="white"/>
<path d="M29.054 4.29545C29.0808 4.34009 29.1879 4.35795 29.2861 4.33116C29.5361 4.26866 29.5093 4.21509 29.2326 4.21509C29.1076 4.21509 29.0272 4.25081 29.054 4.29545Z" fill="white"/>
<path d="M35.7414 4.31166C35.8664 4.38309 35.9378 4.38309 36.0092 4.31166C36.0807 4.24023 36.036 4.21345 35.8485 4.21345C35.6164 4.22238 35.5985 4.23131 35.7414 4.31166Z" fill="white"/>
<path d="M30.8128 4.74146C30.536 4.99146 30.3574 5.22361 30.3931 5.27718C30.4467 5.35754 30.1342 5.55396 29.9556 5.55396C29.8753 5.55396 29.9824 5.25932 30.0985 5.18789C30.1878 5.11646 30.161 5.11646 30.0003 5.15218C29.6967 5.24146 29.5628 5.37539 29.786 5.38432C29.8842 5.38432 29.911 5.41111 29.8396 5.43789C29.7503 5.47361 29.7503 5.50932 29.8217 5.59861C29.8753 5.67004 29.9824 5.69682 30.0539 5.67004C30.1253 5.64325 30.2414 5.67004 30.3217 5.73254C30.4289 5.83075 30.5092 5.80396 30.7681 5.54504C30.9467 5.37539 31.2056 5.08968 31.3574 4.90218C31.5806 4.62539 31.6074 4.54504 31.5181 4.43789C31.4556 4.36646 31.3842 4.30396 31.3485 4.30396C31.3217 4.31289 31.0806 4.50932 30.8128 4.74146Z" fill="white"/>
<path d="M33.6162 4.42863C33.4733 4.52684 33.4823 4.56256 33.7233 4.84827C33.8573 5.01791 34.0001 5.16077 34.0448 5.17863C34.0805 5.19649 34.1073 5.26791 34.1073 5.33041C34.1073 5.40184 34.1965 5.50899 34.3126 5.56256C34.4198 5.62506 34.5358 5.71434 34.5715 5.75899C34.6073 5.82149 34.6787 5.81256 34.768 5.74113C34.8394 5.67863 34.9555 5.64291 35.018 5.66077C35.1073 5.69649 35.4465 5.42863 35.4465 5.32149C35.4465 5.31256 35.3215 5.25899 35.1698 5.20541L34.893 5.1072L35.0448 5.34827C35.1876 5.56256 35.1876 5.58041 35.0448 5.52684C34.9644 5.49113 34.8662 5.46434 34.8215 5.46434C34.7769 5.46434 34.7233 5.3572 34.6876 5.21434C34.6519 5.07149 34.4555 4.83934 34.1965 4.64291C33.8305 4.36613 33.7412 4.33041 33.6162 4.42863Z" fill="white"/>
<path d="M29.3306 4.48224C29.1342 4.51795 29.0627 4.55367 29.1699 4.5626C29.277 4.5626 29.411 4.58938 29.4824 4.61617C29.5449 4.64295 29.6788 4.60724 29.777 4.53581C29.9735 4.38402 29.9199 4.3751 29.3306 4.48224Z" fill="white"/>
<path d="M33.4824 5.27734C33.4824 5.32199 33.6342 5.51842 33.8217 5.69699C34.0003 5.87556 34.1431 6.05413 34.1342 6.08984C34.1253 6.11663 34.1789 6.15234 34.2503 6.15234C34.4378 6.15234 34.411 6.1077 34.0003 5.65234C33.5985 5.21484 33.4824 5.12556 33.4824 5.27734Z" fill="white"/>
<path d="M38.8486 15.2238C37.5093 18.3756 37.0718 19.3309 36.8486 19.5452C36.7326 19.6613 36.4736 19.7863 36.2504 19.822C36.0004 19.8666 35.8486 19.9381 35.8486 20.0095C35.8486 20.1077 36.1254 20.1345 37.2951 20.1434C38.6254 20.1523 38.7504 20.1345 38.7504 19.9916C38.7504 19.8756 38.679 19.8398 38.4111 19.8398C38.2236 19.8398 37.9826 19.7773 37.8665 19.697C37.6165 19.5184 37.6522 19.2238 38.0004 18.4559L38.2236 17.9648H39.5093H40.7861L41.0183 18.5452C41.1433 18.8666 41.2504 19.2238 41.2504 19.3488C41.2504 19.6166 40.9468 19.8398 40.5629 19.8398C40.3397 19.8398 40.2683 19.8756 40.2683 19.9916C40.2683 20.1434 40.4111 20.1523 41.9647 20.1523C43.5183 20.1523 43.6611 20.1434 43.6611 19.9916C43.6611 19.8845 43.5897 19.8398 43.4379 19.8398C43.0272 19.8398 42.7236 19.5988 42.4379 19.0631C42.2861 18.7773 41.6522 17.3488 41.0272 15.8845C40.4022 14.4291 39.8486 13.2327 39.7861 13.2327C39.7326 13.2416 39.3129 14.1345 38.8486 15.2238ZM40.0451 16.2684C40.2772 16.7863 40.4826 17.2595 40.5093 17.3131C40.5451 17.4023 40.3129 17.4291 39.5183 17.4291C38.9468 17.4291 38.4826 17.4023 38.4826 17.3666C38.4826 17.3309 38.6611 16.8934 38.8754 16.4023C39.0986 15.9113 39.3218 15.3845 39.3843 15.2416C39.4736 14.9916 39.4915 14.9916 39.5629 15.1523C39.5986 15.2506 39.8218 15.7506 40.0451 16.2684Z" fill="white"/>
<path d="M0.857282 13.7768C0.830497 13.9286 0.803711 14.3572 0.803711 14.7143C0.803711 15.2322 0.830497 15.375 0.93764 15.375C1.00907 15.375 1.10728 15.2232 1.16978 14.9911C1.36621 14.259 1.5805 14.1518 2.97335 14.1072L3.75014 14.0804V16.5625C3.75014 19.1965 3.7055 19.5357 3.32157 19.7411C3.21443 19.7947 2.99121 19.8393 2.81264 19.8393C2.56264 19.8393 2.49121 19.875 2.518 19.9822C2.54478 20.1072 2.77693 20.125 4.31264 20.134C5.93764 20.1518 6.07157 20.1429 6.07157 19.9911C6.07157 19.884 6.00014 19.8393 5.80371 19.8393C5.65193 19.8393 5.41085 19.7768 5.268 19.7054C4.87514 19.5 4.80371 19 4.83943 16.3661L4.86621 14.0982L5.75014 14.1161C6.9555 14.1429 7.25014 14.3215 7.44657 15.125C7.48228 15.2768 7.56264 15.375 7.66085 15.375C7.81264 15.375 7.81264 15.3393 7.68764 13.6072C7.67871 13.5268 6.93764 13.5 4.29478 13.5H0.919782L0.857282 13.7768Z" fill="white"/>
<path d="M8.57129 13.6256C8.57129 13.7059 8.70522 13.7773 8.92843 13.8131C9.70522 13.947 9.82129 14.322 9.82129 16.8041C9.82129 19.2952 9.65165 19.8398 8.87486 19.8398C8.64272 19.8398 8.57129 19.8756 8.57129 19.9916C8.57129 20.1434 8.71415 20.1523 10.3124 20.1523C11.9106 20.1523 12.0534 20.1434 12.0534 19.9916C12.0534 19.8756 11.982 19.8398 11.7499 19.8398C11.5534 19.8398 11.3481 19.7595 11.1963 19.6345C10.9999 19.4559 10.9552 19.3309 10.8838 18.7238C10.8481 18.3309 10.8124 17.7595 10.8124 17.447L10.8034 16.8934H12.5891H14.3749V17.8488C14.3749 19.3666 14.2141 19.7416 13.5445 19.8131C13.2409 19.8488 13.1249 19.9023 13.1249 20.0095C13.1249 20.1345 13.3124 20.1523 14.8838 20.1345C16.2945 20.1256 16.6516 20.0988 16.6516 20.0006C16.6516 19.9291 16.4999 19.8666 16.2588 19.8309C15.8124 19.7684 15.5713 19.5452 15.4909 19.0988C15.4552 18.9381 15.4463 17.822 15.4641 16.6077C15.4909 14.5363 15.4999 14.3934 15.6784 14.1523C15.8124 13.9738 15.982 13.8756 16.2766 13.822C16.5266 13.7684 16.6963 13.6881 16.6963 13.6166C16.6963 13.5273 16.3391 13.5006 14.9016 13.5006C13.2945 13.5006 13.1159 13.5184 13.1427 13.6434C13.1606 13.7416 13.2766 13.8041 13.4641 13.822C14.1695 13.9023 14.3034 14.1434 14.357 15.3934L14.4016 16.3577H12.5891H10.7766L10.8391 15.4023C10.9195 14.2595 11.0356 13.9916 11.4999 13.8666C11.6784 13.8131 11.8838 13.7684 11.9463 13.7684C11.9999 13.7684 12.0534 13.7059 12.0534 13.6345C12.0534 13.5184 11.8034 13.5006 10.3124 13.5006C8.87486 13.5006 8.57129 13.5184 8.57129 13.6256Z" fill="white"/>
<path d="M18.0984 13.5631C17.9913 13.6702 18.0359 13.7684 18.1967 13.7684C18.277 13.7684 18.5002 13.8131 18.6877 13.8666C19.2502 14.0184 19.2859 14.197 19.2859 16.8666C19.2859 19.0006 19.2681 19.1881 19.1074 19.4559C18.9377 19.7327 18.8038 19.8041 18.3038 19.8577C18.1788 19.8756 18.0806 19.9381 18.0806 20.0006C18.0806 20.0898 18.6699 20.1166 20.9467 20.1345L23.8127 20.1523L23.8752 19.4916C23.9556 18.4916 23.9467 18.322 23.7949 18.322C23.7234 18.322 23.6342 18.4291 23.6074 18.5631C23.4913 19.0273 23.2949 19.322 22.9913 19.447C22.6788 19.572 21.1342 19.6256 20.8484 19.5184C20.5538 19.4023 20.4199 18.9381 20.3752 17.8934L20.3306 16.8934H20.7681C21.7324 16.8934 22.1431 17.1702 22.1431 17.8131C22.1431 18.072 22.1788 18.1523 22.277 18.1256C22.402 18.0988 22.4199 17.8756 22.4199 16.6256C22.4288 15.3398 22.4109 15.1523 22.2859 15.1256C22.1699 15.0988 22.1431 15.1702 22.1431 15.4559C22.1431 15.697 22.0806 15.8845 21.9377 16.0541C21.7502 16.2684 21.652 16.2952 21.0449 16.3398L20.3574 16.3845V15.197V14.0184L21.4288 14.0541C22.6967 14.0988 22.902 14.197 23.1431 14.8934C23.2324 15.1613 23.3484 15.3398 23.4467 15.3666C23.5806 15.3934 23.5895 15.3309 23.5449 14.7863C23.5092 14.447 23.4824 14.0184 23.4824 13.8309V13.5006H20.8217C19.3574 13.5006 18.1252 13.5273 18.0984 13.5631Z" fill="white"/>
<path d="M28.973 13.5903C28.8837 13.7332 28.964 13.7868 29.3212 13.8225C29.7944 13.8671 29.9819 14.001 30.089 14.376C30.1337 14.5635 30.1783 15.6528 30.1783 16.876C30.1783 19.5814 30.1337 19.7332 29.3301 19.8403C29.1069 19.8671 28.973 19.9296 28.973 20.01C28.973 20.1082 29.3301 20.126 31.0712 20.1171C33.214 20.0993 33.6694 20.0457 34.1694 19.7421C35.2408 19.0814 35.1694 17.3582 34.0444 16.6975L33.7497 16.5189L34.0176 16.2153C34.1605 16.0457 34.3033 15.7957 34.339 15.6618C34.3658 15.5278 34.4105 15.3671 34.4283 15.2957C34.4908 15.0814 34.2855 14.501 34.0444 14.2064C33.5533 13.626 33.223 13.5457 31.0176 13.5189C29.589 13.4921 29.0176 13.5189 28.973 13.5903ZM32.6783 14.1707C33.0265 14.3493 33.214 14.7332 33.214 15.2778C33.214 15.6528 33.1694 15.7778 32.9551 16.0189C32.7051 16.2957 32.6605 16.3135 31.973 16.3403L31.2497 16.376V15.2064V14.0368H31.8301C32.1783 14.0368 32.5265 14.0903 32.6783 14.1707ZM33.1426 17.0903C33.9462 17.4028 33.9997 19.0368 33.214 19.4385C32.9372 19.5814 31.7408 19.626 31.5444 19.501C31.339 19.3671 31.2497 18.9207 31.2497 17.9743C31.2497 17.4475 31.2676 16.9921 31.2855 16.9743C31.3569 16.9028 32.9105 16.9921 33.1426 17.0903Z" fill="white"/>
<path d="M44.375 13.6245C44.375 13.7049 44.5179 13.7674 44.7679 13.8031C45.0089 13.8388 45.2321 13.946 45.3661 14.0888C45.5804 14.312 45.5804 14.3388 45.6071 16.562C45.625 17.8031 45.6161 18.937 45.5804 19.0977C45.5 19.5442 45.2589 19.7674 44.8125 19.8299C44.5714 19.8656 44.4196 19.9281 44.4196 20.0085C44.4196 20.0977 44.7232 20.1245 45.9196 20.1424C47.2857 20.1513 47.4107 20.1424 47.4107 19.9906C47.4107 19.8835 47.3393 19.8388 47.1429 19.8388C47 19.8388 46.7857 19.7942 46.6696 19.7406C46.2589 19.5531 46.2143 19.321 46.1875 17.071L46.1607 14.9727L46.3929 15.2585C47.4643 16.5799 50.5 20.187 50.6429 20.3031C50.7411 20.3924 50.8571 20.437 50.9018 20.4102C50.9464 20.3835 50.9821 19.0799 50.9821 17.4638C50.9821 14.1424 51 14.0263 51.5804 13.8656C51.7679 13.812 51.9732 13.7674 52.0357 13.7674C52.0893 13.7674 52.1429 13.7049 52.1429 13.6335C52.1429 13.5174 51.9196 13.4995 50.6696 13.4995C49.4196 13.4995 49.1964 13.5174 49.1964 13.6335C49.1964 13.7049 49.25 13.7674 49.3125 13.7674C49.3661 13.7674 49.5714 13.812 49.75 13.8656C50.3214 14.0174 50.375 14.2317 50.4286 16.437C50.4554 17.7138 50.4464 18.3299 50.3839 18.312C50.3304 18.2942 50.0357 17.9727 49.7232 17.5888C49.4107 17.2138 48.5089 16.1424 47.7232 15.2049L46.2946 13.4995H45.3393C44.5804 13.4995 44.375 13.5263 44.375 13.6245Z" fill="white"/>
<path d="M53.5893 13.6434C53.6072 13.7416 53.7322 13.8041 53.9197 13.8309C54.3661 13.8756 54.6161 14.072 54.7233 14.4559C54.8572 14.9291 54.8393 18.8041 54.6965 19.2595C54.5804 19.6613 54.3215 19.8398 53.8572 19.8398C53.634 19.8398 53.5625 19.8756 53.5893 19.9827C53.6161 20.0988 53.8572 20.1166 55.3572 20.1256C56.7768 20.1256 57.0983 20.1077 57.0983 20.0095C57.0983 19.9291 56.9554 19.8666 56.7233 19.8309C56.5179 19.8041 56.2947 19.7327 56.2143 19.6702C56 19.4916 55.8929 18.9827 55.8929 18.0898C55.8929 17.3666 55.9108 17.2595 56.0983 17.0898L56.3036 16.9023L57.5715 18.1256C58.2679 18.7952 58.8393 19.4113 58.8393 19.4827C58.8393 19.697 58.6518 19.8398 58.375 19.8398C58.1965 19.8398 58.125 19.8845 58.125 19.9916C58.125 20.1434 58.2679 20.1523 59.9108 20.1523C61.509 20.1523 61.6965 20.1345 61.6965 20.0095C61.6965 19.9113 61.5893 19.8398 61.4108 19.8041C60.9911 19.7148 60.4822 19.3398 58.75 17.8309C57.9018 17.0898 57.1697 16.4738 57.134 16.4648C56.9465 16.3934 57.125 16.1791 57.9643 15.4648C59.4822 14.1791 59.9911 13.8756 60.6697 13.8131C60.7679 13.8041 60.8483 13.7416 60.8483 13.6702C60.8483 13.572 60.5804 13.5363 59.4018 13.5184C58.1965 13.5006 57.9465 13.5184 57.9465 13.6256C57.9465 13.697 58.0804 13.7684 58.259 13.8041C58.634 13.8756 58.7054 13.9738 58.5536 14.2148C58.4286 14.4202 56.0268 16.5363 55.9197 16.5363C55.875 16.5363 55.8661 16.0363 55.8929 15.4202C55.9375 14.3756 55.9643 14.2863 56.1697 14.0809C56.3125 13.9291 56.5179 13.8398 56.75 13.822C56.9822 13.8041 57.1072 13.7416 57.125 13.6434C57.1518 13.5184 56.9643 13.5006 55.3572 13.5006C53.7411 13.5006 53.5625 13.5184 53.5893 13.6434Z" fill="white"/>
<path d="M18.3308 21.8219C18.1433 21.9827 17.9737 22.1255 17.9558 22.1344C17.9379 22.1523 17.9379 22.1791 17.9647 22.2059C18.0451 22.2862 18.929 21.8041 18.929 21.6702C18.929 21.4559 18.6969 21.5184 18.3308 21.8219Z" fill="white"/>
<path d="M22.098 22.5349C21.6873 22.776 21.598 23.0974 21.8301 23.5349C21.9641 23.7849 21.9641 23.8117 21.7409 24.0082C21.2766 24.4457 21.348 25.0439 21.9016 25.3207C22.2766 25.4992 22.7587 25.4635 22.9462 25.2314C23.0444 25.1153 23.0801 25.1153 23.2051 25.2314C23.473 25.4724 23.7855 25.4903 24.0266 25.2849C24.2409 25.0885 24.1962 25.0885 23.7855 25.2582C23.7319 25.276 23.5712 25.1957 23.4373 25.0796C23.1873 24.8742 23.1873 24.8653 23.3123 24.4814C23.4016 24.1867 23.4998 24.0707 23.6605 24.026C23.8034 23.9814 23.6784 23.9635 23.3034 23.9635C22.8926 23.9546 22.7766 23.9814 22.9105 24.0349C23.1605 24.1332 23.1962 24.2046 23.1337 24.5171L23.0801 24.7849L22.6784 24.3028C22.3123 23.8653 22.2944 23.8207 22.4462 23.7314C22.8926 23.4635 23.1248 23.2046 23.1248 22.9635C23.1248 22.5171 22.5444 22.276 22.098 22.5349ZM22.7498 22.7135C22.9551 22.9189 22.8659 23.2135 22.5444 23.4635C22.3659 23.5974 22.2051 23.6778 22.1784 23.651C22.1516 23.6242 22.1069 23.4367 22.0801 23.2224C22.0355 22.9189 22.0623 22.8207 22.1873 22.7224C22.3926 22.5796 22.6069 22.5707 22.7498 22.7135ZM22.5266 24.5171C22.7587 24.7849 22.9462 25.026 22.9462 25.0528C22.9462 25.0707 22.8034 25.1421 22.6337 25.1957C22.3212 25.2939 22.0087 25.2135 21.8569 24.9814C21.7051 24.7582 21.8391 24.0349 22.0355 24.0349C22.0712 24.0349 22.2855 24.2582 22.5266 24.5171Z" fill="white"/>
<path d="M8.83033 22.8037C7.62498 23.5001 8.08926 25.4197 9.46426 25.4197C9.74998 25.4197 9.94641 25.3662 10.0625 25.259C10.2768 25.0715 10.3571 25.0626 10.3571 25.2412C10.3571 25.3126 10.4018 25.3751 10.4464 25.3751C10.5 25.3751 10.5357 25.134 10.5357 24.8394C10.5357 24.2769 10.4107 24.1251 10.3125 24.5715C10.2321 24.9287 9.87498 25.1965 9.47319 25.1965C8.87498 25.1876 8.51783 24.6608 8.59819 23.893C8.67855 23.1251 9.08033 22.7412 9.67855 22.8483C9.95533 22.9019 10.3571 23.3483 10.3571 23.5983C10.3571 23.6876 10.4018 23.768 10.4464 23.768C10.5 23.768 10.5357 23.5269 10.5357 23.2322C10.5357 22.9376 10.5 22.6965 10.4464 22.6965C10.4018 22.6965 10.3571 22.759 10.3571 22.8305C10.3571 23.009 10.2946 23.0001 10.0268 22.7858C9.73212 22.5537 9.24105 22.5626 8.83033 22.8037Z" fill="white"/>
<path d="M11.9196 23.8839C11.5089 24.8482 11.3392 25.1607 11.2053 25.1786C11.1071 25.1964 10.991 25.25 10.9464 25.2946C10.8928 25.3393 11.116 25.375 11.4999 25.375C11.866 25.375 12.1428 25.3393 12.1428 25.2857C12.1428 25.2321 12.0446 25.1964 11.9196 25.1964C11.6696 25.1964 11.6428 25.0625 11.8035 24.7054C11.8928 24.5 11.9553 24.4821 12.4106 24.4821C12.8928 24.4821 12.9285 24.5 13.0356 24.7411C13.1606 25.0446 13.0981 25.1964 12.8481 25.1964C12.7589 25.1964 12.6785 25.2321 12.6785 25.2857C12.6785 25.3393 12.9731 25.375 13.3928 25.375C13.8124 25.375 14.1071 25.3393 14.1071 25.2857C14.1071 25.2321 14.0356 25.1964 13.9374 25.1964C13.6964 25.1964 13.6071 25.0536 13.0803 23.7946C12.8124 23.1696 12.5714 22.6429 12.5267 22.6339C12.491 22.625 12.2142 23.1875 11.9196 23.8839ZM12.616 23.7411C12.6964 23.9821 12.7678 24.1964 12.7678 24.2321C12.7678 24.2768 12.6071 24.3036 12.4106 24.3036C12.2142 24.3036 12.0535 24.2768 12.0535 24.2321C12.0535 24.1071 12.3571 23.3214 12.4106 23.3214C12.4374 23.3214 12.5356 23.5089 12.616 23.7411Z" fill="white"/>
<path d="M32.1873 22.8305C31.7945 23.2145 31.9552 23.7591 32.5355 24.0538C33.1516 24.3663 33.3927 24.5716 33.3927 24.7859C33.3927 25.0716 33.223 25.1966 32.857 25.1966C32.5088 25.1966 32.1427 24.9109 32.1427 24.6341C32.1427 24.5538 32.107 24.4645 32.0534 24.4377C31.9998 24.402 31.9641 24.5895 31.973 24.9466C31.973 25.3841 31.9998 25.4734 32.0713 25.3663C32.1605 25.2413 32.1963 25.2413 32.4284 25.3573C32.7409 25.5091 33.2498 25.4555 33.4909 25.2323C33.723 25.027 33.8034 24.527 33.6427 24.2859C33.5713 24.1788 33.2588 23.9466 32.9373 23.768C32.482 23.518 32.357 23.402 32.3391 23.2055C32.3123 23.018 32.357 22.9466 32.5266 22.8841C32.6516 22.8395 32.8391 22.8216 32.9373 22.8484C33.1427 22.902 33.3927 23.2948 33.3927 23.5538C33.3927 23.643 33.4195 23.6788 33.4641 23.643C33.5445 23.5627 33.5534 22.6073 33.4641 22.6073C33.4373 22.6073 33.3927 22.652 33.3748 22.7055C33.348 22.7859 33.2945 22.7859 33.1516 22.7055C32.8302 22.5359 32.4195 22.5895 32.1873 22.8305Z" fill="white"/>
<path d="M38.2144 22.6964C38.2144 22.7946 37.4912 24.5089 37.2769 24.9375C37.1965 25.0893 37.0626 25.1964 36.9644 25.1964C36.8751 25.1964 36.7679 25.2321 36.7412 25.2857C36.7054 25.3393 36.9197 25.375 37.3126 25.375C37.6787 25.375 37.9465 25.3393 37.9465 25.2857C37.9465 25.2321 37.8483 25.1964 37.7233 25.1964C37.4733 25.1964 37.4465 25.0625 37.6072 24.7054C37.6965 24.5089 37.759 24.4821 38.2144 24.4821C38.6697 24.4821 38.7322 24.5089 38.8215 24.7054C38.9822 25.0625 38.9554 25.1964 38.7054 25.1964C38.5804 25.1964 38.4822 25.2321 38.4822 25.2857C38.4822 25.3393 38.7769 25.375 39.1965 25.375C39.6162 25.375 39.9108 25.3393 39.9108 25.2857C39.9108 25.2321 39.8304 25.1964 39.7322 25.1964C39.5001 25.1964 39.384 25.0089 38.8304 23.6964C38.4287 22.7411 38.2144 22.4018 38.2144 22.6964ZM38.4197 23.7411C38.5001 23.9821 38.5715 24.1964 38.5715 24.2321C38.5715 24.2768 38.4108 24.3036 38.2144 24.3036C38.0179 24.3036 37.8572 24.2768 37.8572 24.2321C37.8572 24.1071 38.1608 23.3214 38.2144 23.3214C38.2412 23.3214 38.3394 23.5089 38.4197 23.7411Z" fill="white"/>
<path d="M47.3223 23.7232C46.7151 25.1339 46.6794 25.1964 46.2866 25.1964C46.0276 25.1964 45.8937 25.1161 45.5366 24.75C45.0544 24.2768 44.9919 24.125 45.2598 24.125C45.4651 24.125 45.8044 23.7232 45.8044 23.4821C45.8044 23.2143 45.6437 22.9821 45.358 22.8304C45.0723 22.6786 43.5723 22.6339 43.5723 22.7768C43.5723 22.8214 43.6616 22.875 43.7776 22.8929C43.9651 22.9196 43.9741 22.9464 43.9741 24.0357C43.9741 25.125 43.9651 25.1518 43.7776 25.1786C43.6616 25.1964 43.5723 25.25 43.5723 25.2946C43.5723 25.3393 43.8937 25.375 44.2955 25.375C44.7508 25.375 44.9919 25.3393 44.9562 25.2857C44.9294 25.2321 44.8312 25.1964 44.733 25.1964C44.5366 25.1964 44.4651 25.0268 44.4651 24.5625C44.4651 24.0625 44.6258 24.125 45.0812 24.7946L45.4741 25.375H46.4473C47.0276 25.375 47.4116 25.3393 47.4116 25.2857C47.4116 25.2321 47.3312 25.1964 47.2419 25.1964C46.983 25.1964 46.9383 25.0536 47.0991 24.75C47.233 24.5 47.2687 24.4821 47.7508 24.4821C48.2419 24.4821 48.2687 24.4911 48.3669 24.7589C48.4919 25.0893 48.4562 25.1964 48.2062 25.1964C48.1169 25.1964 48.0366 25.2321 48.0366 25.2857C48.0366 25.3393 48.3223 25.375 48.7062 25.375C49.0723 25.375 49.3758 25.3393 49.3758 25.2946C49.3758 25.25 49.2866 25.1964 49.1794 25.1786C49.0098 25.1607 48.8848 24.9375 48.4383 23.8839C48.1437 23.1875 47.8848 22.6071 47.858 22.6071C47.8312 22.6071 47.5901 23.1071 47.3223 23.7232ZM45.2419 23.1161C45.5276 23.5 45.2241 24.0357 44.733 24.0357H44.4651V23.4464V22.8482L44.7955 22.9018C44.983 22.9375 45.1883 23.0268 45.2419 23.1161ZM47.9473 23.7321C48.0455 23.9643 48.1258 24.1786 48.1258 24.2232C48.1258 24.2679 47.9473 24.3036 47.7241 24.3036C47.5008 24.3036 47.3223 24.2857 47.3223 24.2679C47.3223 24.25 47.3758 24.0982 47.4473 23.9375C47.5098 23.7679 47.5901 23.5625 47.6169 23.4732C47.6973 23.25 47.7419 23.2768 47.9473 23.7321Z" fill="white"/>
<path d="M14.375 22.7768C14.375 22.8214 14.4643 22.875 14.5804 22.8929C14.7589 22.9196 14.7857 22.9911 14.8571 23.6161C14.9643 24.5357 14.8571 25.1429 14.5804 25.1786C14.4643 25.1964 14.375 25.25 14.375 25.2946C14.375 25.3393 14.6964 25.375 15.0893 25.375C15.5089 25.375 15.8036 25.3393 15.8036 25.2857C15.8036 25.2321 15.7321 25.1964 15.6429 25.1964C15.375 25.1964 15.2679 25 15.2679 24.5089C15.2679 24.0536 15.2768 24.0357 15.5179 24.0357C15.8036 24.0357 15.9821 24.1786 15.9821 24.4107C15.9821 24.5 16.0179 24.5714 16.0536 24.5714C16.0893 24.5714 16.125 24.2857 16.125 23.9464C16.125 23.5982 16.0893 23.3214 16.0536 23.3214C16.0179 23.3214 15.9821 23.3929 15.9821 23.4821C15.9821 23.7143 15.8036 23.8571 15.5179 23.8571C15.2768 23.8571 15.2679 23.8482 15.2679 23.3661C15.2679 22.8214 15.2768 22.8125 16.0089 22.9375C16.2589 22.9732 16.375 23.0446 16.4375 23.1964C16.5536 23.5268 16.6607 23.4464 16.625 23.0536L16.5893 22.6964H15.4821C14.8571 22.6964 14.375 22.7321 14.375 22.7768Z" fill="white"/>
<path d="M17.0537 22.7768C17.0537 22.8214 17.143 22.875 17.2591 22.8929C17.4466 22.9196 17.4555 22.9464 17.4555 24.0357C17.4555 25.125 17.4466 25.1518 17.2591 25.1786C17.143 25.1964 17.0537 25.25 17.0537 25.2946C17.0537 25.3393 17.5537 25.375 18.2144 25.375H19.3751V24.9643C19.3751 24.7232 19.3394 24.5804 19.2859 24.6161C19.2412 24.6429 19.1966 24.7411 19.1966 24.8393C19.1966 25.0357 19.0269 25.1071 18.5359 25.1071C18.0537 25.1071 17.9466 24.9911 17.9466 24.4643C17.9466 24.0893 17.9734 24.0357 18.1341 24.0357C18.4198 24.0357 18.6609 24.2054 18.6609 24.3929C18.6609 24.4911 18.6966 24.5714 18.7412 24.5714C18.8216 24.5714 18.8037 23.4375 18.7144 23.3482C18.6876 23.3214 18.6609 23.375 18.6609 23.4643C18.6609 23.7143 18.4912 23.8571 18.1966 23.8571C17.9555 23.8571 17.9466 23.8482 17.9466 23.3571V22.8571L18.4198 22.9107C18.8484 22.9643 19.0359 23.0804 19.1341 23.3571C19.2055 23.5536 19.2591 23.3571 19.2144 23.0268L19.1787 22.6964H18.1162C17.518 22.6964 17.0537 22.7321 17.0537 22.7768Z" fill="white"/>
<path d="M25.9824 22.7768C25.9824 22.8214 26.0717 22.875 26.1878 22.8929C26.3753 22.9196 26.3842 22.9464 26.3842 24.0357C26.3842 25.125 26.3753 25.1518 26.1878 25.1786C26.0717 25.1964 25.9824 25.25 25.9824 25.2946C25.9824 25.3393 26.3128 25.375 26.7146 25.375C27.1521 25.375 27.411 25.3393 27.3574 25.2946C27.3128 25.25 27.1967 25.1964 27.0985 25.1786C26.9467 25.1518 26.911 25.0714 26.8931 24.6786C26.8574 24.0446 27.0003 24.0714 27.4914 24.7946C27.8753 25.3571 27.8931 25.375 28.2771 25.375C28.6967 25.375 28.7949 25.25 28.4467 25.1607C28.2414 25.1071 27.5003 24.3571 27.5003 24.2054C27.5003 24.1607 27.5806 24.125 27.6699 24.125C27.8753 24.125 28.2146 23.7232 28.2146 23.4821C28.2146 23.2143 28.0539 22.9821 27.7681 22.8304C27.4824 22.6786 25.9824 22.6339 25.9824 22.7768ZM27.5985 23.0268C27.6431 23.0714 27.6967 23.2321 27.7324 23.3839C27.8039 23.7321 27.536 24.0357 27.1431 24.0357H26.8753V23.4464V22.8482L27.2056 22.9018C27.3842 22.9375 27.5628 22.9911 27.5985 23.0268Z" fill="white"/>
<path d="M28.9287 22.7857C28.9287 22.8304 29.0091 22.875 29.1073 22.875C29.3751 22.875 29.4644 23.1518 29.4644 24.0357C29.4644 24.9196 29.3751 25.1964 29.1073 25.1964C29.0091 25.1964 28.9287 25.2321 28.9287 25.2857C28.9287 25.3393 29.3751 25.375 30.0805 25.375H31.2323L31.268 25.0089C31.3126 24.5714 31.2144 24.4732 31.0805 24.8393C31.0001 25.0893 30.9644 25.1071 30.5001 25.1071C29.9287 25.1071 29.8216 24.9911 29.8216 24.4018C29.8216 24.0625 29.8394 24.0357 30.0716 24.0357C30.3573 24.0357 30.5359 24.1786 30.5359 24.4107C30.5359 24.5 30.5805 24.5714 30.6251 24.5714C30.6787 24.5714 30.7144 24.3036 30.7144 23.9464C30.7144 23.5893 30.6787 23.3214 30.6251 23.3214C30.5805 23.3214 30.5359 23.3929 30.5359 23.4821C30.5359 23.7143 30.3573 23.8571 30.0626 23.8571C29.8126 23.8571 29.8126 23.8482 29.8394 23.3839L29.8662 22.9196L30.1787 22.9107C30.6073 22.9018 30.9019 23.0179 30.9555 23.2321C30.9823 23.3304 31.0448 23.4107 31.0894 23.4107C31.143 23.4107 31.1609 23.3214 31.1251 23.2054C31.0984 23.0982 31.0716 22.9375 31.0716 22.8482C31.0716 22.7143 30.9644 22.6964 30.0001 22.6964C29.3484 22.6964 28.9287 22.7321 28.9287 22.7857Z" fill="white"/>
<path d="M34.0721 23.0625C34.0006 23.5179 34.0542 23.5982 34.2149 23.2589C34.3221 23.0357 34.3846 23.0089 34.8042 22.9821L35.2685 22.9554V23.9643C35.2685 25.0179 35.2149 25.1964 34.8935 25.1964C34.8042 25.1964 34.7328 25.2321 34.7328 25.2857C34.7328 25.3393 35.0274 25.375 35.4471 25.375C35.8667 25.375 36.1613 25.3393 36.1613 25.2857C36.1613 25.2321 36.081 25.1964 35.9828 25.1964C35.706 25.1964 35.6167 24.8304 35.6435 23.8214L35.6703 22.9196L36.0721 22.9554C36.5274 22.9821 36.6971 23.0893 36.6971 23.3304C36.6971 23.4286 36.7417 23.5 36.7863 23.5C36.8846 23.5 36.9024 23.2054 36.8221 22.8929C36.7685 22.6964 36.7417 22.6964 35.4471 22.6964H34.1346L34.0721 23.0625Z" fill="white"/>
<path d="M39.9111 22.7858C39.9111 22.8305 39.9915 22.8751 40.0897 22.8751C40.3576 22.8751 40.4468 23.1519 40.4468 24.0091C40.4468 24.8841 40.5361 25.0983 40.9826 25.3305C41.304 25.5001 41.6165 25.5001 42.0093 25.3394C42.4468 25.1519 42.5897 24.8126 42.5897 23.9108C42.5897 23.0448 42.6343 22.8751 42.8576 22.8751C42.9558 22.8751 43.054 22.8305 43.0808 22.7858C43.1165 22.7323 42.8843 22.6966 42.4558 22.6966C42.0272 22.6966 41.7951 22.7323 41.8308 22.7858C41.8576 22.8305 41.9558 22.8751 42.054 22.8751C42.2772 22.8751 42.3218 23.0448 42.3218 23.9555C42.3218 24.6876 42.304 24.7769 42.0986 24.9733C41.8308 25.2501 41.3576 25.268 41.0629 25.0269C40.8754 24.8751 40.8486 24.768 40.8218 24.0537C40.7861 23.1876 40.8754 22.8751 41.1611 22.8751C41.2593 22.8751 41.3397 22.8305 41.3397 22.7858C41.3397 22.7323 41.0451 22.6966 40.6254 22.6966C40.2058 22.6966 39.9111 22.7323 39.9111 22.7858Z" fill="white"/>
<path d="M49.6873 22.7861C49.7141 22.8308 49.8123 22.8754 49.9106 22.8754C50.1427 22.8754 50.1784 23.0451 50.1784 24.0361C50.1784 25.0272 50.1427 25.1969 49.9106 25.1969C49.8123 25.1969 49.7141 25.2326 49.6873 25.2861C49.6516 25.3397 49.8659 25.3754 50.2588 25.3754C50.6248 25.3754 50.8927 25.3397 50.8927 25.2861C50.8927 25.2326 50.8123 25.1969 50.7141 25.1969C50.4552 25.1969 50.357 24.8665 50.357 24.0272C50.357 23.3129 50.4106 23.1879 50.5891 23.4736C50.7588 23.7415 52.1606 25.4201 52.2409 25.4469C52.2856 25.4647 52.3302 24.9022 52.3391 24.1969C52.3659 22.9469 52.3748 22.9201 52.5713 22.8933C52.9998 22.8308 52.7409 22.6969 52.1873 22.6969C51.857 22.6969 51.607 22.7326 51.607 22.7861C51.607 22.8308 51.6873 22.8754 51.7856 22.8754C51.8838 22.8754 51.982 22.929 52.0088 22.9826C52.0623 23.1611 52.107 24.5719 52.0534 24.5719C52.0266 24.5719 51.6516 24.1522 51.2231 23.6344C50.4373 22.6969 50.4284 22.6969 50.0356 22.6969C49.7856 22.6969 49.6516 22.7326 49.6873 22.7861Z" fill="white"/>
<path d="M53.1339 23.1161L53.1429 23.5446L53.2589 23.2768C53.3571 23.0446 53.4286 23 53.8304 22.9643C54.0893 22.9375 54.3036 22.9196 54.3125 22.9286C54.3214 22.9375 54.3125 23.4464 54.2857 24.0536C54.2411 25.0625 54.2232 25.1518 54.0625 25.1786C53.9643 25.1964 53.8482 25.25 53.8036 25.2946C53.75 25.3393 54.0357 25.375 54.5089 25.375C54.9821 25.375 55.2679 25.3393 55.2232 25.2946C55.1696 25.25 55.0536 25.1964 54.9554 25.1786C54.7857 25.1518 54.7768 25.0714 54.75 24.0357L54.7232 22.9107L55.1964 22.9643C55.5804 23 55.6696 23.0446 55.6964 23.1875C55.7679 23.5714 55.8929 23.5268 55.8929 23.1161V22.6964H54.5089H53.125L53.1339 23.1161Z" fill="white"/>
<path d="M14.9652 28.2862C14.242 28.4648 13.251 29.0005 12.7599 29.4827C12.3224 29.9202 11.8581 30.7862 11.7063 31.447C11.4117 32.7237 11.7777 34.1612 12.6081 34.9559C13.3135 35.6255 13.7777 35.822 14.6885 35.822C15.5188 35.822 15.7867 35.7327 16.1795 35.313C16.4474 35.0273 16.6974 34.5005 16.6974 34.197C16.6974 33.8755 16.3581 33.2862 16.0813 33.1166C15.5367 32.7952 14.8135 33.0273 14.7063 33.563C14.6527 33.8398 14.8313 34.2505 15.0635 34.3845C15.2063 34.4648 15.2063 34.4827 15.0099 34.5541C14.4831 34.7505 13.742 34.4916 13.3135 33.9559C12.6349 33.1255 12.6081 31.938 13.2688 32.2416C13.5724 32.3755 13.7599 32.3666 14.001 32.197L14.2063 32.0541L14.0188 31.7684C13.5277 30.9648 14.1438 29.8577 15.4027 29.2684C15.7777 29.0987 16.9652 28.9559 16.9563 29.0898C16.9563 29.1345 16.7331 29.3487 16.4742 29.572C16.0277 29.947 16.001 29.9827 16.1527 30.0898C16.3045 30.197 16.3045 30.2327 16.1885 30.5809C15.8938 31.4202 16.4385 32.3755 17.3045 32.563C17.5902 32.6255 17.6081 32.6166 17.5277 32.4202C17.4117 32.072 17.4652 31.4827 17.6438 31.2327C17.8492 30.9559 17.9027 30.947 18.1885 31.1791C18.4563 31.3845 18.751 31.4112 18.751 31.2237C18.751 31.0273 19.117 30.7327 19.3581 30.7327C19.9563 30.7327 21.4027 31.7416 22.117 32.6523C22.2777 32.8487 22.5277 33.1077 22.6795 33.2148C22.8224 33.3309 22.9474 33.447 22.9474 33.4827C22.9474 33.5184 22.6706 33.5541 22.3313 33.5541C20.9652 33.5809 20.0813 34.5898 20.5813 35.563C20.8492 36.063 21.5545 36.1523 21.9742 35.7416C22.2599 35.4559 22.3045 35.188 22.0992 35.0184C21.6706 34.6612 22.4742 34.0362 23.0724 34.2684C23.1795 34.3041 23.126 34.3934 22.8492 34.6523C22.5902 34.9112 22.501 35.063 22.501 35.2684C22.501 35.7862 23.0635 36.1255 23.5456 35.8934C23.751 35.7952 23.8045 35.7148 23.8224 35.4023C23.8492 35.0273 23.8581 35.0273 24.1349 35.072C24.2956 35.1077 24.7599 35.2505 25.1795 35.3934C26.6349 35.9023 27.001 36.0095 27.7509 36.1345C29.5634 36.4559 31.2599 36.1434 31.9027 35.3755C32.2063 35.0184 32.2688 34.8041 32.1438 34.447C32.0277 34.0809 31.7242 33.9202 31.4206 34.072C31.2599 34.1523 31.2152 34.2416 31.2331 34.4291C31.2688 34.7416 31.1438 34.8934 30.6617 35.1166C29.8492 35.4827 28.4652 35.4202 27.5724 34.9648C26.6795 34.5095 25.7867 33.4291 25.3581 32.2684C25.2152 31.8666 25.117 31.7148 25.0277 31.7505C24.9563 31.7862 24.8402 31.8041 24.7777 31.8041C24.7063 31.8041 24.5902 31.8666 24.5099 31.947C24.3849 32.0809 24.3581 32.0809 24.2599 31.9559C24.1974 31.8845 24.0188 31.8041 23.8492 31.7684C23.6795 31.7416 23.3224 31.5452 23.0545 31.3487C22.6706 31.0541 22.5545 31.0095 22.492 31.0987C22.4474 31.1702 22.4117 31.2773 22.4117 31.3309C22.4117 31.5452 22.2688 31.447 21.8849 30.9827C20.8045 29.6523 19.1885 28.7148 17.3313 28.3309C16.3135 28.1166 15.7152 28.1077 14.9652 28.2862ZM15.492 28.5005C15.3938 28.5452 15.2331 28.5809 15.126 28.5809C15.0188 28.5898 14.8492 28.6702 14.7331 28.7684C14.617 28.8755 14.4652 28.9291 14.4027 28.9023C14.2777 28.8577 13.6349 29.2148 13.5277 29.3934C13.4385 29.5362 13.626 29.5005 13.751 29.3398C13.8224 29.2684 13.9563 29.1612 14.0545 29.1077C14.2242 29.0184 14.2331 29.0184 14.117 29.1523C14.0188 29.2773 14.0188 29.3041 14.117 29.3041C14.2063 29.313 14.1885 29.3577 14.0635 29.4648C13.7331 29.7505 13.3045 30.3577 13.1706 30.7416C12.9652 31.322 13.0635 31.2505 13.3938 30.5898C13.867 29.6255 14.6438 28.9916 15.7152 28.7148C16.992 28.3845 18.9117 28.7773 18.9385 29.3845C18.9563 29.5898 18.9563 29.5987 18.992 29.4112C19.0456 29.1434 19.1974 29.1612 19.1974 29.438V29.6523L18.2777 29.6434C17.7063 29.6345 17.2867 29.6702 17.1795 29.7416C17.0456 29.822 17.0902 29.8309 17.4563 29.7862L17.9027 29.7237L17.501 30.0362C17.0188 30.4023 16.5277 31.1791 16.7777 31.1791C16.8224 31.1791 16.9206 31.0184 17.001 30.8309C17.2242 30.2505 17.8492 29.8577 18.6885 29.7684C19.2063 29.7059 19.242 29.688 19.2867 29.447L19.3313 29.197L19.501 29.3845C19.5902 29.4827 19.7063 29.5452 19.742 29.5184C19.7867 29.4916 19.8224 29.5005 19.8224 29.5452C19.8224 29.5809 20.0456 29.7327 20.3135 29.8755C20.992 30.2237 20.9385 30.3398 20.251 30.0184C19.9385 29.8666 19.6081 29.7505 19.5099 29.7505C19.4117 29.7595 19.501 29.8309 19.7331 29.9202C20.9117 30.3934 21.7688 31.0273 22.5099 31.9827C22.7152 32.2505 22.9206 32.5273 22.9742 32.5809C23.0277 32.6612 23.0277 32.697 22.9742 32.697C22.9206 32.697 22.6885 32.447 22.4474 32.1434C21.9385 31.4916 21.867 31.4202 21.3402 30.9827C20.5456 30.3398 19.5724 29.9291 18.8402 29.9291C18.4027 29.9291 17.6706 30.2416 17.6081 30.4559C17.5813 30.5452 17.6438 30.5273 17.8045 30.4023C17.9385 30.2952 18.1706 30.1791 18.3313 30.1523C18.492 30.1166 18.6974 30.072 18.7956 30.0452C18.9563 30.0005 18.9652 30.0095 18.8402 30.1523C18.7152 30.3041 18.7242 30.3041 18.9295 30.2327C19.3135 30.1077 19.7152 30.188 20.3849 30.5184C20.9117 30.7773 21.2152 31.0273 22.0635 31.9112C22.7688 32.6345 23.1617 32.9737 23.2688 32.947C23.5367 32.9023 23.5099 32.7237 23.1795 32.3577C22.6617 31.7952 22.5099 31.072 23.0099 31.572C23.126 31.697 23.4295 31.8577 23.6795 31.947C23.9652 32.0362 24.1438 32.1523 24.1706 32.2595C24.2152 32.438 24.376 32.5005 24.376 32.3398C24.376 32.2237 24.8938 31.9648 25.001 32.0273C25.0545 32.0541 25.0902 32.1791 25.0902 32.2952C25.0902 32.8398 26.0902 34.3398 26.6974 34.688C26.8492 34.7862 26.9563 34.8755 26.9295 34.9023C26.7599 35.072 25.4027 33.8934 25.1617 33.3666C25.1081 33.2416 25.0277 33.1434 24.9831 33.1434C24.867 33.1434 25.1349 33.6077 25.3938 33.8487C25.5188 33.9737 25.626 34.1077 25.626 34.1523C25.626 34.2595 25.117 33.8398 24.251 33.0184C23.8581 32.6434 23.5188 32.3577 23.501 32.3845C23.4206 32.4559 24.3402 33.4112 24.6706 33.5987C24.8581 33.697 24.992 33.8041 24.9652 33.8309C24.9385 33.8577 24.6706 33.7327 24.367 33.5541C24.0635 33.3755 23.7688 33.2416 23.7152 33.2595C23.617 33.2952 23.7599 33.3755 24.7152 33.8487C25.0188 34.0005 25.2688 34.1612 25.2688 34.2059C25.2688 34.3577 23.742 33.7059 23.617 33.5005C23.5902 33.4559 23.5188 33.4112 23.4652 33.4112C23.2956 33.4112 23.5724 33.6612 24.0456 33.9291C24.3045 34.072 24.7956 34.2773 25.1349 34.3934C25.4831 34.5095 25.8581 34.6702 25.9831 34.7505C26.1081 34.8398 26.3938 34.9827 26.617 35.0898C26.8492 35.188 27.0635 35.313 27.0902 35.3666C27.1795 35.5095 27.1617 35.5005 26.242 35.072C25.492 34.7237 25.1438 34.6166 24.867 34.6523C24.8224 34.6612 25.0813 34.7684 25.4474 34.8934C25.8135 35.0184 26.242 35.197 26.3849 35.2862C26.5367 35.3666 26.9385 35.5362 27.2777 35.6523C27.8134 35.8309 28.0724 35.8666 29.1527 35.8577C30.2509 35.8577 30.4563 35.8309 30.8492 35.6612C31.3045 35.4559 31.6974 35.1434 31.6974 34.9916C31.6974 34.947 31.6081 34.8398 31.5009 34.7505C31.3313 34.6166 31.3134 34.5541 31.3938 34.4202C31.617 34.063 32.0545 34.2773 32.0545 34.7505C32.0545 35.572 30.4295 36.2595 28.7509 36.1434C27.9117 36.0809 27.0635 35.8755 26.117 35.5184C25.7777 35.3845 25.2777 35.197 25.0277 35.0987C24.3313 34.8487 23.0367 34.8487 23.0367 35.1166C23.0367 35.1612 23.117 35.197 23.2063 35.197C23.3045 35.197 23.4117 35.2773 23.4385 35.3755C23.501 35.5809 23.3492 35.822 23.1617 35.822C22.9742 35.822 22.6795 35.4916 22.6795 35.2773C22.6795 35.0362 23.2331 34.4827 23.4742 34.4827C23.7599 34.4827 23.6974 34.313 23.3492 34.1612C22.8938 33.9737 21.9474 34.0005 21.5277 34.2059C21.1706 34.3934 20.9206 34.813 21.0188 35.063C21.0724 35.2148 21.251 35.2505 21.251 35.1077C21.251 35.0541 21.3492 35.0184 21.4742 35.0184C21.6349 35.0184 21.7063 35.0809 21.751 35.2595C21.8402 35.5898 21.6885 35.7684 21.3224 35.8041C20.9652 35.8309 20.7688 35.6255 20.6706 35.0987C20.626 34.8577 20.6706 34.7148 20.8581 34.4202C21.2956 33.7595 22.501 33.5184 23.4385 33.9112C23.6617 34.0005 23.0902 33.2952 22.0724 32.2327C20.9027 31.0184 19.876 30.4112 19.1081 30.4827C18.8492 30.5005 18.7688 30.563 18.6349 30.8487C18.4563 31.2148 18.376 31.2059 18.126 30.8041L17.9652 30.5452L17.6081 30.8845C17.242 31.2327 17.001 31.822 17.1081 32.1077C17.1974 32.3398 17.0099 32.2773 16.7242 31.9827C16.1081 31.3487 16.1438 30.6077 16.7956 30.313C17.242 30.1166 17.242 30.0005 16.7867 30.072C16.5902 30.1077 16.4295 30.0987 16.4295 30.0541C16.4295 30.0095 16.617 29.7952 16.8402 29.5809C17.1885 29.2416 17.2777 29.2059 17.5277 29.2505C18.4385 29.4202 18.4831 29.4202 18.4831 29.2684C18.4831 29.0095 18.0367 28.9202 16.7867 28.9112C15.5813 28.9023 15.5724 28.9023 14.9742 29.2059C14.3402 29.5273 14.0992 29.7862 13.7152 30.5273C13.4206 31.1166 13.4206 31.447 13.7152 31.7952L13.9474 32.072H13.5992C13.4117 32.072 13.2063 32.0273 13.1527 31.9737C13.0813 31.9023 12.9742 31.9291 12.751 32.0987C12.4563 32.322 12.4474 32.3309 12.3402 32.1612C12.126 31.822 12.2956 31.4202 12.751 31.188C12.9652 31.072 13.0188 30.822 12.8313 30.822C12.6617 30.822 12.3313 31.1523 12.2152 31.4291C12.0099 31.947 12.1527 33.2505 12.4742 33.9023C12.6617 34.2773 13.376 35.0005 13.751 35.197C14.5992 35.6345 15.6795 35.438 15.9385 34.8041C16.1081 34.4023 16.1081 34.1255 15.9295 33.8755C15.742 33.5987 15.5635 33.6255 15.492 33.947C15.3938 34.3934 14.9117 34.2505 14.9117 33.7773C14.9117 33.2148 15.617 33.0362 16.0724 33.4916C16.5813 34.0005 16.5367 34.6702 15.9474 35.2505C15.6349 35.572 15.5099 35.6345 15.0902 35.688C14.5813 35.7505 13.9027 35.6434 13.492 35.4291C13.367 35.3577 13.0545 35.1077 12.7956 34.8755C11.9027 34.0452 11.5724 32.6434 11.9563 31.3487C12.1617 30.6791 12.2599 30.4916 12.742 29.8487C13.0813 29.3934 14.0545 28.7327 14.6349 28.5452C15.0992 28.4112 15.8045 28.3666 15.492 28.5005ZM14.5545 29.1255C14.3402 29.2952 14.1974 29.3487 14.1974 29.2595C14.1974 29.2148 14.6527 28.9559 14.7331 28.9559C14.7599 28.9559 14.6795 29.0273 14.5545 29.1255Z" fill="white"/>
<path d="M47.8394 28.2855C46.1698 28.5801 44.5626 29.4997 43.3751 30.8212L42.8216 31.4462L42.7055 31.223C42.6341 31.098 42.5716 30.9997 42.5537 30.9997C42.5359 30.9997 42.2501 31.1783 41.9287 31.4015C41.5984 31.6247 41.2323 31.8033 41.1162 31.8033C41.0001 31.8033 40.8662 31.8747 40.8126 31.9551C40.7323 32.1069 40.7144 32.1069 40.6073 31.964C40.5448 31.8747 40.3751 31.7855 40.2234 31.7497C39.9644 31.7051 39.9466 31.723 39.7859 32.1783C39.3662 33.3837 38.5269 34.4551 37.6162 34.9551C36.7323 35.4372 35.1609 35.4819 34.3126 35.0622C33.9555 34.8837 33.8841 34.7765 33.8841 34.4372C33.8841 34.2319 33.8216 34.1426 33.6251 34.0444C33.3751 33.9283 33.3484 33.9372 33.1519 34.1605C32.7412 34.6426 32.9734 35.3569 33.6787 35.7587C34.4555 36.2051 36.143 36.4015 37.2501 36.1694C37.8305 36.0444 38.9019 35.7319 39.9109 35.3837C40.3305 35.2408 40.8216 35.098 41.0001 35.0712L41.3305 35.0087L41.2769 35.3212C41.1876 35.9105 41.8484 36.214 42.3573 35.8122C42.7144 35.5355 42.6787 35.089 42.268 34.6783C42.0359 34.4462 41.9823 34.348 42.0716 34.2944C42.2323 34.1872 42.393 34.1962 42.7412 34.3212C43.0626 34.4372 43.2234 34.7765 43.0448 34.9551C42.893 35.1069 42.9287 35.5087 43.1073 35.7319C43.2144 35.8658 43.4019 35.9462 43.6876 35.973C44.0716 36.0176 44.1251 35.9997 44.3751 35.7319C44.5805 35.5176 44.643 35.3658 44.643 35.089C44.643 34.223 43.9019 33.6069 42.7859 33.5444C42.4555 33.5265 42.1698 33.5087 42.143 33.5087C42.1162 33.4997 42.6162 32.9908 43.2412 32.3747C44.1698 31.464 44.5001 31.1962 44.9734 30.9819C45.7234 30.6426 46.0626 30.6694 46.2501 31.0712C46.3662 31.3301 46.4198 31.3569 46.643 31.3122C46.7859 31.2855 46.9734 31.2051 47.0537 31.1337C47.2591 30.9462 47.2859 30.9551 47.4912 31.3033C47.6966 31.6247 47.7323 32.1515 47.5805 32.4462C47.4912 32.6158 47.5001 32.6247 47.7323 32.5712C48.2055 32.4551 48.6876 32.0444 48.8751 31.598C49.0359 31.223 49.0448 31.1158 48.9466 30.6694C48.8573 30.2497 48.8662 30.1515 48.9734 30.0712C49.0805 29.9908 49.0091 29.9015 48.6162 29.5712C48.3484 29.348 48.1341 29.1337 48.1341 29.089C48.1251 28.973 49.3305 29.1069 49.7144 29.2676C50.643 29.6515 51.2501 30.3747 51.2501 31.1158C51.2501 31.3658 51.1876 31.6605 51.0984 31.8122C50.9555 32.0622 50.9555 32.0712 51.1162 32.2051C51.3305 32.3569 51.6073 32.3747 51.9109 32.2408C52.4198 32.0087 52.5269 32.6247 52.1251 33.4551C51.7501 34.2051 51.2323 34.5712 50.5269 34.589C50.018 34.6069 49.9198 34.5444 50.1251 34.348C50.518 33.9551 50.518 33.4551 50.1162 33.1426C49.6609 32.7855 48.9823 32.9551 48.6698 33.4997C48.2948 34.1605 48.5091 35.0087 49.1698 35.5176C49.4912 35.7676 49.5537 35.7765 50.4019 35.7765C51.4555 35.7765 51.893 35.6069 52.5805 34.9372C53.143 34.3926 53.4019 33.714 53.4644 32.6962C53.5359 31.3033 53.1966 30.339 52.3484 29.5265C51.6519 28.8569 51.018 28.5087 50.143 28.3122C49.2948 28.1158 48.7769 28.1158 47.8394 28.2855ZM50.4912 28.5622C51.5984 28.9105 52.5448 29.8212 53.0626 31.0355C53.3037 31.6069 53.3216 31.723 53.2859 32.464C53.2323 33.5265 52.9734 34.1872 52.393 34.8033C51.8751 35.3569 51.2501 35.6515 50.4912 35.7051C49.8394 35.7497 49.268 35.4997 48.9466 35.0176C48.768 34.7587 48.7412 34.6247 48.768 34.1783C48.8037 33.7408 48.8484 33.6158 49.0537 33.4372C49.5716 32.9908 50.4019 33.3926 50.1876 33.973C50.1162 34.1426 50.0269 34.214 49.8662 34.214C49.6787 34.214 49.643 34.1694 49.643 33.9551C49.643 33.6158 49.4198 33.5355 49.2323 33.8033C49.143 33.9462 49.1073 34.1694 49.1251 34.4462C49.1519 34.8122 49.1966 34.9015 49.4912 35.1337C49.7769 35.3747 49.893 35.4105 50.3841 35.4105C51.7323 35.4194 52.7859 34.2765 52.9734 32.598C53.0537 31.9015 53.0448 31.7676 52.9019 31.4462C52.6876 30.9819 52.2323 30.6247 52.2323 30.9283C52.2323 30.9908 52.3751 31.1605 52.5448 31.2944C52.7859 31.4908 52.8573 31.6069 52.8573 31.8301C52.8573 32.2855 52.6966 32.3747 52.3573 32.1158C52.1876 31.9819 52.0448 31.9283 52.0091 31.9819C51.9555 32.0801 51.2501 32.1069 51.2501 32.0176C51.2501 31.9908 51.3305 31.8658 51.4287 31.7408C51.6698 31.4372 51.6519 30.973 51.393 30.4194C51.1073 29.8212 50.8126 29.5355 50.1519 29.1962C49.6519 28.9372 49.5091 28.9105 48.6073 28.8747C47.5359 28.839 46.6073 29.0087 46.6073 29.2497C46.6073 29.4462 46.8484 29.4819 47.1787 29.348C47.3573 29.2765 47.5805 29.214 47.6787 29.214C47.8573 29.214 48.6609 29.8747 48.6609 30.0265C48.6609 30.0712 48.518 30.1069 48.3484 30.1069C47.9644 30.1069 47.9376 30.2497 48.2948 30.3301C48.6251 30.4015 48.7501 30.5444 48.8037 30.9283C48.8662 31.3033 48.6519 31.8122 48.3394 32.0622C48.018 32.3122 47.9376 32.2944 48.0001 31.9908C48.0626 31.6694 47.7859 31.1069 47.4019 30.7765C47.1341 30.5533 47.1073 30.5444 47.0448 30.7051C47.0091 30.7944 46.9019 30.9462 46.7948 31.0355C46.643 31.1783 46.6073 31.1783 46.6073 31.0712C46.6073 30.9997 46.518 30.8212 46.4109 30.6872C46.1162 30.3122 45.5269 30.3926 44.5716 30.9462C43.9555 31.3033 43.6519 31.5801 42.7234 32.5801C41.643 33.7497 41.4287 34.0355 41.768 33.9015C42.1251 33.7497 42.8126 33.6872 43.1966 33.7765C44.0716 33.973 44.5269 34.4819 44.4287 35.1337C44.3484 35.6158 44.1519 35.8212 43.7859 35.8212C43.4734 35.8212 43.3037 35.6337 43.3037 35.2944C43.3037 35.0622 43.6876 34.9462 43.893 35.1158C44.1073 35.2944 44.2144 35.0533 44.0716 34.714C43.8841 34.2408 43.4644 34.0355 42.7234 34.0355C42.3484 34.0355 41.9376 34.089 41.7501 34.1694C41.4019 34.3212 41.3216 34.4819 41.6073 34.4819C41.6966 34.4819 41.9198 34.6069 42.0984 34.7587C42.3573 34.9908 42.4109 35.098 42.393 35.3122C42.3751 35.464 42.2859 35.6337 42.1787 35.7051C42.0091 35.8122 41.9644 35.8033 41.7769 35.6515C41.5716 35.4819 41.5716 35.473 41.7323 35.3033C41.8216 35.1962 41.9466 35.1426 42.0359 35.1694C42.1251 35.2051 42.1519 35.1872 42.1073 35.1247C42.0716 35.0712 41.8841 34.9819 41.6876 34.9283C41.2234 34.8033 40.4466 34.9372 39.4644 35.3301C37.9823 35.9283 37.1876 36.1069 36.1162 36.1247C34.5359 36.1337 33.4466 35.7319 33.143 35.0176C33.0359 34.7497 33.0359 34.6783 33.143 34.4819C33.2859 34.223 33.5537 34.1872 33.6966 34.4194C33.7769 34.5533 33.7591 34.6158 33.5894 34.7497C33.4109 34.9015 33.4019 34.9462 33.5001 35.1069C33.5626 35.214 33.8573 35.4283 34.1519 35.5801C34.6787 35.848 34.7144 35.8569 35.9376 35.8569C37.2948 35.8569 37.7412 35.7497 39.1073 35.1247C39.4287 34.9819 39.8216 34.8301 39.9823 34.7944C40.1341 34.7676 40.268 34.6962 40.268 34.6515C40.268 34.5265 39.8573 34.6426 38.9912 35.0265C38.5626 35.223 38.1876 35.3747 38.1609 35.3747C37.8662 35.3747 39.3751 34.589 40.1341 34.3569C40.6966 34.1783 41.6251 33.6605 41.6787 33.4997C41.7144 33.4015 41.6787 33.4015 41.5091 33.5176C41.0359 33.8569 39.9109 34.3212 39.9109 34.1872C39.9109 34.1605 40.2234 33.973 40.6073 33.7676C41.3126 33.3926 41.5359 33.2319 41.3751 33.2319C41.3305 33.2319 41.0716 33.3747 40.8037 33.5444C40.2769 33.8837 39.9734 33.964 40.4019 33.6515C40.7412 33.4015 41.5984 32.4997 41.6073 32.3926C41.6073 32.3212 41.0448 32.8212 40.0894 33.7319C39.6609 34.1426 39.5894 34.1158 39.9109 33.6605C40.0626 33.464 40.1609 33.2676 40.1251 33.2408C40.0984 33.214 40.0359 33.2676 39.9734 33.3658C39.7769 33.723 38.8751 34.598 38.5269 34.7676L38.1698 34.9372L38.5805 34.5533C39.2501 33.9283 40.0001 32.8569 40.0001 32.5265C40.0001 32.4819 40.0359 32.339 40.0894 32.2051C40.1698 31.9819 40.1876 31.9819 40.4376 32.1158C40.5894 32.1872 40.7412 32.3122 40.7859 32.3926C40.8573 32.5176 40.8751 32.5087 40.9198 32.3122C40.9644 32.1426 41.0805 32.0622 41.4466 31.9372C41.7055 31.8569 42.0269 31.6872 42.1698 31.5533L42.4109 31.3212V31.5533C42.4109 31.6872 42.2591 31.973 42.0537 32.2319C41.643 32.7497 41.5984 32.964 41.9109 32.964C42.0626 32.964 42.268 32.7855 42.6609 32.3033C43.893 30.8033 45.3484 29.964 46.2501 30.2408C46.4644 30.3033 46.4644 30.3033 46.2948 30.1605C46.1966 30.089 46.1519 30.0176 46.1876 30.0176C46.3751 30.0176 47.1251 30.2408 47.3216 30.3658C47.5448 30.4997 47.5448 30.4997 47.3841 30.3122C47.1609 30.0533 46.5269 29.8926 45.9734 29.964C44.8751 30.1158 43.8216 30.7855 42.8037 31.9819C42.1162 32.8033 41.9287 32.8747 42.5269 32.089C43.1341 31.3033 44.0894 30.5087 44.8394 30.1515C45.1966 29.9819 45.4287 29.848 45.3484 29.839C45.2769 29.839 45.0091 29.9372 44.768 30.0622C44.5269 30.1872 44.3126 30.2855 44.2948 30.2855C44.1698 30.2855 44.6162 29.9283 44.8484 29.8301C45.0091 29.7676 45.2859 29.598 45.4734 29.4551L45.8037 29.1962L45.8126 29.4105V29.6158L45.9109 29.3926L46.0091 29.1694L46.0716 29.3926L46.143 29.6158L46.1519 29.3747C46.1787 28.6962 48.5716 28.3658 49.8305 28.8569C50.0716 28.9551 50.3216 29.0087 50.393 28.9819C50.4734 28.9551 50.6609 29.0176 50.8216 29.1247C51.0894 29.3122 51.0894 29.3033 50.768 29.0087C50.5269 28.7855 50.2769 28.6515 49.9466 28.5801C49.6876 28.5176 49.4912 28.4462 49.5091 28.4105C49.5626 28.3301 49.9109 28.3837 50.4912 28.5622Z" fill="white"/>
<path d="M51.2947 29.2508C51.4911 29.4205 51.6608 29.5455 51.6876 29.5276C51.7322 29.483 51.3572 29.1526 51.1161 29.0276C51.0179 28.983 51.0983 29.0812 51.2947 29.2508Z" fill="white"/>
<path d="M50.5362 29.1969C51.063 29.5629 51.447 29.9915 51.7059 30.5183C52.0095 31.1254 52.1612 31.2415 51.9291 30.6879C51.7148 30.179 51.2059 29.5361 50.8041 29.2683C50.6077 29.1433 50.4202 29.0361 50.3845 29.0451C50.3398 29.0451 50.4112 29.1165 50.5362 29.1969Z" fill="white"/>
<path d="M46.3842 29.3663C46.4199 29.6431 46.411 29.6609 46.1342 29.6699C45.9824 29.6699 45.7681 29.7056 45.6699 29.7502C45.5538 29.8038 45.6878 29.8127 46.027 29.777C46.3217 29.7502 46.7235 29.777 46.9199 29.8306C47.3842 29.9556 47.902 30.3841 48.1342 30.8395C48.2324 31.0359 48.3395 31.1699 48.3663 31.1431C48.4824 31.027 48.161 30.527 47.7324 30.1341L47.277 29.7234L47.6788 29.7859C48.0003 29.8306 48.0449 29.8216 47.9199 29.7502C47.8306 29.6877 47.4735 29.6431 47.1342 29.652H46.5181L46.4288 29.3663L46.3395 29.0806L46.3842 29.3663Z" fill="white"/>
<path d="M32.2853 31.9016C32.1514 31.9819 32.1425 32.0176 32.2407 32.0801C32.33 32.1337 32.3657 32.4819 32.3836 33.5087C32.4014 34.8301 32.4103 34.8748 32.5978 34.9016C32.7853 34.9283 32.7943 34.9105 32.7496 34.1248C32.7228 33.6337 32.7318 33.2944 32.7853 33.2676C32.8389 33.2319 32.8568 33.0533 32.83 32.8569C32.8032 32.6605 32.8211 32.3837 32.8657 32.2319C32.9103 32.0712 32.9371 31.9373 32.9193 31.9283C32.83 31.8391 32.4193 31.8212 32.2853 31.9016Z" fill="white"/>
<path d="M31.0181 32.0804C30.9913 32.125 31.036 32.1607 31.1074 32.1607C31.1788 32.1607 31.3396 32.2946 31.4556 32.4464C31.7592 32.8571 31.8128 32.9643 31.7056 32.9643C31.661 32.9643 31.536 32.8214 31.4288 32.6429C31.3217 32.4732 31.2056 32.3482 31.1788 32.3839C31.1521 32.4107 31.036 32.3393 30.9199 32.2321C30.4913 31.8304 30.7413 32.2232 31.2056 32.6875C31.5271 33.0089 31.7146 33.2679 31.7503 33.4643C31.7771 33.625 31.8931 33.8393 32.0003 33.9375L32.2056 34.125L32.1342 33.6161C32.0896 33.3304 32.0092 32.9018 31.9467 32.6607C31.8396 32.2589 31.8038 32.2143 31.4467 32.1161C31.2324 32.0446 31.0538 32.0357 31.0181 32.0804Z" fill="white"/>
<path d="M33.6431 32.1072C33.3396 32.1876 33.3128 32.2144 33.1878 32.7322C33.1074 33.0358 33.0181 33.4733 32.9824 33.7233L32.9199 34.1697L33.0985 33.9465C33.3485 33.6162 33.4735 33.2769 33.4199 33.0626C33.3574 32.8215 33.7324 32.259 33.9467 32.2769C34.1164 32.2858 34.1789 32.4287 34.0092 32.4287C33.8931 32.4287 33.7235 32.5983 33.5806 32.8662C33.3842 33.2233 33.5181 33.143 33.9735 32.6251C34.2146 32.3483 34.3485 32.1519 34.2681 32.1876C34.1789 32.2144 34.0806 32.1965 34.0449 32.134C33.9914 32.0537 33.8842 32.0447 33.6431 32.1072Z" fill="white"/>
<path d="M30.3572 32.5188C30.2858 32.5635 30.1519 32.5813 30.0715 32.5545C29.7858 32.4652 29.9019 32.6527 30.1965 32.7688C30.3483 32.8224 30.4554 32.9027 30.4197 32.9295C30.3304 33.0277 30.5269 33.3224 30.6876 33.3224C30.7679 33.3224 30.8126 33.3492 30.7769 33.376C30.7501 33.4027 30.8662 33.5545 31.0358 33.6974C31.3215 33.9474 31.3662 33.9652 31.4912 33.8402C31.6162 33.7152 31.5894 33.6527 31.2501 33.2242C30.7769 32.6081 30.5269 32.4117 30.3572 32.5188Z" fill="white"/>
<path d="M34.1614 32.8937C33.5275 33.5455 33.4293 33.733 33.6436 33.8491C33.7775 33.9205 33.8936 33.8669 34.2507 33.5455C34.4918 33.3223 34.715 33.1437 34.7507 33.1437C34.7864 33.1437 34.7953 33.0901 34.7686 33.0187C34.7418 32.9473 34.7953 32.8491 34.9025 32.7955C35.1257 32.6705 35.2061 32.6705 35.1346 32.7866C35.1078 32.8401 35.1436 32.8491 35.2239 32.8223C35.3311 32.7776 35.34 32.733 35.2686 32.6437C35.2061 32.5812 35.1078 32.5544 35.0364 32.5812C34.965 32.608 34.8489 32.5812 34.7686 32.5187C34.6614 32.4205 34.5632 32.4741 34.1614 32.8937Z" fill="white"/>
<path d="M32.2141 32.8315C32.2319 32.9565 32.2676 33.0547 32.2855 33.0547C32.3034 33.0547 32.3212 32.9565 32.3212 32.8315C32.3212 32.7065 32.2855 32.6083 32.2409 32.6083C32.2051 32.6083 32.1873 32.7065 32.2141 32.8315Z" fill="white"/>
<path d="M29.7052 32.8204C29.6695 32.9097 29.7409 32.9811 29.9284 33.0436C30.1962 33.1418 30.1962 33.1329 30.0712 32.9454C29.9016 32.6954 29.7677 32.6507 29.7052 32.8204Z" fill="white"/>
<path d="M35.0894 33.0184L34.8662 33.1523L35.0894 33.0898C35.2144 33.0631 35.3484 33.0006 35.4019 32.9559C35.5359 32.8309 35.3394 32.8666 35.0894 33.0184Z" fill="white"/>
<path d="M29.4025 33.2934C29.1346 33.472 29.1435 33.5881 29.4203 33.5881C29.5543 33.5881 29.6435 33.5345 29.6435 33.4631C29.6435 33.347 29.6793 33.347 29.8846 33.4541C30.0096 33.5166 30.1435 33.6059 30.1703 33.6506C30.1971 33.6863 30.3757 33.7934 30.5632 33.8827C30.7864 33.9809 30.8935 34.0881 30.8668 34.1595C30.84 34.222 30.8668 34.3291 30.9203 34.3827C31.1078 34.5702 30.7507 34.4898 30.3489 34.2577C30.1346 34.1327 29.8757 34.0345 29.7775 34.0434C29.6346 34.0434 29.6614 34.0702 29.8668 34.1684L30.1346 34.3023L29.8221 34.2577L29.5096 34.2131L29.7775 34.347C29.9293 34.4184 30.1168 34.472 30.206 34.4809C30.2953 34.4809 30.4918 34.5434 30.6346 34.6238C30.7864 34.6952 30.9203 34.7488 30.9382 34.7309C30.956 34.7131 31.0007 34.5613 31.0453 34.3916C31.1257 34.097 31.1078 34.0613 30.8132 33.8202C30.5721 33.6327 29.6435 33.1148 29.6078 33.1506C29.5989 33.1506 29.5096 33.2131 29.4025 33.2934Z" fill="white"/>
<path d="M35.1694 33.3037C34.6336 33.5537 34.0176 34.0537 34.0176 34.2322C34.0176 34.3483 34.0711 34.393 34.1783 34.3751C34.2676 34.3572 34.3211 34.2769 34.3033 34.1876C34.2854 34.1072 34.3301 34.0269 34.3926 34.018C34.4551 34.018 34.5533 34.0001 34.5979 33.9912C34.6515 33.9733 34.7586 33.9644 34.8479 33.9555C34.9461 33.9465 34.9997 33.8751 34.9997 33.7233C34.9997 33.4376 35.1961 33.3572 35.589 33.4822C35.7586 33.5269 35.8926 33.5447 35.8926 33.509C35.8926 33.4555 35.5533 33.134 35.5086 33.1519C35.4997 33.1519 35.3479 33.2233 35.1694 33.3037Z" fill="white"/>
<path d="M29.4202 33.6883C29.1523 33.7508 29.1791 33.7598 29.7148 33.8223C29.8756 33.8401 30.1256 33.9205 30.2684 33.9919C30.6077 34.1616 30.7238 34.1616 30.4648 33.9919C30.1077 33.7419 29.697 33.6169 29.4202 33.6883Z" fill="white"/>
<path d="M35.357 33.679C35.1517 33.804 35.2767 33.8397 35.7142 33.7683C35.9374 33.7326 36.0267 33.6969 35.9195 33.6879C35.8124 33.6879 35.6785 33.6611 35.607 33.6344C35.5445 33.6076 35.4285 33.6254 35.357 33.679Z" fill="white"/>
<path d="M29.1074 33.9478C29.1074 33.9925 29.1967 34.0371 29.3128 34.0371C29.4735 34.0371 29.4824 34.0193 29.3753 33.9478C29.2056 33.8318 29.1074 33.8318 29.1074 33.9478Z" fill="white"/>
<path d="M34.7414 34.3052C34.4735 34.448 34.2235 34.5462 34.1789 34.5194C34.1431 34.4927 34.1074 34.5373 34.1074 34.6087C34.1074 34.7784 34.1164 34.7784 34.5271 34.6266C34.7146 34.5552 35.0449 34.448 35.2592 34.3944C35.4646 34.3409 35.6253 34.2694 35.5985 34.2427C35.5628 34.2159 35.4199 34.2337 35.2771 34.2873C35.1253 34.3409 35.0003 34.3498 35.0003 34.3052C35.0003 34.2694 35.1074 34.1891 35.2503 34.1444C35.3842 34.0909 35.4289 34.0462 35.3574 34.0462C35.286 34.0462 35.0092 34.1623 34.7414 34.3052Z" fill="white"/>
<path d="M29.375 34.8211C29.375 34.8658 29.5089 34.8926 29.6696 34.8926C29.8214 34.8836 30.0804 34.9194 30.2232 34.9551L30.4911 35.0176L30.2679 34.8836C30.0268 34.7497 29.375 34.6961 29.375 34.8211Z" fill="white"/>
<path d="M35.0271 34.8203C34.9646 34.856 35.0986 34.8828 35.3129 34.8828C35.5361 34.8739 35.7414 34.8471 35.7682 34.8114C35.8575 34.7221 35.1611 34.731 35.0271 34.8203Z" fill="white"/>
<path d="M32.1073 35.3313C31.9288 35.6081 31.9288 35.617 32.152 35.6706C32.2948 35.7063 32.3127 35.6974 32.2234 35.5902C32.1609 35.5188 32.1609 35.4652 32.2145 35.4652C32.2591 35.4652 32.3216 35.3849 32.3484 35.2867C32.4109 35.0367 32.2859 35.0635 32.1073 35.3313Z" fill="white"/>
<path d="M32.7414 35.2858C32.7681 35.384 32.8574 35.4644 32.9378 35.4733C33.0449 35.4733 33.036 35.4912 32.9021 35.5537C32.7414 35.6251 32.7503 35.634 32.9646 35.634C33.3128 35.643 33.3753 35.8215 33.0271 35.8215C32.786 35.8215 32.7503 35.8483 32.7949 36.018C32.8217 36.134 32.8664 36.3215 32.8931 36.4465C32.9289 36.5715 32.9289 36.6162 32.8931 36.5537C32.8217 36.4019 32.6699 36.4198 32.7324 36.5715C32.7592 36.643 32.7324 36.7858 32.6789 36.893C32.5449 37.134 32.3931 37.009 32.3931 36.6787C32.3931 36.4555 32.2949 36.3662 32.2056 36.509C32.1878 36.5537 32.1878 36.518 32.2146 36.4465C32.2414 36.3751 32.2771 36.2055 32.3039 36.0626C32.3306 35.8662 32.3128 35.8215 32.161 35.8215C32.0628 35.8215 31.9289 35.8037 31.8574 35.7769C31.7949 35.759 31.6431 35.8215 31.5181 35.9198L31.2949 36.1073L31.7235 36.0537C32.1699 36.0001 32.2056 36.0358 32.0449 36.393C31.9556 36.5894 31.9735 36.6608 32.1789 36.9376C32.4735 37.3215 32.5985 37.3305 32.9021 36.9644C33.1253 36.6965 33.1431 36.5626 32.9824 36.1519C32.9467 36.0448 33.0092 36.0269 33.3396 36.0626C33.7592 36.1162 33.9199 35.9733 33.5806 35.8662C33.4824 35.8394 33.2592 35.6519 33.0896 35.4644C32.7235 35.0626 32.6789 35.0358 32.7414 35.2858Z" fill="white"/>
</g>
<defs>
<filter id="filter0_d_251_442" x="-3.19629" y="0.998779" width="68.8926" height="44.2336" filterUnits="userSpaceOnUse" color-interpolation-filters="sRGB">
<feFlood flood-opacity="0" result="BackgroundImageFix"/>
<feColorMatrix in="SourceAlpha" type="matrix" values="0 0 0 0 0 0 0 0 0 0 0 0 0 0 0 0 0 0 127 0" result="hardAlpha"/>
<feOffset dy="4"/>
<feGaussianBlur stdDeviation="2"/>
<feComposite in2="hardAlpha" operator="out"/>
<feColorMatrix type="matrix" values="0 0 0 0 0 0 0 0 0 0 0 0 0 0 0 0 0 0 0.25 0"/>
<feBlend mode="normal" in2="BackgroundImageFix" result="effect1_dropShadow_251_442"/>
<feBlend mode="normal" in="SourceGraphic" in2="effect1_dropShadow_251_442" result="shape"/>
</filter>
</defs>
</svg>
