<svg width="26" height="27" viewBox="0 0 26 27" fill="none" xmlns="http://www.w3.org/2000/svg">
<path d="M13.1728 12.2752C13.0645 12.2643 12.9345 12.2643 12.8153 12.2752C10.237 12.1885 8.18945 10.076 8.18945 7.47602C8.18945 4.82185 10.3345 2.66602 12.9995 2.66602C15.6536 2.66602 17.8095 4.82185 17.8095 7.47602C17.7986 10.076 15.7511 12.1885 13.1728 12.2752Z" stroke="#323232" stroke-width="1.5" stroke-linecap="round" stroke-linejoin="round"/>
<path d="M7.75727 16.274C5.1356 18.029 5.1356 20.889 7.75727 22.6332C10.7364 24.6265 15.6223 24.6265 18.6014 22.6332C21.2231 20.8782 21.2231 18.0182 18.6014 16.274C15.6331 14.2915 10.7473 14.2915 7.75727 16.274Z" stroke="#323232" stroke-width="1.5" stroke-linecap="round" stroke-linejoin="round"/>
</svg>
